<svg id="Grupo_1103365" data-name="Grupo 1103365" xmlns="http://www.w3.org/2000/svg" xmlns:xlink="http://www.w3.org/1999/xlink" width="152.711" height="157.527" viewBox="0 0 152.711 157.527">
  <defs>
    <clipPath id="clip-path">
      <rect id="Rectángulo_402925" data-name="Rectángulo 402925" width="152.711" height="157.527" fill="#824ffb"/>
    </clipPath>
  </defs>
  <g id="Grupo_1103364" data-name="Grupo 1103364" clip-path="url(#clip-path)">
    <path id="Trazado_897730" data-name="Trazado 897730" d="M101.276,0c.521.185,1.043.367,1.563.555a11.01,11.01,0,0,1,7.737,9.587,21.405,21.405,0,0,1,.11,2.609q.009,23.147,0,46.292v2.042c2.408.233,4.7.35,6.964.695a20.832,20.832,0,0,1,11.417,5.9,3.682,3.682,0,0,0,2.238.9c2.97.1,5.946.027,8.92.045,5.323.033,8.409,3.115,8.411,8.375v.615c0,6.153-2.815,8.949-9.04,8.974-1.427.006-2.855,0-4.382,0-.039.572-.1,1.014-.094,1.455.061,8.2-.008,16.409.3,24.6.072,1.933,1.41,3.82,2.225,5.877.652-.33.948-.494,1.256-.634a4.565,4.565,0,0,1,6.04,1.765q3.618,6.069,7.064,12.241c1.443,2.589.637,4.994-2.128,6.6q-12.492,7.248-25.011,14.449c-2.173,1.255-4.334,2.531-6.52,3.764-2.738,1.545-5.22.884-6.816-1.8-1.041-1.752-2.044-3.527-3.16-5.457A11.606,11.606,0,0,1,101,153.658a19.289,19.289,0,0,1-2.45.149q-43.224.012-86.447,0c-7.3,0-12.071-4.74-12.072-11.995Q.018,90.143,0,38.469a8.134,8.134,0,0,1,2.582-6.145c9.788-9.716,19.5-19.511,29.3-29.206A31.3,31.3,0,0,1,36.346,0Zm4.665,136.81c-7.629-7.4-13.122-15.905-14.566-26.8-3.571,2.327-7.183,2.991-10.8.682-3.659-2.339-4.669-5.883-3.91-10a9.033,9.033,0,0,1-5.16-13.761,32.642,32.642,0,0,1-5.23-1.223c-3.5-1.442-6.882-3.166-10.335-4.723-1.528-.69-2.62-1.687-2.6-3.445.024-1.693,1.131-2.639,2.586-3.3,3.45-1.567,6.852-3.24,10.338-4.72a12.236,12.236,0,0,1,3.993-.863c2.293-.138,4.6-.038,6.931-.038.108-.548.2-.992.281-1.436a8.847,8.847,0,0,1,9.188-7.4c4.045.177,8.085.482,12.127.72,2.276.134,4.554.247,6.892.373.032-.54.072-.893.072-1.245q0-23.917-.009-47.834c-.007-4.319-2.621-6.869-6.932-6.87q-29.46-.012-58.919,0c-.445,0-.89.052-1.446.087V6.93q0,14,0,27.993c0,2.7-.79,3.5-3.474,3.5q-14.076.006-28.152,0H4.951V141.359c0,5.133,2.393,7.531,7.512,7.531q42.843,0,85.686,0c.512,0,1.028.02,1.537-.024a6.037,6.037,0,0,0,5.207-3.289,2.66,2.66,0,0,0,.006-2.077c-1.326-2.727-1.173-4.244,1.042-6.689m-1.129-50.075c1.9,3.946,4.183,7.306,8.08,9.314,1.639.845,2.092,2.209,1.359,3.544-.721,1.31-2.1,1.6-3.718.756a20.272,20.272,0,0,1-8.358-8.142q-3.939-6.861-7.928-13.694a4.937,4.937,0,1,0-8.576,4.87c2.406,4.286,4.877,8.536,7.369,12.774a22.566,22.566,0,0,1,3.02,10.516,35.156,35.156,0,0,0,.682,5.479c1.839,8.718,6.774,15.586,13.147,21.542a1.875,1.875,0,0,0,1.673-.063c7.078-4.025,14.126-8.1,21.176-12.177a9.564,9.564,0,0,0,.868-.637c-.545-.951-.983-1.887-1.573-2.714a9.86,9.86,0,0,1-1.688-6.061c.028-7.893-.093-15.787-.156-23.68,0-.54,0-1.079,0-1.627ZM109.08,140.8l6.745,11.675,31.8-18.365-6.744-11.676L109.08,140.8M33.451,9.1,9.193,33.39H33.451ZM97.037,73.613c1.382,2.335,2.733,4.507,3.96,6.747a2.246,2.246,0,0,0,2.281,1.335c9.487-.047,18.975-.026,28.463-.031.488,0,.977-.063,1.461-.1V73.613Zm24.576-5.08q.057-.243.115-.484c-1.927-.527-3.83-1.383-5.786-1.525-9.76-.711-19.534-1.252-29.305-1.81a3.836,3.836,0,0,0-4.269,3.819Zm-38.785,5.14H71.813v7.981c2.345,0,4.588.055,6.825-.045.468-.021,1.293-.6,1.3-.944a11.228,11.228,0,0,1,2.887-6.992M81.456,85.949c-1.731,1.026-3.413,1.9-4.952,2.968a3.914,3.914,0,0,0,3.673,6.817c1.8-.806,3.48-1.873,5.281-2.863l-4-6.922m6.683,11.027c-1.924,1.126-3.5,1.961-4.986,2.94a3.847,3.847,0,0,0-1.261,5.25,3.932,3.932,0,0,0,5.174,1.583c1.01-.48,1.936-1.138,2.947-1.619a1.222,1.222,0,0,0,.693-1.741c-.8-2.074-1.649-4.13-2.567-6.413m50.275-23.368v8.046c1.941-.049,4.2.5,4.945-1.468a7.6,7.6,0,0,0-.109-5.3c-.82-1.816-3.049-1.366-4.836-1.278M66.709,74.716,60.4,77.623l6.308,2.892Z" fill="#824ffb"/>
    <path id="Trazado_897731" data-name="Trazado 897731" d="M55.425,131.045q16.3,0,32.61.012c.649,0,1.525-.046,1.9.327.617.621,1.35,1.64,1.225,2.35-.141.8-1.1,1.547-1.855,2.112-.373.278-1.091.118-1.653.118q-32.3.006-64.605,0c-.308,0-.616.01-.923-.005-1.685-.083-2.727-1.057-2.7-2.519s1.056-2.39,2.784-2.393q13.46-.018,26.919-.006h6.307" fill="#824ffb"/>
    <path id="Trazado_897732" data-name="Trazado 897732" d="M50.2,51.358c9.125,0,18.251-.025,27.375.04a4.088,4.088,0,0,1,2.591.926,2.314,2.314,0,0,1-1.174,3.792,6.544,6.544,0,0,1-1.823.158q-27.069.012-54.136.006c-.308,0-.616.011-.923,0-1.677-.085-2.722-1.068-2.695-2.528s1.06-2.381,2.794-2.383q14-.018,27.991-.006" fill="#824ffb"/>
    <path id="Trazado_897733" data-name="Trazado 897733" d="M46.875,116.017q-11.919,0-23.837,0a9.332,9.332,0,0,1-1.535-.045,2.428,2.428,0,0,1-.356-4.726,4.965,4.965,0,0,1,1.516-.145q24.225-.01,48.446,0a8.364,8.364,0,0,1,1.075.024,2.515,2.515,0,0,1,2.267,2.49A2.463,2.463,0,0,1,72.1,116c-.458.04-.922.019-1.384.019H46.875" fill="#824ffb"/>
    <path id="Trazado_897734" data-name="Trazado 897734" d="M41.924,96.071q-9.458,0-18.916,0a10.053,10.053,0,0,1-1.535-.052,2.24,2.24,0,0,1-2.038-2.157,2.2,2.2,0,0,1,1.609-2.489,6.5,6.5,0,0,1,1.969-.214q18.917-.018,37.833-.009c.153,0,.307,0,.461,0,2.055.026,3.226.93,3.226,2.488S63.4,96.067,61.3,96.069q-9.688.009-19.378,0" fill="#824ffb"/>
    <path id="Trazado_897735" data-name="Trazado 897735" d="M72.027,18.471q-9.45,0-18.9,0c-2.022,0-3.209-.959-3.162-2.518.045-1.5,1.2-2.4,3.139-2.4q19.054-.006,38.107,0c1.907,0,3.027.977,2.986,2.528-.04,1.494-1.115,2.362-2.963,2.39-.358,0-.717,0-1.076,0H72.027" fill="#824ffb"/>
    <path id="Trazado_897736" data-name="Trazado 897736" d="M73.574,33.5q10.056,0,20.112,0c2.205,0,3.391,1.208,3.351,3.355a3.02,3.02,0,0,1-3.31,3.258q-20.275.015-40.55-.005c-2.472,0-3.881-2.371-2.914-4.8a2.7,2.7,0,0,1,2.872-1.828c6.813.028,13.626.013,20.439.013" fill="#824ffb"/>
    <path id="Trazado_897737" data-name="Trazado 897737" d="M33.911,76.2c-3.686,0-7.372.006-11.058-.007a6.191,6.191,0,0,1-1.669-.164,2.4,2.4,0,0,1,.288-4.692,7.689,7.689,0,0,1,1.225-.057q11.287,0,22.576,0c.307,0,.616,0,.92.026a2.288,2.288,0,0,1,2.269,2.261,2.345,2.345,0,0,1-2.116,2.564,8.312,8.312,0,0,1-1.377.067q-5.529.008-11.058,0" fill="#824ffb"/>
  </g>
</svg>
