<svg xmlns="http://www.w3.org/2000/svg" xmlns:xlink="http://www.w3.org/1999/xlink" width="72" height="72" viewBox="0 0 72 72">
  <defs>
    <clipPath id="clip-path">
      <rect id="Rectángulo_401710" data-name="Rectángulo 401710" width="35.708" height="40.455" fill="none"/>
    </clipPath>
  </defs>
  <g id="Grupo_1103498" data-name="Grupo 1103498" transform="translate(-215 -12197.44)">
    <path id="Trazado_824488" data-name="Trazado 824488" d="M36,0A36,36,0,1,1,0,36,36,36,0,0,1,36,0Z" transform="translate(215 12197.44)" fill="#7dc8ff"/>
    <g id="Grupo_1101582" data-name="Grupo 1101582" transform="translate(231.748 12214.986)">
      <g id="Grupo_1101580" data-name="Grupo 1101580" clip-path="url(#clip-path)">
        <path id="Trazado_890968" data-name="Trazado 890968" d="M0,11.994V10.729c.053-.048.14-.088.154-.145A4.531,4.531,0,0,1,3.671,7.058c2.269-.628,4.518-1.327,6.78-1.981Q18.821,2.655,27.195.246a4.47,4.47,0,0,1,5.94,3.213c.392,1.3.761,2.614,1.135,3.923.284,1,.109,1.3-.9,1.595q-9.35,2.7-18.7,5.4c-2.021.585-4.039,1.185-6.058,1.778l.02.123H34.265c1.265,0,1.442.18,1.442,1.467q0,8.892,0,17.784a6.979,6.979,0,0,1-.084,1.258,4.568,4.568,0,0,1-3.541,3.667H21.492a1.04,1.04,0,0,1-.5-.785c.1-.668.543-.805,1.14-.8,2.9.013,5.794.008,8.691.005,2.183,0,3.288-1.113,3.29-3.315,0-3.162-.013-6.324.014-9.486.005-.592-.108-.8-.763-.8q-14.735.035-29.47,0c-.575,0-.751.115-.744.724.034,3.214.014,6.429.017,9.644a2.89,2.89,0,0,0,3.2,3.229c2.923,0,5.847.011,8.77-.007.61,0,1.021.177,1.161.8-.023.351-.286.551-.493.786H5.057c-2.675-.915-3.578-2.835-3.516-5.583.118-5.177-.035-10.359.063-15.536.05-2.609-.944-4.923-1.6-7.341M23.726,2.9c1.92,1.843,3.72,3.567,5.514,5.3a.543.543,0,0,0,.574.142c.8-.236,1.6-.491,2.4-.711.285-.078.4-.195.313-.49-.394-1.272-.714-2.574-1.195-3.812a2.607,2.607,0,0,0-3.25-1.638c-1.414.348-2.809.777-4.36,1.212M9.885,14.106C7.971,12.275,6.15,10.535,4.333,8.79c-.242-.233-.481-.122-.728-.037a2.83,2.83,0,0,0-1.823,3.482c.293,1.141.676,2.258.973,3.4.121.463.305.46.708.338,2.08-.627,4.17-1.216,6.422-1.865M6.614,17.88c-.973,0-1.947.017-2.919-.008-.406-.011-.549.105-.543.528.022,1.6.019,3.21,0,4.815,0,.373.1.5.484.493.894-.025,1.788-.023,2.682,0a.66.66,0,0,0,.672-.4q1.392-2.465,2.83-4.9c.231-.393.222-.541-.287-.528-.972.024-1.946.007-2.919.007M27.163,23.7c2.241,0,4.347-.006,6.453.006.355,0,.517-.071.512-.475q-.031-2.41,0-4.821c.005-.424-.15-.547-.553-.537-.868.022-1.738.014-2.606,0a.619.619,0,0,0-.64.333c-1.022,1.8-2.063,3.584-3.166,5.492M21.776,10.658c-1.909-1.829-3.725-3.567-5.537-5.31a.478.478,0,0,0-.5-.133c-1.266.373-2.53.75-3.885,1.153,1.881,1.807,3.7,3.55,5.509,5.3a.562.562,0,0,0,.644.087c1.2-.362,2.406-.7,3.77-1.1M17.8,4.632c1.889,1.819,3.7,3.562,5.513,5.314a.474.474,0,0,0,.5.132c1.267-.37,2.533-.748,3.895-1.151-1.881-1.813-3.7-3.557-5.5-5.311-.214-.208-.408-.145-.645-.075-1.2.358-2.408.7-3.759,1.091M5.91,8.085c1.9,1.833,3.706,3.564,5.5,5.3a.494.494,0,0,0,.561.126c1.239-.379,2.485-.735,3.72-1.1-.01-.074,0-.11-.018-.124Q13.018,9.7,10.363,7.113a.6.6,0,0,0-.644-.154c-1.229.361-2.457.726-3.808,1.126M20.97,23.7a10.362,10.362,0,0,1,1.839.016c1.944.379,3.087-.41,3.825-2.209a32.454,32.454,0,0,1,2.048-3.626c-1.448,0-2.752,0-4.055,0-.291,0-.4.182-.524.393-1.016,1.767-2.037,3.531-3.134,5.43m-4.661-5.82c-1.442,0-2.725,0-4.008,0a.53.53,0,0,0-.516.283C10.745,19.969,9.7,21.775,8.591,23.7c1.44,0,2.743,0,4.046,0a.514.514,0,0,0,.492-.309c1.029-1.793,2.064-3.582,3.179-5.514m6.19,0c-1.417,0-2.678,0-3.938,0-.216,0-.422,0-.548.223-1.057,1.832-2.116,3.663-3.233,5.6,1.44,0,2.748,0,4.055,0a.513.513,0,0,0,.489-.317c1.028-1.794,2.065-3.584,3.175-5.507" transform="translate(0 0)" fill="#07090c"/>
        <path id="Trazado_890969" data-name="Trazado 890969" d="M113.357,246.4h-.79c-.056-.288-.388-.454-.348-.785.07-.466.31-.785.8-.787s.716.35.828.786c-.022.352-.287.551-.494.786" transform="translate(-94.394 -205.943)" fill="#131314"/>
        <path id="Trazado_890970" data-name="Trazado 890970" d="M119.4,250.562c.207-.235.473-.434.495-.786h1.529a1.041,1.041,0,0,0,.5.785Z" transform="translate(-100.44 -210.107)" fill="#fbfafb"/>
        <path id="Trazado_890971" data-name="Trazado 890971" d="M101.525,249.775c-.04.331.292.5.348.785H99.5c.207-.235.469-.436.493-.786h1.53" transform="translate(-83.7 -210.105)" fill="#fbfafb"/>
        <path id="Trazado_890972" data-name="Trazado 890972" d="M34.482,173.525h-1.53c-.139-.626-.55-.808-1.161-.8-2.923.018-5.846.012-8.77.007a2.89,2.89,0,0,1-3.2-3.229c0-3.215.017-6.43-.017-9.644-.007-.608.169-.725.744-.724q14.735.028,29.47,0c.655,0,.768.207.763.8-.027,3.162-.01,6.324-.014,9.486,0,2.2-1.107,3.313-3.29,3.315-2.9,0-5.794.008-8.691-.005-.6,0-1.04.135-1.14.8H36.115c-.111-.436-.328-.789-.828-.786s-.735.322-.805.787m-2.273-7.664c0,1.183-.009,2.365,0,3.548.013,1.247.515,1.55,1.571.943q3.1-1.78,6.187-3.583c1.062-.619,1.061-1.2,0-1.823q-3.088-1.8-6.187-3.584c-1.049-.6-1.555-.292-1.568.951-.011,1.183,0,2.365,0,3.548" transform="translate(-16.657 -133.855)" fill="#c5cdd7"/>
        <path id="Trazado_890973" data-name="Trazado 890973" d="M149.39,11.3c1.551-.435,2.946-.864,4.36-1.213A2.607,2.607,0,0,1,157,11.722c.481,1.238.8,2.539,1.195,3.812.091.3-.027.412-.313.49-.806.22-1.6.475-2.4.711a.543.543,0,0,1-.574-.142c-1.794-1.73-3.594-3.454-5.514-5.3" transform="translate(-125.664 -8.397)" fill="#3795d3"/>
        <path id="Trazado_890974" data-name="Trazado 890974" d="M18.775,59.923c-2.251.65-4.342,1.238-6.422,1.865-.4.121-.587.125-.708-.338-.3-1.14-.68-2.257-.973-3.4A2.83,2.83,0,0,1,12.5,54.57c.247-.085.485-.2.728.037,1.817,1.745,3.639,3.485,5.552,5.316" transform="translate(-8.89 -45.818)" fill="#3896d4"/>
        <path id="Trazado_890975" data-name="Trazado 890975" d="M23.307,112.532c.973,0,1.946.017,2.919-.007.509-.013.518.135.287.528q-1.436,2.439-2.83,4.9a.66.66,0,0,1-.672.4c-.894-.022-1.789-.025-2.682,0-.385.011-.488-.12-.484-.493.018-1.605.02-3.21,0-4.815-.006-.423.137-.539.544-.528.972.025,1.946.008,2.919.008" transform="translate(-16.692 -94.652)" fill="#3795d3"/>
        <path id="Trazado_890976" data-name="Trazado 890976" d="M171.029,118.361c1.1-1.908,2.144-3.694,3.166-5.492a.619.619,0,0,1,.639-.333c.869.012,1.738.02,2.607,0,.4-.01.558.113.553.537q-.03,2.41,0,4.821c.005.4-.157.477-.512.475-2.106-.012-4.212-.006-6.453-.006" transform="translate(-143.866 -94.661)" fill="#3795d3"/>
        <path id="Trazado_890977" data-name="Trazado 890977" d="M84.558,38.156c-1.364.394-2.57.734-3.77,1.1a.562.562,0,0,1-.645-.087c-1.811-1.749-3.628-3.492-5.509-5.3,1.355-.4,2.619-.78,3.885-1.153a.479.479,0,0,1,.5.132c1.812,1.743,3.629,3.481,5.537,5.31" transform="translate(-62.782 -27.499)" fill="#3795d3"/>
        <path id="Trazado_890978" data-name="Trazado 890978" d="M112.07,23.029c1.351-.391,2.557-.734,3.759-1.091.237-.071.43-.133.645.075,1.807,1.754,3.623,3.5,5.5,5.311-1.362.4-2.628.781-3.895,1.151a.474.474,0,0,1-.5-.132c-1.808-1.751-3.623-3.495-5.513-5.314" transform="translate(-94.271 -18.398)" fill="#3796d4"/>
        <path id="Trazado_890979" data-name="Trazado 890979" d="M37.216,44.756c1.352-.4,2.579-.765,3.808-1.126a.6.6,0,0,1,.644.154q2.648,2.6,5.312,5.177c.015.014.008.05.018.124-1.236.362-2.482.718-3.72,1.1a.493.493,0,0,1-.561-.126c-1.8-1.736-3.6-3.466-5.5-5.3" transform="translate(-31.305 -36.672)" fill="#3796d4"/>
        <path id="Trazado_890980" data-name="Trazado 890980" d="M132.034,118.386c1.1-1.9,2.118-3.662,3.134-5.43.122-.212.232-.4.523-.393,1.3.008,2.607,0,4.055,0a32.458,32.458,0,0,0-2.048,3.626c-.739,1.8-1.881,2.588-3.825,2.209a10.362,10.362,0,0,0-1.839-.016" transform="translate(-111.064 -94.686)" fill="#3795d2"/>
        <path id="Trazado_890981" data-name="Trazado 890981" d="M61.809,112.566c-1.115,1.932-2.15,3.721-3.179,5.514a.514.514,0,0,1-.492.309c-1.3-.008-2.606,0-4.046,0,1.111-1.925,2.154-3.731,3.194-5.54a.531.531,0,0,1,.516-.283c1.283.006,2.566,0,4.007,0" transform="translate(-45.501 -94.686)" fill="#3795d2"/>
        <path id="Trazado_890982" data-name="Trazado 890982" d="M100.775,112.572c-1.11,1.923-2.147,3.712-3.175,5.507a.513.513,0,0,1-.489.317c-1.307-.008-2.615,0-4.055,0,1.118-1.934,2.176-3.766,3.233-5.6.127-.22.332-.224.548-.223,1.26,0,2.521,0,3.938,0" transform="translate(-78.276 -94.692)" fill="#3795d2"/>
        <path id="Trazado_890983" data-name="Trazado 890983" d="M97.908,176.127c0-1.183-.009-2.366,0-3.548.012-1.242.519-1.552,1.568-.951q3.1,1.78,6.187,3.584c1.065.621,1.065,1.2,0,1.823q-3.088,1.8-6.187,3.583c-1.056.607-1.559.3-1.571-.943-.012-1.183,0-2.365,0-3.548m1.635,2.6,4.507-2.6c-1.382-.8-2.7-1.552-4-2.32-.338-.2-.511-.211-.507.262.012,1.493,0,2.987,0,4.657" transform="translate(-82.356 -144.12)" fill="#130e0f"/>
        <path id="Trazado_890984" data-name="Trazado 890984" d="M108.2,191.149c0-1.67.008-3.164,0-4.657,0-.473.169-.46.507-.262,1.308.767,2.623,1.521,4,2.32l-4.507,2.6" transform="translate(-91.008 -156.544)" fill="#e14354"/>
      </g>
    </g>
  </g>
</svg>
