<svg xmlns="http://www.w3.org/2000/svg" xmlns:xlink="http://www.w3.org/1999/xlink" width="91" height="91" viewBox="0 0 91 91">
  <defs>
    <clipPath id="clip-path">
      <rect id="Rectángulo_401760" data-name="Rectángulo 401760" width="91" height="91" transform="translate(625.73 4146)" fill="#fff" stroke="#707070" stroke-width="1"/>
    </clipPath>
  </defs>
  <g id="Enmascarar_grupo_1098721" data-name="Enmascarar grupo 1098721" transform="translate(-625.73 -4146)" clip-path="url(#clip-path)">
    <g id="charla" transform="translate(625.73 4146)">
      <path id="Trazado_891118" data-name="Trazado 891118" d="M61.75,26A29.209,29.209,0,0,1,85.134,72.768L91,84.5,79.268,78.634A29.236,29.236,0,1,1,61.75,26Z" fill="#597bf9"/>
      <g id="Grupo_1101652" data-name="Grupo 1101652">
        <circle id="Elipse_11525" data-name="Elipse 11525" cx="3.25" cy="3.25" r="3.25" transform="translate(71.5 52)" fill="#ffe67d"/>
        <circle id="Elipse_11526" data-name="Elipse 11526" cx="3.25" cy="3.25" r="3.25" transform="translate(58.5 52)" fill="#ffe67d"/>
        <path id="Trazado_891119" data-name="Trazado 891119" d="M29.25,6.5A29.209,29.209,0,0,0,5.866,53.267L0,65l11.733-5.866A29.236,29.236,0,1,0,29.25,6.5Z" fill="#ffe67d"/>
      </g>
      <g id="Grupo_1101653" data-name="Grupo 1101653">
        <circle id="Elipse_11527" data-name="Elipse 11527" cx="3.25" cy="3.25" r="3.25" transform="translate(13 32.5)" fill="#597bf9"/>
        <circle id="Elipse_11528" data-name="Elipse 11528" cx="3.25" cy="3.25" r="3.25" transform="translate(26 32.5)" fill="#597bf9"/>
        <circle id="Elipse_11529" data-name="Elipse 11529" cx="3.25" cy="3.25" r="3.25" transform="translate(39 32.5)" fill="#597bf9"/>
      </g>
    </g>
  </g>
</svg>
