<svg xmlns="http://www.w3.org/2000/svg" xmlns:xlink="http://www.w3.org/1999/xlink" width="1327" height="594" viewBox="0 0 1327 594">
  <defs>
    <linearGradient id="linear-gradient" x1="-0.011" x2="1" y2="0.967" gradientUnits="objectBoundingBox">
      <stop offset="0" stop-color="#7dc8ff"/>
      <stop offset="0.164" stop-color="#fed7ba"/>
      <stop offset="0.487" stop-color="#ff84ed"/>
      <stop offset="1" stop-color="#41287e"/>
    </linearGradient>
    <linearGradient id="linear-gradient-2" x1="-0.154" y1="-0.308" x2="0.5" y2="1" gradientUnits="objectBoundingBox">
      <stop offset="0" stop-color="#ff84ed"/>
      <stop offset="1" stop-color="#824ffb"/>
    </linearGradient>
    <clipPath id="clip-path">
      <rect id="Rectángulo_402697" data-name="Rectángulo 402697" width="1327" height="594" transform="translate(136.781 1044)" fill="url(#linear-gradient)"/>
    </clipPath>
    <clipPath id="clip-path-2">
      <rect id="Rectángulo_402694" data-name="Rectángulo 402694" width="413.331" height="302.322" fill="#824ffb"/>
    </clipPath>
    <linearGradient id="linear-gradient-3" x1="0.152" y1="0.058" x2="0.892" y2="0.936" gradientUnits="objectBoundingBox">
      <stop offset="0" stop-color="#7dc8ff"/>
      <stop offset="1" stop-color="#824ffb"/>
    </linearGradient>
    <clipPath id="clip-path-3">
      <rect id="Rectángulo_402695" data-name="Rectángulo 402695" width="413.331" height="302.322" fill="#ff84ed"/>
    </clipPath>
  </defs>
  <g id="Grupo_1103497" data-name="Grupo 1103497" transform="translate(-136.051 -7992)">
    <g id="Grupo_1103496" data-name="Grupo 1103496">
      <rect id="Rectángulo_402693" data-name="Rectángulo 402693" width="1327" height="594" transform="translate(136.051 7992)" fill="url(#linear-gradient-2)"/>
    </g>
    <g id="Enmascarar_grupo_1098735" data-name="Enmascarar grupo 1098735" transform="translate(-0.73 6948)" clip-path="url(#clip-path)">
      <g id="Grupo_1103265" data-name="Grupo 1103265">
        <g id="Grupo_1103257" data-name="Grupo 1103257" transform="translate(588.783 1448.345)" opacity="0.71">
          <path id="Trazado_895527" data-name="Trazado 895527" d="M50.007,168.286l5.5-3.718L50.161,104.09l7.016-4.251,39.221,45.8,6.726-2.1.65,2.025L83.6,154.96l-.644-2,6.421-4.249L77.945,134.869l-20.762,9.668,1.833,18.313,8.063-2.524.65,2.024L50.655,170.3Zm3.364-60.279,3.419,33.38,19.128-8.9-20.7-25.337Z" transform="translate(52.879 105.573)" fill="#824ffb"/>
          <g id="Grupo_1103256" data-name="Grupo 1103256">
            <g id="Grupo_1103255" data-name="Grupo 1103255" clip-path="url(#clip-path-2)">
              <path id="Trazado_895528" data-name="Trazado 895528" d="M32.652,143.94l.107-33.182-4.528-.9.218-2.506,8.036-.263.817.523-.053,16.542-.963,11.773.4.088,1.619-6.95c1.572-6.9,3.72-9.966,8.312-10.116,5.189-.171,7.623,3.9,7.839,10.485.342,10.382-4.611,16.241-11.849,16.48a23.842,23.842,0,0,1-9.958-1.971m6.627-8.164-1.5,6a10.376,10.376,0,0,0,4.679.946c4.64-.154,7.156-5.732,6.923-12.771-.093-2.843-.29-7.335-3.436-7.232-3.642.119-4.45,4.444-6.664,13.061" transform="translate(29.853 113.238)" fill="#824ffb"/>
              <path id="Trazado_895529" data-name="Trazado 895529" d="M58.523,66.16a3.956,3.956,0,0,1-.444,5.872,4.535,4.535,0,0,1-4.969.457l.025-2.074c.144-3.734-2.73-3.432-5.137-1.457-4.522,3.705-3.74,9.968,2.383,17.439,3.829,4.668,8.662,6.952,12.641,3.689,3.094-2.537,3.337-6.351,3.621-9.215l3.347.377c.111,2.539-.031,8.985-5.043,13.094-6.388,5.238-13.818,3.193-19.459-3.685-6.929-8.454-7.386-18.433.183-24.64,4.323-3.545,9.549-3.887,12.853.144" transform="translate(42.446 66.88)" fill="#824ffb"/>
              <path id="Trazado_895530" data-name="Trazado 895530" d="M87.1,94.738a46.132,46.132,0,0,1-13.931-1.9L57.794,88.51l.442-1.113,7.016.833L79.876,43.8l-6.063-3.059.527-1.259,19.338,5.442c7.135,2.008,12.6,5.395,15.805,9.8,3.654,5.016,4.446,11.33,2.352,18.766C107.985,87.175,99.663,94.326,87.1,94.738m-17.11-4.732,3.158.889a36.912,36.912,0,0,0,11.083,1.535c10.859-.358,18.2-7.036,21.8-19.852,5.082-18.062-6.744-24.3-14.246-26.411l-6.942-1.955Z" transform="translate(61.114 41.747)" fill="#824ffb"/>
              <path id="Trazado_895531" data-name="Trazado 895531" d="M165.027,98.135c5.432,5.736,2.146,12.606-1.354,18l-4.14,6.491c3.621,3.2,9.151,5.38,13.375,1.381,3.078-2.913,3.389-6.969,3.568-9.709l3.849.411a17.558,17.558,0,0,1-5.164,14.186c-6.777,6.421-15.466,4.559-22.233-2.586-8.542-9.022-9.812-20.183-1.992-27.59,5.372-5.088,10.287-4.6,14.089-.582m-11.643,4.1c-3.965,3.755-2.767,10.137,3.187,17.258l3.506-5.594c2.759-4.395,3.15-7.434-.062-10.824-1.924-2.033-4.442-2.913-6.631-.839" transform="translate(154.108 100.469)" fill="#824ffb"/>
              <path id="Trazado_895532" data-name="Trazado 895532" d="M134.406,81.021,131.289,87.9l10.279,4-2.1,4.491L129.5,92.514l-10.433,23.87c-3.823,8.695-9.816,17.153-15.869,20.626-2.724,1.636-5.5,2.037-7.911,1.095-3.024-1.179-4.4-3.454-3.64-5.855a9.158,9.158,0,0,1,3.924-4.477l2.718,2.625c2.2,2.162,4.642,2.156,6.569-1.444,1.271-2.376,2.232-4.615,3.59-7.654l13.645-31.672-6.423-2.5,2.121-3.876L124.064,85l1.671-3.615c4.3-9.462,12.234-14.641,21.906-10.872,4.759,1.854,9.952,6.4,7.508,12.67a4.578,4.578,0,0,1-6.376,2.743,5.8,5.8,0,0,1-3.465-3.615l1.58-1.821c2.609-2.9,2.152-5.08-1.173-6.376-4.911-1.913-8.857,1.51-11.308,6.907" transform="translate(96.689 73.254)" fill="#824ffb"/>
              <path id="Trazado_895533" data-name="Trazado 895533" d="M117.358,56.668l-.7,5.415c-1.251,9.077-3.2,13.308-9.318,14.106-6.876.9-10.526-4.977-11.505-12.48-1.537-11.793,3.257-20.755,12.211-21.922a22.666,22.666,0,0,1,8.205.467l2.7-1.955,2.1.368L123.6,68.1c.938,10.137-2.109,20.22-14.6,21.848-4.6.6-9.987-.364-10.588-4.967-.37-2.839,1.222-4.907,3.617-5.22a5.1,5.1,0,0,1,3.942,1.218l-.337,1.841c-.646,2.905.535,4.1,3.94,3.654,6.559-.856,9.172-7.353,8.767-17.369l-.533-12.435ZM114.6,54.205l1.086-7.9a15.391,15.391,0,0,0-6.3-.588c-5.927.774-8.318,8.012-7.152,16.966.444,3.405,1.352,9.38,5.641,8.82,4.413-.576,5.119-5.991,6.722-17.295" transform="translate(101.035 42.614)" fill="#824ffb"/>
              <path id="Trazado_895534" data-name="Trazado 895534" d="M133.375,64.369l-3.5,20.229,7.182,1.985-.971,3.712-21.336-2.866.971-3.712,6.362-.086,7.709-43.972-6.372-2.189.959-3.635,20.795,2.794-.967,3.712-6.713.352-3.206,18.624,23.105,3.1,3.284-18.612-6.37-2.189.957-3.635,20.72,2.784-.967,3.712-6.713.352-7.623,43.906,7.182,1.983-.967,3.714-21.336-2.866.967-3.712,6.376-.165,3.578-20.218Z" transform="translate(121.342 35.778)" fill="#824ffb"/>
              <path id="Trazado_895535" data-name="Trazado 895535" d="M65.561,95.811a11.5,11.5,0,0,0-3.837,1.144l-1.117-3.012a15.955,15.955,0,0,1,7.543-2.471c3.551-.117,5.339,2.047,5.183,7.006l-.8,20.035c-.066,1.846.154,2.726,1.549,2.681,1.333-.043,2.508-1.037,3.681-2.027l1.611,2.551a11.88,11.88,0,0,1-7.754,3.749c-4.185.138-5.343-2.238-5.335-5.794l.951-21.313c.01-1.65-.212-2.6-1.671-2.549m3.5-19.169a4.079,4.079,0,0,1,4.391,4.175,4.284,4.284,0,1,1-4.391-4.175" transform="translate(64.088 81.04)" fill="#824ffb"/>
              <path id="Trazado_895536" data-name="Trazado 895536" d="M92.252,181.516c-1.739,2.251-3.884,3.759-6.454,3.843-3.249.107-4.967-1.5-5.2-3.837a8.124,8.124,0,0,1,1.728-5.051l3.294,1.253c2.6.973,4.769.146,5.1-3.648.218-2.5.218-4.849.267-7.952l.235-29.666c.006-2.043-.329-3.09-1.99-3.037a14.206,14.206,0,0,0-4.648,1.364L83.259,131.2a19.27,19.27,0,0,1,8.981-2.942c4.232-.14,6.368,2.59,6.183,8.5l-.121,21.64c-.027,8.324-2.348,18.311-6.049,23.124m.619-70.91a4.864,4.864,0,0,1,5.234,4.971,5.105,5.105,0,1,1-10.2.414,4.983,4.983,0,0,1,4.967-5.384" transform="translate(85.214 116.956)" fill="#824ffb"/>
              <path id="Trazado_895537" data-name="Trazado 895537" d="M107.771,104.621l1.1-2.917,9.684,2.395.8.9-8.03,27.055a25.032,25.032,0,0,0,10.349-1.588c2.806-1.031,3.705-2.594,2.259-3.975l-1.43-1.438a4.787,4.787,0,0,1,5.658-3,4.16,4.16,0,0,1,3.016,5.341c-.788,3.187-3.144,4.712-8.008,6.316a39.457,39.457,0,0,1-4.565,1.169l3.531,12.042c.85,2.765,1.483,4.07,3.045,4.456a6.157,6.157,0,0,0,3.459-.294l.8,2.687a10.8,10.8,0,0,1-7.466,1.027c-3.308-.819-4.335-3.115-5.321-6.36l-3.533-12.808-2.825.066-4.232,14.272-5.413-1.339,12.219-41.4Z" transform="translate(106.433 107.546)" fill="#824ffb"/>
              <path id="Trazado_895538" data-name="Trazado 895538" d="M161.848,114.338l4.753-2.992L152.32,73.535l-5.681,1.183-.448-1.566,16.322-6.958.43,1.51-6.074,3.852,14.336,37.968,9.841-4.2c4.08-1.739,5.23-3.9,4.732-8.888l-.294-2.94,2.111-.9,3.094,11.139L162.28,115.846Z" transform="translate(154.588 69.996)" fill="#824ffb"/>
              <path id="Trazado_895539" data-name="Trazado 895539" d="M49.817,131.9l-7.763,3.777L13.476,91.735,23.3,135.054l7.244-1,.679,3.948L12.5,143.648,11.82,139.7l6.045-3.008L7.584,91.3l-6.927.646L0,88.081l17.33-5.222,27.333,42.624.955-51.144,17.1-5.15.7,4.026-5.631,2.967,14.966,44.06,7.532-1.167.681,3.95-21.214,6.39-.681-3.95,6.069-2.93L50.753,79.571Z" transform="translate(0 73.163)" fill="#824ffb"/>
              <path id="Trazado_895540" data-name="Trazado 895540" d="M179.635,71.7c-3.537.117-4.685-1.846-4.553-4.761l.9-16.243c.165-3.66-.389-4.841-2.158-4.781-2.224.074-2.909,1.806-4.349,6.6L163.7,71.423l-5.532.181.134-23.755c0-1.543-.416-2.214-1.557-2.175a10.3,10.3,0,0,0-3.218,1.074l-1.066-2.874a16.546,16.546,0,0,1,6.666-2.162c3.308-.109,4.629,1.848,4.413,5.679l-.928,15.217.4.1,3.644-12.454c1.743-6.053,3.932-8.921,8.38-9.065,5.076-.169,6.722,3.031,6.415,9.265l-.763,14.982c-.115,1.72.136,2.452,1.393,2.413a5.82,5.82,0,0,0,2.981-1.358l1.387,2.241a12.4,12.4,0,0,1-6.812,2.963" transform="translate(161.213 43.55)" fill="#824ffb"/>
              <path id="Trazado_895541" data-name="Trazado 895541" d="M97.2,77.393c8.164,2.4,10.82,9.658,8.207,18.535-2.664,9.055-9.1,15.966-19.348,12.949-8.043-2.366-10.736-9.5-8.088-18.5,2.629-8.938,8.863-16.038,19.229-12.987m1.969,16.634c1.911-6.5,1.671-11.614-3.454-13.122-6.137-1.806-9.47,4.463-11.54,11.493-1.928,6.553-1.335,11.583,3.37,12.97,6.078,1.788,9.5-4.131,11.625-11.341" transform="translate(81.414 81.077)" fill="#824ffb"/>
              <path id="Trazado_895542" data-name="Trazado 895542" d="M33.8,82.229l-.638-.457L33.12,62.5l-.8-25.687a3.912,3.912,0,0,0-.948-2.839,2.5,2.5,0,0,0-1.92-.576c-.1.008-.208.021-.323.037a12.492,12.492,0,0,0-3.294,1.132l-.753-1.961a18.1,18.1,0,0,1,6.364-2.378c.337-.051.677-.091,1.023-.113a4.214,4.214,0,0,1,3.364.942c.932.914,1.348,2.524,1.239,4.792,0,0-.7,14.394-.728,17.3s1.734,2.773,2.259.128,2.033-10.269,2.033-10.269c1.823-9.6,4.308-13.268,9.5-14.046.337-.049.687-.088,1.049-.111A8.354,8.354,0,0,1,58.8,32.042c1.811,2.343,2.893,5.9,3.21,10.577.862,12.746-4.475,21.864-13.6,23.228-.416.062-.835.109-1.263.138a18.81,18.81,0,0,1-8.036-1.234l-1.263-.527.078,14.82,6.693.405-.064,1.92Zm15.84-49.671c-4.975.745-6.193,6.425-8.407,16.737l-.7,3.243-2.123,9.248.739.28a16.4,16.4,0,0,0,7.162,1.183c.253-.019.5-.045.745-.08,6.508-.973,10.219-8.865,9.456-20.1-.259-3.825-.745-10.946-6.31-10.567-.193.012-.381.033-.562.06" transform="translate(26.517 30.476)" fill="#824ffb"/>
              <path id="Trazado_895543" data-name="Trazado 895543" d="M216.948,144.29a9.509,9.509,0,0,1-2.946-.379c-4.121-1.181-7.913-4.516-12.682-11.153l-.245-.358c-5.4-7.849-7.633-11.1-13.641-12.822a19.9,19.9,0,0,0-6.384-.755,56.623,56.623,0,0,0-6.106.64l-.646-3.942a41.9,41.9,0,0,1,5.29-.531,28.238,28.238,0,0,1,3.208.06s-.025-.08.92.066,2-1.595.667-2.321c-.356-.2-.763-.446-.763-.446-11.859-6.9-16.385-19.955-12.1-34.906C176.538,59.916,187.232,50,201.626,49.528a37.018,37.018,0,0,1,11.419,1.492C221.1,53.33,227.161,58,230.57,64.539c3.592,6.894,4.041,15.6,1.294,25.191-4.895,17.079-15.188,26.362-29.765,26.841a41.356,41.356,0,0,1-8.427-.63s-.56-.1-1-.173c-2.29-.368-2.706,1.8-.776,2.706.6.282.889.405.889.405a29.881,29.881,0,0,1,12.258,10c4.234,5.483,6.483,7.4,8.6,7.333a3.751,3.751,0,0,0,3.014-2.074l1.364-2.243a8.838,8.838,0,0,1,4.619,3.138,5.257,5.257,0,0,1,.595,4.5,6.357,6.357,0,0,1-6.283,4.753M203.422,53.913c-7.378.245-17.379,4.738-23.119,24.769-5.2,18.151-.761,30.24,12.5,34.04a20.221,20.221,0,0,0,6.255.8c10.67-.35,19.309-9.353,23.708-24.7,5.049-17.624.449-30.327-12.312-33.985a22.92,22.92,0,0,0-7.034-.928" transform="translate(179.691 52.354)" fill="#824ffb"/>
              <path id="Trazado_895544" data-name="Trazado 895544" d="M52.478,26.717A13.182,13.182,0,0,0,48.4,28.887L46.32,25.262a23.009,23.009,0,0,1,8.7-4.446c4.339-.874,6.357,1.652,6.925,6.847l1.023,10.972.473-.016,2.119-10.335C66.831,22,68.042,18.193,72.919,17.209c4.189-.844,6.633,1.438,7.185,4.181a6.126,6.126,0,0,1-2.994,6.39l-1.926-1.675c-1.066-.973-1.8-1.461-2.94-1.23-1.753.354-2.148,1.94-3.736,8.6-2.654,11.633-3.24,15-2.64,20.35l.525,6.156-6.4,1.29L55.058,29.289c-.325-2-.979-2.895-2.58-2.572" transform="translate(48.98 18.01)" fill="#824ffb"/>
              <path id="Trazado_895545" data-name="Trazado 895545" d="M127.527,61.116c-9.189,4.907-17.305,3.533-20.208-1.9-1.883-3.522-.924-6.89,2.064-8.485a8.3,8.3,0,0,1,6.549-.642l.082,3.1c.056,3.613,2.765,6.1,9.427,2.545,5.9-3.15,9.662-9,6.061-15.737-6.133-11.487-29.46,3.43-38.172-12.88-3.393-6.357-3.808-17.453,9.363-24.488,7.886-4.21,16.373-3.43,19.686,2.773a5.427,5.427,0,0,1-2.2,7.672,8.766,8.766,0,0,1-6.076.784l-.138-3.763c-.1-3.687-3.368-5.386-9.036-2.36-6.971,3.722-8.47,8.656-5.892,13.48,6.46,12.1,29.864-3.057,38.657,13.408,5.028,9.419,1.014,20.519-10.166,26.49" transform="translate(96.562 0)" fill="#824ffb"/>
              <path id="Trazado_895546" data-name="Trazado 895546" d="M138.564,144.219c-3.01.1-5.292-.59-6.781-2.047-1.588-1.553-2.374-4.057-2.335-7.446l.284-24.438-5.806.191.232-2.076,5.518-.765,2.7-12.079,2.815-.093L134.92,107.7l11.09-.364-.078,2.424-11.042.362-.377,23.825c-.012,2.745.539,4.557,1.732,5.716A5.438,5.438,0,0,0,140.382,141c2.911-.1,5.193-1.747,7.067-3.551l1.206,1.3a13.392,13.392,0,0,1-10.092,5.471" transform="translate(131.043 100.949)" fill="#824ffb"/>
              <path id="Trazado_895547" data-name="Trazado 895547" d="M81.124,13.464c3.154.8,3.728,2.872,2.788,5.5l-5,14.254c-1.084,3.193-1.127,4.448.527,4.868,1.811.459,2.928-.907,5.543-4.923L94.9,17.733l5.016,1.274-6.29,21.3c-.407,1.383-.253,2.082.833,2.358a10.1,10.1,0,0,0,3.173-.132l.274,2.823a14.908,14.908,0,0,1-6.561.261c-3.051-.776-3.73-2.874-2.541-6.259l4.81-13.532-.4-.156L86.889,36.065c-2.979,4.8-5.679,6.979-9.816,5.93-4.549-1.156-5.016-4.522-3.133-9.989L78.5,18.8c.523-1.407.51-2.236-.625-2.524a5.26,5.26,0,0,0-3.029.442l-.6-2.409a11.79,11.79,0,0,1,6.874-.841" transform="translate(77.087 14.015)" fill="#824ffb"/>
              <path id="Trazado_895548" data-name="Trazado 895548" d="M178.265,15.467c4.257,9.522,7.724,29.372-4.843,34.989-4.125,1.846-9.586,2.915-13.258-6.485L153.3,26.4c-.846-2.057-2.115-2.177-3.5-1.02l-2.331,2.109-2.5-2.693a19.86,19.86,0,0,1,6.681-5.5c3.87-1.73,6.2-.1,7.483,3.282l6.843,18.033c1.535,4.113,3.057,6.327,6.485,4.794,7.172-3.208,5.378-16.418,2.631-23.416-1.2-3.2-2.175-3.673-4.109-3.57l-2.654.2c-1.835-2.913-1.385-6.16,1.662-7.522,3.681-1.646,6.574.564,8.277,4.372" transform="translate(153.291 11.15)" fill="#824ffb"/>
              <path id="Trazado_895549" data-name="Trazado 895549" d="M146.864,37.256a5.243,5.243,0,0,1-5.7-4.779l-.451-2.778-1.255,2.518c-1.848,3.714-4.374,5.425-8.2,5.553a6.2,6.2,0,0,1-4.747-1.541c-1.352-1.329-2.014-3.543-1.969-6.582l.232-15.513A3.022,3.022,0,0,0,124,11.867a2.192,2.192,0,0,0-1.662-.59,4.075,4.075,0,0,0-1.216.245l-1.479.523-.471-1.247a15.419,15.419,0,0,1,5.674-1.615,3.727,3.727,0,0,1,2.827.831,4.033,4.033,0,0,1,.9,3.047l-.4,15.573c-.074,2.915.374,4.693,1.455,5.765a3.874,3.874,0,0,0,2.985,1.035c5.465-.179,8.263-6.829,7.872-18.723a62.243,62.243,0,0,0-.642-6.767l3.491-.535a36.722,36.722,0,0,1,.654,6.1,91.463,91.463,0,0,1-.564,12.1c-.235,2.37-.276,4.755,1.018,6.139a4.151,4.151,0,0,0,3.313,1.13c6.892-.226,9.372-12.217,9.446-17.651.021-3.059-.648-4.265-2.751-4.963l-1.514-.494A3.92,3.92,0,0,1,153.629,9,2.574,2.574,0,0,1,155.6,8.17c1.737-.056,4.065.44,4.228,5.4.309,9.372-3.6,23.381-12.964,23.689" transform="translate(126.02 8.635)" fill="#824ffb"/>
              <path id="Trazado_895550" data-name="Trazado 895550" d="M188.729,36.819c1.424-2.45,1.687-3.932.078-4.409l-1.671-.506a3.562,3.562,0,0,1,2.413-3.767,3.025,3.025,0,0,1,3.981,1.975c.889,2.58-.473,4.907-2.944,8.954l-1.714,2.808,5.936,6.15c1.527,1.588,2.193,1.874,3.253,1.508a4.871,4.871,0,0,0,2.2-1.687l1.681,1.43a8.057,8.057,0,0,1-4.325,3.761c-2.489.858-4.189.411-6.121-1.6l-5.59-5.751-2.7,4.279c-1.5,2.372-1.193,3.866.841,3.936l1.251.035a3.483,3.483,0,0,1-2.2,4.107,3.127,3.127,0,0,1-4.228-2.1c-.841-2.444-.107-4.345,2.5-8.287l2.594-3.989-5.825-5.983c-1.372-1.434-2.109-1.333-2.8-1.095a7.778,7.778,0,0,0-2.294,1.718l-1.673-2.156a12.329,12.329,0,0,1,4.714-3.376c2.257-.778,3.835-.241,5.456,1.469l5.4,5.664Z" transform="translate(181.227 29.544)" fill="#824ffb"/>
              <path id="Trazado_895551" data-name="Trazado 895551" d="M25.225,70.531,24.353,56.4,21.01,57.685l-.833-1.743,8.252-5.325.887,1.9-2.362,2.352.765,17.5,4.123,6.989,3.506-1.632.876,1.813-9.483,6.119-.879-1.811,2.52-2.257-4-7.022L9.252,66.145l-2.9,1.144-.864-1.868,9.108-5.878.9,1.846L12.94,63.666,25.09,70.62Z" transform="translate(5.802 53.525)" fill="#824ffb"/>
              <path id="Trazado_895552" data-name="Trazado 895552" d="M151.533,73.545l.87,2.463-17.856,24.161a16.763,16.763,0,0,1,3.87-.553c2.609-.086,4.821.632,6.822.566,2.245-.074,2.5-1.479,4.327-6.948l3.1-.1-1.391,11.347c-5.479,1.518-11.365-.173-16.04-.019a10.136,10.136,0,0,0-4.761,1.13l-2.222-2.905,17.727-24.337-9.343.307c-3.22.107-3.738.913-4.845,6.053l-3.15.286.52-10.042.646-.689Z" transform="translate(135.617 77.769)" fill="#824ffb"/>
            </g>
          </g>
        </g>
        <g id="Grupo_1103258" data-name="Grupo 1103258" transform="translate(183.031 1649.677) rotate(-49)" opacity="0.32">
          <path id="Trazado_895553" data-name="Trazado 895553" d="M1011.915,829.729c18.224-51.352,32.5-92.424,11.164-159.855-17.045-53.878,29.267-98.249,47.183-148.405,15.947-44.633,21.2-98.31,17.308-146.944-5.313-66.4-30.858-132.914-75.1-180.447-68.942-74.064-173.232-92.729-264.633-75.608-38.283,7.171-76.249,19.874-115.451,15.875C575.21,128.516,524.85,88.535,472.8,59.232c-70.861-39.891-152.084-61.362-227.414-44-85.41,19.684-155.442,94.024-163.8,192.661C77.8,252.582,116.273,331.32,104.132,373.681,91.814,416.64,1.9,548.23,4.116,648.32,6.326,748.037,27.034,779.048,56.3,829.729" transform="translate(523.001 272.343)" fill="url(#linear-gradient-3)"/>
          <path id="Trazado_895554" data-name="Trazado 895554" d="M718.372,596.477c11.8-33.254,21.044-59.847,7.229-103.514-11.037-34.888,18.952-63.623,30.556-96.1,10.326-28.9,13.726-63.663,11.208-95.155-3.439-43-19.983-86.067-48.637-116.845C674.082,136.9,606.546,124.815,547.356,135.9c-24.792,4.645-49.379,12.871-74.762,10.28-37.025-3.776-69.639-29.662-103.349-48.638-45.887-25.832-98.487-39.733-147.269-28.5C166.665,81.795,121.313,129.934,115.9,193.8c-2.451,28.944,22.464,79.929,14.6,107.358C122.528,328.983,64.3,414.193,65.736,479c1.428,64.571,14.841,84.656,33.79,117.473" transform="translate(658.973 441.683)" fill="#4e3097"/>
          <path id="Trazado_895555" data-name="Trazado 895555" d="M778.21,638.2a1.142,1.142,0,0,1-.661-.215,2.064,2.064,0,0,1-.571-2.426,205.76,205.76,0,0,0,12.92-45.038c5.058-30.121,1.258-57-2.767-85.45-1.9-13.474-3.876-27.4-4.868-41.844-2.084-30.426,3.708-56.85,9.836-84.825,2.319-10.588,4.716-21.535,6.649-32.705,5.761-33.308,4.45-73.3-3.593-109.72C784.265,186.658,759.112,143.8,726.143,118.4c-48.64-37.479-118.083-40.473-185.754-8-6.226,2.986-12.516,6.278-18.6,9.461-18.563,9.709-37.756,19.755-58.2,22.838-30.393,4.576-60.428-6.457-89.485-17.132-8.805-3.234-17.91-6.576-26.845-9.415-57.336-18.212-113.311-15.283-157.612,8.262-58.157,30.9-94.283,98.558-89.894,168.347.779,12.376,2.8,24.938,4.742,37.088,3.291,20.509,6.694,41.714,4.282,62.78-2.42,21.087-9.9,40.25-17.129,58.778-4.414,11.317-8.982,23.018-12.323,34.992-11.144,39.941-13.978,103.64,6.131,149.127a2.082,2.082,0,0,1-.527,2.444,1.249,1.249,0,0,1-1.91-.678c-20.543-46.463-17.684-111.414-6.33-152.1,3.4-12.178,8-23.98,12.455-35.39C96.276,431.521,103.65,412.62,106,392.1c2.341-20.437-1.008-41.33-4.251-61.538-1.966-12.254-4-24.924-4.792-37.522C92.472,221.7,129.29,152.592,188.573,121.093c44.85-23.836,101.447-26.826,159.357-8.431,8.987,2.853,18.115,6.209,26.943,9.451,28.794,10.578,58.551,21.514,88.387,17.017,20.07-3.026,39.084-12.975,57.47-22.6,6.1-3.191,12.413-6.493,18.672-9.5,68.469-32.853,138.817-29.748,188.185,8.284,33.572,25.871,59.182,69.492,70.264,119.68,8.164,36.973,9.486,77.6,3.633,111.472-1.949,11.267-4.358,22.264-6.688,32.9-6.058,27.652-11.782,53.771-9.743,83.544.98,14.274,2.938,28.122,4.834,41.513,4.075,28.815,7.926,56.028,2.747,86.849a209.885,209.885,0,0,1-13.191,45.975,1.39,1.39,0,0,1-1.232.948" transform="translate(662.837 491.663)" fill="#f3eeff"/>
          <path id="Trazado_895556" data-name="Trazado 895556" d="M588.844,520.665a1.164,1.164,0,0,1-.588-.165,2.04,2.04,0,0,1-.683-2.383c8.6-23.858,15.4-42.7,5.333-74.014-5.9-18.338,3.193-34.424,11.984-49.981,3.943-6.981,8.024-14.2,10.676-21.51,7.133-19.644,10.113-44.579,8.178-68.415-2.624-32.271-15.572-62.877-35.527-83.971-29.5-31.187-76.549-44.385-125.855-35.3-4.537.836-9.153,1.852-13.611,2.832-13.651,3-27.769,6.105-42.083,4.673-21.263-2.132-40.75-13.937-59.593-25.351-5.7-3.449-11.587-7.017-17.409-10.244-37.339-20.685-75.8-28.014-108.292-20.649-42.54,9.644-73.656,45.558-77.428,89.365-.781,9.07,2.369,21.328,5.7,34.3,4.139,16.109,8.419,32.759,5.033,44.381-1.818,6.242-6.842,15.918-13.205,28.165-14.1,27.16-35.418,68.2-34.684,100.786.994,44.3,9.674,59.022,22.809,81.3l1.941,3.295a2.148,2.148,0,0,1-.277,2.512,1.2,1.2,0,0,1-1.96-.352l-1.935-3.291c-12.978-22.013-22.355-37.921-23.377-83.361-.759-33.728,20-73.7,35.154-102.883,6.013-11.579,11.206-21.579,12.911-27.433,3.042-10.441-1.081-26.485-5.069-42-3.431-13.359-6.674-25.975-5.825-35.821,3.91-45.408,35.947-82.582,79.725-92.506,33.029-7.484,72.056-.065,109.888,20.889,5.867,3.248,11.78,6.83,17.5,10.294,18.613,11.277,37.863,22.935,58.613,25.017,13.978,1.414,27.912-1.662,41.392-4.63,4.478-.987,9.113-2.006,13.684-2.85,50.071-9.235,97.935,4.26,128.04,36.079,20.515,21.69,33.83,53.171,36.527,86.368,1.989,24.464-1.084,50.088-8.424,70.3-2.764,7.62-6.923,14.982-10.948,22.1-8.721,15.437-16.964,30.017-11.662,46.506,10.536,32.763,3.162,53.211-5.377,76.889a1.421,1.421,0,0,1-1.271,1.041" transform="translate(727.869 609.197)" fill="#f3eeff"/>
          <path id="Trazado_895557" data-name="Trazado 895557" d="M12.505,147.467a28.09,28.09,0,0,1-7.37-39.539A29.305,29.305,0,0,1,45.422,100.7a28.083,28.083,0,0,1,7.37,39.536,29.309,29.309,0,0,1-40.287,7.232" transform="translate(527.078 520.759)" fill="#824ffb"/>
          <path id="Trazado_895558" data-name="Trazado 895558" d="M231.544,48.915a26.867,26.867,0,1,1,37.478-6.83,26.766,26.766,0,0,1-37.478,6.83" transform="translate(977.285 324.383)" fill="#4e3097"/>
          <path id="Trazado_895559" data-name="Trazado 895559" d="M388.375,203.26a13.925,13.925,0,0,1-3.487-19.253,13.62,13.62,0,0,1,19.064-3.521,13.922,13.922,0,0,1,3.49,19.25,13.623,13.623,0,0,1-19.067,3.524" transform="translate(1194.101 728.725)" fill="#683fc9"/>
        </g>
        <g id="Grupo_1103261" data-name="Grupo 1103261" transform="translate(41.563 992)">
          <path id="Trazado_895560" data-name="Trazado 895560" d="M50.007,168.286l5.5-3.718L50.161,104.09l7.016-4.251,39.221,45.8,6.726-2.1.65,2.025L83.6,154.96l-.644-2,6.421-4.249L77.945,134.869l-20.762,9.668,1.833,18.313,8.063-2.524.65,2.024L50.655,170.3Zm3.364-60.279,3.419,33.38,19.128-8.9-20.7-25.337Z" transform="translate(52.879 105.573)" fill="#ff84ed"/>
          <g id="Grupo_1103260" data-name="Grupo 1103260">
            <g id="Grupo_1103259" data-name="Grupo 1103259" clip-path="url(#clip-path-3)">
              <path id="Trazado_895561" data-name="Trazado 895561" d="M32.652,143.94l.107-33.182-4.528-.9.218-2.506,8.036-.263.817.523-.053,16.542-.963,11.773.4.088,1.619-6.95c1.572-6.9,3.72-9.966,8.312-10.116,5.189-.171,7.623,3.9,7.839,10.485.342,10.382-4.611,16.241-11.849,16.48a23.842,23.842,0,0,1-9.958-1.971m6.627-8.164-1.5,6a10.376,10.376,0,0,0,4.679.946c4.64-.154,7.156-5.732,6.923-12.771-.093-2.843-.29-7.335-3.436-7.232-3.642.119-4.45,4.444-6.664,13.061" transform="translate(29.853 113.238)" fill="#ff84ed"/>
              <path id="Trazado_895562" data-name="Trazado 895562" d="M58.523,66.16a3.956,3.956,0,0,1-.444,5.872,4.535,4.535,0,0,1-4.969.457l.025-2.074c.144-3.734-2.73-3.432-5.137-1.457-4.522,3.705-3.74,9.968,2.383,17.439,3.829,4.668,8.662,6.952,12.641,3.689,3.094-2.537,3.337-6.351,3.621-9.215l3.347.377c.111,2.539-.031,8.985-5.043,13.094-6.388,5.238-13.818,3.193-19.459-3.685-6.929-8.454-7.386-18.433.183-24.64,4.323-3.545,9.549-3.887,12.853.144" transform="translate(42.446 66.88)" fill="#ff84ed"/>
              <path id="Trazado_895563" data-name="Trazado 895563" d="M87.1,94.738a46.132,46.132,0,0,1-13.931-1.9L57.794,88.51l.442-1.113,7.016.833L79.876,43.8l-6.063-3.059.527-1.259,19.338,5.442c7.135,2.008,12.6,5.395,15.805,9.8,3.654,5.016,4.446,11.33,2.352,18.766C107.985,87.175,99.663,94.326,87.1,94.738m-17.11-4.732,3.158.889a36.912,36.912,0,0,0,11.083,1.535c10.859-.358,18.2-7.036,21.8-19.852,5.082-18.062-6.744-24.3-14.246-26.411l-6.942-1.955Z" transform="translate(61.114 41.747)" fill="#ff84ed"/>
              <path id="Trazado_895564" data-name="Trazado 895564" d="M165.027,98.135c5.432,5.736,2.146,12.606-1.354,18l-4.14,6.491c3.621,3.2,9.151,5.38,13.375,1.381,3.078-2.913,3.389-6.969,3.568-9.709l3.849.411a17.558,17.558,0,0,1-5.164,14.186c-6.777,6.421-15.466,4.559-22.233-2.586-8.542-9.022-9.812-20.183-1.992-27.59,5.372-5.088,10.287-4.6,14.089-.582m-11.643,4.1c-3.965,3.755-2.767,10.137,3.187,17.258l3.506-5.594c2.759-4.395,3.15-7.434-.062-10.824-1.924-2.033-4.442-2.913-6.631-.839" transform="translate(154.108 100.469)" fill="#ff84ed"/>
              <path id="Trazado_895565" data-name="Trazado 895565" d="M134.406,81.021,131.289,87.9l10.279,4-2.1,4.491L129.5,92.514l-10.433,23.87c-3.823,8.695-9.816,17.153-15.869,20.626-2.724,1.636-5.5,2.037-7.911,1.095-3.024-1.179-4.4-3.454-3.64-5.855a9.158,9.158,0,0,1,3.924-4.477l2.718,2.625c2.2,2.162,4.642,2.156,6.569-1.444,1.271-2.376,2.232-4.615,3.59-7.654l13.645-31.672-6.423-2.5,2.121-3.876L124.064,85l1.671-3.615c4.3-9.462,12.234-14.641,21.906-10.872,4.759,1.854,9.952,6.4,7.508,12.67a4.578,4.578,0,0,1-6.376,2.743,5.8,5.8,0,0,1-3.465-3.615l1.58-1.821c2.609-2.9,2.152-5.08-1.173-6.376-4.911-1.913-8.857,1.51-11.308,6.907" transform="translate(96.689 73.254)" fill="#ff84ed"/>
              <path id="Trazado_895566" data-name="Trazado 895566" d="M117.358,56.668l-.7,5.415c-1.251,9.077-3.2,13.308-9.318,14.106-6.876.9-10.526-4.977-11.505-12.48-1.537-11.793,3.257-20.755,12.211-21.922a22.666,22.666,0,0,1,8.205.467l2.7-1.955,2.1.368L123.6,68.1c.938,10.137-2.109,20.22-14.6,21.848-4.6.6-9.987-.364-10.588-4.967-.37-2.839,1.222-4.907,3.617-5.22a5.1,5.1,0,0,1,3.942,1.218l-.337,1.841c-.646,2.905.535,4.1,3.94,3.654,6.559-.856,9.172-7.353,8.767-17.369l-.533-12.435ZM114.6,54.205l1.086-7.9a15.391,15.391,0,0,0-6.3-.588c-5.927.774-8.318,8.012-7.152,16.966.444,3.405,1.352,9.38,5.641,8.82,4.413-.576,5.119-5.991,6.722-17.295" transform="translate(101.035 42.614)" fill="#ff84ed"/>
              <path id="Trazado_895567" data-name="Trazado 895567" d="M133.375,64.369l-3.5,20.229,7.182,1.985-.971,3.712-21.336-2.866.971-3.712,6.362-.086,7.709-43.972-6.372-2.189.959-3.635,20.795,2.794-.967,3.712-6.713.352-3.206,18.624,23.105,3.1,3.284-18.612-6.37-2.189.957-3.635,20.72,2.784-.967,3.712-6.713.352-7.623,43.906,7.182,1.983-.967,3.714-21.336-2.866.967-3.712,6.376-.165,3.578-20.218Z" transform="translate(121.342 35.778)" fill="#ff84ed"/>
              <path id="Trazado_895568" data-name="Trazado 895568" d="M65.561,95.811a11.5,11.5,0,0,0-3.837,1.144l-1.117-3.012a15.955,15.955,0,0,1,7.543-2.471c3.551-.117,5.339,2.047,5.183,7.006l-.8,20.035c-.066,1.846.154,2.726,1.549,2.681,1.333-.043,2.508-1.037,3.681-2.027l1.611,2.551a11.88,11.88,0,0,1-7.754,3.749c-4.185.138-5.343-2.238-5.335-5.794l.951-21.313c.01-1.65-.212-2.6-1.671-2.549m3.5-19.169a4.079,4.079,0,0,1,4.391,4.175,4.284,4.284,0,1,1-4.391-4.175" transform="translate(64.088 81.04)" fill="#ff84ed"/>
              <path id="Trazado_895569" data-name="Trazado 895569" d="M92.252,181.516c-1.739,2.251-3.884,3.759-6.454,3.843-3.249.107-4.967-1.5-5.2-3.837a8.124,8.124,0,0,1,1.728-5.051l3.294,1.253c2.6.973,4.769.146,5.1-3.648.218-2.5.218-4.849.267-7.952l.235-29.666c.006-2.043-.329-3.09-1.99-3.037a14.206,14.206,0,0,0-4.648,1.364L83.259,131.2a19.27,19.27,0,0,1,8.981-2.942c4.232-.14,6.368,2.59,6.183,8.5l-.121,21.64c-.027,8.324-2.348,18.311-6.049,23.124m.619-70.91a4.864,4.864,0,0,1,5.234,4.971,5.105,5.105,0,1,1-10.2.414,4.983,4.983,0,0,1,4.967-5.384" transform="translate(85.214 116.956)" fill="#ff84ed"/>
              <path id="Trazado_895570" data-name="Trazado 895570" d="M107.771,104.621l1.1-2.917,9.684,2.395.8.9-8.03,27.055a25.032,25.032,0,0,0,10.349-1.588c2.806-1.031,3.705-2.594,2.259-3.975l-1.43-1.438a4.787,4.787,0,0,1,5.658-3,4.16,4.16,0,0,1,3.016,5.341c-.788,3.187-3.144,4.712-8.008,6.316a39.457,39.457,0,0,1-4.565,1.169l3.531,12.042c.85,2.765,1.483,4.07,3.045,4.456a6.157,6.157,0,0,0,3.459-.294l.8,2.687a10.8,10.8,0,0,1-7.466,1.027c-3.308-.819-4.335-3.115-5.321-6.36l-3.533-12.808-2.825.066-4.232,14.272-5.413-1.339,12.219-41.4Z" transform="translate(106.433 107.546)" fill="#ff84ed"/>
              <path id="Trazado_895571" data-name="Trazado 895571" d="M161.848,114.338l4.753-2.992L152.32,73.535l-5.681,1.183-.448-1.566,16.322-6.958.43,1.51-6.074,3.852,14.336,37.968,9.841-4.2c4.08-1.739,5.23-3.9,4.732-8.888l-.294-2.94,2.111-.9,3.094,11.139L162.28,115.846Z" transform="translate(154.588 69.996)" fill="#ff84ed"/>
              <path id="Trazado_895572" data-name="Trazado 895572" d="M49.817,131.9l-7.763,3.777L13.476,91.735,23.3,135.054l7.244-1,.679,3.948L12.5,143.648,11.82,139.7l6.045-3.008L7.584,91.3l-6.927.646L0,88.081l17.33-5.222,27.333,42.624.955-51.144,17.1-5.15.7,4.026-5.631,2.967,14.966,44.06,7.532-1.167.681,3.95-21.214,6.39-.681-3.95,6.069-2.93L50.753,79.571Z" transform="translate(0 73.163)" fill="#ff84ed"/>
              <path id="Trazado_895573" data-name="Trazado 895573" d="M179.635,71.7c-3.537.117-4.685-1.846-4.553-4.761l.9-16.243c.165-3.66-.389-4.841-2.158-4.781-2.224.074-2.909,1.806-4.349,6.6L163.7,71.423l-5.532.181.134-23.755c0-1.543-.416-2.214-1.557-2.175a10.3,10.3,0,0,0-3.218,1.074l-1.066-2.874a16.546,16.546,0,0,1,6.666-2.162c3.308-.109,4.629,1.848,4.413,5.679l-.928,15.217.4.1,3.644-12.454c1.743-6.053,3.932-8.921,8.38-9.065,5.076-.169,6.722,3.031,6.415,9.265l-.763,14.982c-.115,1.72.136,2.452,1.393,2.413a5.82,5.82,0,0,0,2.981-1.358l1.387,2.241a12.4,12.4,0,0,1-6.812,2.963" transform="translate(161.213 43.55)" fill="#ff84ed"/>
              <path id="Trazado_895574" data-name="Trazado 895574" d="M97.2,77.393c8.164,2.4,10.82,9.658,8.207,18.535-2.664,9.055-9.1,15.966-19.348,12.949-8.043-2.366-10.736-9.5-8.088-18.5,2.629-8.938,8.863-16.038,19.229-12.987m1.969,16.634c1.911-6.5,1.671-11.614-3.454-13.122-6.137-1.806-9.47,4.463-11.54,11.493-1.928,6.553-1.335,11.583,3.37,12.97,6.078,1.788,9.5-4.131,11.625-11.341" transform="translate(81.414 81.077)" fill="#ff84ed"/>
              <path id="Trazado_895575" data-name="Trazado 895575" d="M33.8,82.229l-.638-.457L33.12,62.5l-.8-25.687a3.912,3.912,0,0,0-.948-2.839,2.5,2.5,0,0,0-1.92-.576c-.1.008-.208.021-.323.037a12.492,12.492,0,0,0-3.294,1.132l-.753-1.961a18.1,18.1,0,0,1,6.364-2.378c.337-.051.677-.091,1.023-.113a4.214,4.214,0,0,1,3.364.942c.932.914,1.348,2.524,1.239,4.792,0,0-.7,14.394-.728,17.3s1.734,2.773,2.259.128,2.033-10.269,2.033-10.269c1.823-9.6,4.308-13.268,9.5-14.046.337-.049.687-.088,1.049-.111A8.354,8.354,0,0,1,58.8,32.042c1.811,2.343,2.893,5.9,3.21,10.577.862,12.746-4.475,21.864-13.6,23.228-.416.062-.835.109-1.263.138a18.81,18.81,0,0,1-8.036-1.234l-1.263-.527.078,14.82,6.693.405-.064,1.92Zm15.84-49.671c-4.975.745-6.193,6.425-8.407,16.737l-.7,3.243-2.123,9.248.739.28a16.4,16.4,0,0,0,7.162,1.183c.253-.019.5-.045.745-.08,6.508-.973,10.219-8.865,9.456-20.1-.259-3.825-.745-10.946-6.31-10.567-.193.012-.381.033-.562.06" transform="translate(26.517 30.476)" fill="#ff84ed"/>
              <path id="Trazado_895576" data-name="Trazado 895576" d="M216.948,144.29a9.509,9.509,0,0,1-2.946-.379c-4.121-1.181-7.913-4.516-12.682-11.153l-.245-.358c-5.4-7.849-7.633-11.1-13.641-12.822a19.9,19.9,0,0,0-6.384-.755,56.623,56.623,0,0,0-6.106.64l-.646-3.942a41.9,41.9,0,0,1,5.29-.531,28.238,28.238,0,0,1,3.208.06s-.025-.08.92.066,2-1.595.667-2.321c-.356-.2-.763-.446-.763-.446-11.859-6.9-16.385-19.955-12.1-34.906C176.538,59.916,187.232,50,201.626,49.528a37.018,37.018,0,0,1,11.419,1.492C221.1,53.33,227.161,58,230.57,64.539c3.592,6.894,4.041,15.6,1.294,25.191-4.895,17.079-15.188,26.362-29.765,26.841a41.356,41.356,0,0,1-8.427-.63s-.56-.1-1-.173c-2.29-.368-2.706,1.8-.776,2.706.6.282.889.405.889.405a29.881,29.881,0,0,1,12.258,10c4.234,5.483,6.483,7.4,8.6,7.333a3.751,3.751,0,0,0,3.014-2.074l1.364-2.243a8.838,8.838,0,0,1,4.619,3.138,5.257,5.257,0,0,1,.595,4.5,6.357,6.357,0,0,1-6.283,4.753M203.422,53.913c-7.378.245-17.379,4.738-23.119,24.769-5.2,18.151-.761,30.24,12.5,34.04a20.221,20.221,0,0,0,6.255.8c10.67-.35,19.309-9.353,23.708-24.7,5.049-17.624.449-30.327-12.312-33.985a22.92,22.92,0,0,0-7.034-.928" transform="translate(179.691 52.354)" fill="#ff84ed"/>
              <path id="Trazado_895577" data-name="Trazado 895577" d="M52.478,26.717A13.182,13.182,0,0,0,48.4,28.887L46.32,25.262a23.009,23.009,0,0,1,8.7-4.446c4.339-.874,6.357,1.652,6.925,6.847l1.023,10.972.473-.016,2.119-10.335C66.831,22,68.042,18.193,72.919,17.209c4.189-.844,6.633,1.438,7.185,4.181a6.126,6.126,0,0,1-2.994,6.39l-1.926-1.675c-1.066-.973-1.8-1.461-2.94-1.23-1.753.354-2.148,1.94-3.736,8.6-2.654,11.633-3.24,15-2.64,20.35l.525,6.156-6.4,1.29L55.058,29.289c-.325-2-.979-2.895-2.58-2.572" transform="translate(48.98 18.01)" fill="#ff84ed"/>
              <path id="Trazado_895578" data-name="Trazado 895578" d="M127.527,61.116c-9.189,4.907-17.305,3.533-20.208-1.9-1.883-3.522-.924-6.89,2.064-8.485a8.3,8.3,0,0,1,6.549-.642l.082,3.1c.056,3.613,2.765,6.1,9.427,2.545,5.9-3.15,9.662-9,6.061-15.737-6.133-11.487-29.46,3.43-38.172-12.88-3.393-6.357-3.808-17.453,9.363-24.488,7.886-4.21,16.373-3.43,19.686,2.773a5.427,5.427,0,0,1-2.2,7.672,8.766,8.766,0,0,1-6.076.784l-.138-3.763c-.1-3.687-3.368-5.386-9.036-2.36-6.971,3.722-8.47,8.656-5.892,13.48,6.46,12.1,29.864-3.057,38.657,13.408,5.028,9.419,1.014,20.519-10.166,26.49" transform="translate(96.562 0)" fill="#ff84ed"/>
              <path id="Trazado_895579" data-name="Trazado 895579" d="M138.564,144.219c-3.01.1-5.292-.59-6.781-2.047-1.588-1.553-2.374-4.057-2.335-7.446l.284-24.438-5.806.191.232-2.076,5.518-.765,2.7-12.079,2.815-.093L134.92,107.7l11.09-.364-.078,2.424-11.042.362-.377,23.825c-.012,2.745.539,4.557,1.732,5.716A5.438,5.438,0,0,0,140.382,141c2.911-.1,5.193-1.747,7.067-3.551l1.206,1.3a13.392,13.392,0,0,1-10.092,5.471" transform="translate(131.043 100.949)" fill="#ff84ed"/>
              <path id="Trazado_895580" data-name="Trazado 895580" d="M81.124,13.464c3.154.8,3.728,2.872,2.788,5.5l-5,14.254c-1.084,3.193-1.127,4.448.527,4.868,1.811.459,2.928-.907,5.543-4.923L94.9,17.733l5.016,1.274-6.29,21.3c-.407,1.383-.253,2.082.833,2.358a10.1,10.1,0,0,0,3.173-.132l.274,2.823a14.908,14.908,0,0,1-6.561.261c-3.051-.776-3.73-2.874-2.541-6.259l4.81-13.532-.4-.156L86.889,36.065c-2.979,4.8-5.679,6.979-9.816,5.93-4.549-1.156-5.016-4.522-3.133-9.989L78.5,18.8c.523-1.407.51-2.236-.625-2.524a5.26,5.26,0,0,0-3.029.442l-.6-2.409a11.79,11.79,0,0,1,6.874-.841" transform="translate(77.087 14.015)" fill="#ff84ed"/>
              <path id="Trazado_895581" data-name="Trazado 895581" d="M178.265,15.467c4.257,9.522,7.724,29.372-4.843,34.989-4.125,1.846-9.586,2.915-13.258-6.485L153.3,26.4c-.846-2.057-2.115-2.177-3.5-1.02l-2.331,2.109-2.5-2.693a19.86,19.86,0,0,1,6.681-5.5c3.87-1.73,6.2-.1,7.483,3.282l6.843,18.033c1.535,4.113,3.057,6.327,6.485,4.794,7.172-3.208,5.378-16.418,2.631-23.416-1.2-3.2-2.175-3.673-4.109-3.57l-2.654.2c-1.835-2.913-1.385-6.16,1.662-7.522,3.681-1.646,6.574.564,8.277,4.372" transform="translate(153.291 11.15)" fill="#ff84ed"/>
              <path id="Trazado_895582" data-name="Trazado 895582" d="M146.864,37.256a5.243,5.243,0,0,1-5.7-4.779l-.451-2.778-1.255,2.518c-1.848,3.714-4.374,5.425-8.2,5.553a6.2,6.2,0,0,1-4.747-1.541c-1.352-1.329-2.014-3.543-1.969-6.582l.232-15.513A3.022,3.022,0,0,0,124,11.867a2.192,2.192,0,0,0-1.662-.59,4.075,4.075,0,0,0-1.216.245l-1.479.523-.471-1.247a15.419,15.419,0,0,1,5.674-1.615,3.727,3.727,0,0,1,2.827.831,4.033,4.033,0,0,1,.9,3.047l-.4,15.573c-.074,2.915.374,4.693,1.455,5.765a3.874,3.874,0,0,0,2.985,1.035c5.465-.179,8.263-6.829,7.872-18.723a62.243,62.243,0,0,0-.642-6.767l3.491-.535a36.722,36.722,0,0,1,.654,6.1,91.463,91.463,0,0,1-.564,12.1c-.235,2.37-.276,4.755,1.018,6.139a4.151,4.151,0,0,0,3.313,1.13c6.892-.226,9.372-12.217,9.446-17.651.021-3.059-.648-4.265-2.751-4.963l-1.514-.494A3.92,3.92,0,0,1,153.629,9,2.574,2.574,0,0,1,155.6,8.17c1.737-.056,4.065.44,4.228,5.4.309,9.372-3.6,23.381-12.964,23.689" transform="translate(126.02 8.635)" fill="#ff84ed"/>
              <path id="Trazado_895583" data-name="Trazado 895583" d="M188.729,36.819c1.424-2.45,1.687-3.932.078-4.409l-1.671-.506a3.562,3.562,0,0,1,2.413-3.767,3.025,3.025,0,0,1,3.981,1.975c.889,2.58-.473,4.907-2.944,8.954l-1.714,2.808,5.936,6.15c1.527,1.588,2.193,1.874,3.253,1.508a4.871,4.871,0,0,0,2.2-1.687l1.681,1.43a8.057,8.057,0,0,1-4.325,3.761c-2.489.858-4.189.411-6.121-1.6l-5.59-5.751-2.7,4.279c-1.5,2.372-1.193,3.866.841,3.936l1.251.035a3.483,3.483,0,0,1-2.2,4.107,3.127,3.127,0,0,1-4.228-2.1c-.841-2.444-.107-4.345,2.5-8.287l2.594-3.989-5.825-5.983c-1.372-1.434-2.109-1.333-2.8-1.095a7.778,7.778,0,0,0-2.294,1.718l-1.673-2.156a12.329,12.329,0,0,1,4.714-3.376c2.257-.778,3.835-.241,5.456,1.469l5.4,5.664Z" transform="translate(181.227 29.544)" fill="#ff84ed"/>
              <path id="Trazado_895584" data-name="Trazado 895584" d="M25.225,70.531,24.353,56.4,21.01,57.685l-.833-1.743,8.252-5.325.887,1.9-2.362,2.352.765,17.5,4.123,6.989,3.506-1.632.876,1.813-9.483,6.119-.879-1.811,2.52-2.257-4-7.022L9.252,66.145l-2.9,1.144-.864-1.868,9.108-5.878.9,1.846L12.94,63.666,25.09,70.62Z" transform="translate(5.802 53.525)" fill="#ff84ed"/>
              <path id="Trazado_895585" data-name="Trazado 895585" d="M151.533,73.545l.87,2.463-17.856,24.161a16.763,16.763,0,0,1,3.87-.553c2.609-.086,4.821.632,6.822.566,2.245-.074,2.5-1.479,4.327-6.948l3.1-.1-1.391,11.347c-5.479,1.518-11.365-.173-16.04-.019a10.136,10.136,0,0,0-4.761,1.13l-2.222-2.905,17.727-24.337-9.343.307c-3.22.107-3.738.913-4.845,6.053l-3.15.286.52-10.042.646-.689Z" transform="translate(135.617 77.769)" fill="#ff84ed"/>
            </g>
          </g>
        </g>
        <path id="Trazado_895586" data-name="Trazado 895586" d="M436,360.825c7.81-22.007,13.928-39.609,4.784-68.508-7.3-23.09,12.543-42.106,20.221-63.6,6.834-19.128,9.084-42.132,7.418-62.975-2.277-28.457-13.225-56.962-32.187-77.333C406.69,56.666,362,48.668,322.824,56c-16.407,3.073-32.678,8.517-49.478,6.8-24.5-2.5-46.085-19.632-68.393-32.191-30.368-17.1-65.178-26.3-97.462-18.859-36.6,8.436-66.617,40.3-70.2,82.568-1.623,19.154,14.865,52.9,9.662,71.052C41.677,183.79,3.143,240.185,4.093,283.08c.947,42.735,9.822,56.025,22.364,77.745" transform="translate(-23.627 1528.175)" fill="url(#linear-gradient-3)"/>
        <path id="Trazado_895587" data-name="Trazado 895587" d="M491.166,414.425a.68.68,0,0,1-.394-.128,1.23,1.23,0,0,1-.341-1.446,122.615,122.615,0,0,0,7.7-26.839c3.014-17.95.749-33.966-1.649-50.921-1.135-8.029-2.31-16.33-2.9-24.935-1.242-18.131,2.21-33.878,5.861-50.548,1.382-6.31,2.811-12.833,3.962-19.49,3.433-19.849,2.652-43.68-2.141-65.384-6.489-29.388-21.478-54.929-41.125-70.066C431.153,82.334,389.77,80.55,349.444,99.9c-3.71,1.78-7.459,3.741-11.082,5.638-11.062,5.786-22.5,11.772-34.685,13.61-18.112,2.727-36.01-3.848-53.325-10.209-5.247-1.927-10.673-3.918-16-5.61-34.167-10.853-67.523-9.107-93.923,4.924-34.656,18.416-56.184,58.732-53.569,100.32.464,7.375,1.666,14.861,2.826,22.1,1.961,12.222,3.989,24.858,2.552,37.411s-5.9,23.986-10.207,35.026c-2.63,6.744-5.352,13.717-7.344,20.852-6.641,23.8-8.33,61.76,3.653,88.867a1.24,1.24,0,0,1-.314,1.457.744.744,0,0,1-1.138-.4c-12.242-27.688-10.538-66.393-3.772-90.638,2.024-7.257,4.768-14.29,7.422-21.089,4.251-10.891,8.645-22.155,10.047-34.38,1.4-12.179-.6-24.629-2.534-36.671-1.172-7.3-2.383-14.852-2.856-22.36-2.674-42.517,19.267-83.7,54.594-102.468,26.727-14.2,60.454-15.986,94.963-5.024,5.356,1.7,10.795,3.7,16.056,5.632,17.159,6.3,34.892,12.821,52.671,10.141,11.96-1.8,23.291-7.732,34.247-13.466,3.637-1.9,7.4-3.869,11.127-5.659,40.8-19.577,82.723-17.727,112.142,4.937C481,118.25,496.266,144.244,502.87,174.152c4.865,22.033,5.653,46.245,2.165,66.428-1.162,6.714-2.6,13.268-3.986,19.605-3.61,16.478-7.021,32.043-5.806,49.785.584,8.506,1.751,16.758,2.881,24.738,2.428,17.171,4.723,33.388,1.637,51.755a125.073,125.073,0,0,1-7.861,27.4.828.828,0,0,1-.734.565" transform="matrix(-0.819, 0.574, -0.574, -0.819, 570.036, 1162.747)" fill="#f3eeff"/>
        <path id="Trazado_895588" data-name="Trazado 895588" d="M491.166,414.425a.68.68,0,0,1-.394-.128,1.23,1.23,0,0,1-.341-1.446,122.615,122.615,0,0,0,7.7-26.839c3.014-17.95.749-33.966-1.649-50.921-1.135-8.029-2.31-16.33-2.9-24.935-1.242-18.131,2.21-33.878,5.861-50.548,1.382-6.31,2.811-12.833,3.962-19.49,3.433-19.849,2.652-43.68-2.141-65.384-6.489-29.388-21.478-54.929-41.125-70.066C431.153,82.334,389.77,80.55,349.444,99.9c-3.71,1.78-7.459,3.741-11.082,5.638-11.062,5.786-22.5,11.772-34.685,13.61-18.112,2.727-36.01-3.848-53.325-10.209-5.247-1.927-10.673-3.918-16-5.61-34.167-10.853-67.523-9.107-93.923,4.924-34.656,18.416-56.184,58.732-53.569,100.32.464,7.375,1.666,14.861,2.826,22.1,1.961,12.222,3.989,24.858,2.552,37.411s-5.9,23.986-10.207,35.026c-2.63,6.744-5.352,13.717-7.344,20.852-6.641,23.8-8.33,61.76,3.653,88.867a1.24,1.24,0,0,1-.314,1.457.744.744,0,0,1-1.138-.4c-12.242-27.688-10.538-66.393-3.772-90.638,2.024-7.257,4.768-14.29,7.422-21.089,4.251-10.891,8.645-22.155,10.047-34.38,1.4-12.179-.6-24.629-2.534-36.671-1.172-7.3-2.383-14.852-2.856-22.36-2.674-42.517,19.267-83.7,54.594-102.468,26.727-14.2,60.454-15.986,94.963-5.024,5.356,1.7,10.795,3.7,16.056,5.632,17.159,6.3,34.892,12.821,52.671,10.141,11.96-1.8,23.291-7.732,34.247-13.466,3.637-1.9,7.4-3.869,11.127-5.659,40.8-19.577,82.723-17.727,112.142,4.937C481,118.25,496.266,144.244,502.87,174.152c4.865,22.033,5.653,46.245,2.165,66.428-1.162,6.714-2.6,13.268-3.986,19.605-3.61,16.478-7.021,32.043-5.806,49.785.584,8.506,1.751,16.758,2.881,24.738,2.428,17.171,4.723,33.388,1.637,51.755a125.073,125.073,0,0,1-7.861,27.4.828.828,0,0,1-.734.565" transform="matrix(0.602, 0.799, -0.799, 0.602, 93.729, 1264.614)" fill="#f3eeff"/>
        <path id="Trazado_895589" data-name="Trazado 895589" d="M392.912,362.728a.693.693,0,0,1-.35-.1,1.216,1.216,0,0,1-.407-1.42c5.127-14.217,9.178-25.446,3.178-44.106-3.515-10.928,1.9-20.514,7.142-29.784a88.036,88.036,0,0,0,6.362-12.818c4.251-11.706,6.027-26.565,4.873-40.769-1.564-19.231-9.28-37.469-21.171-50.039-17.581-18.585-45.616-26.449-75-21.034-2.7.5-5.454,1.1-8.111,1.688-8.135,1.79-16.548,3.638-25.078,2.785-12.671-1.27-24.284-8.305-35.513-15.107-3.395-2.055-6.9-4.182-10.374-6.1-22.251-12.326-45.168-16.694-64.533-12.3a59.522,59.522,0,0,0-46.141,53.254c-.466,5.405,1.412,12.709,3.4,20.441,2.467,9.6,5.017,19.522,3,26.447-1.083,3.72-4.077,9.486-7.869,16.784-8.4,16.185-21.106,40.643-20.669,60.06.592,26.4,5.765,35.172,13.592,48.45l1.157,1.964a1.28,1.28,0,0,1-.165,1.5.717.717,0,0,1-1.168-.21l-1.153-1.961c-7.734-13.118-13.322-22.6-13.931-49.676-.452-20.1,11.916-43.918,20.949-61.309,3.583-6.9,6.678-12.859,7.694-16.348,1.812-6.222-.644-15.783-3.021-25.029-2.045-7.961-3.977-15.479-3.471-21.346,2.33-27.059,21.421-49.212,47.509-55.126,19.682-4.46,42.939-.039,65.484,12.448,3.5,1.936,7.02,4.07,10.428,6.134,11.092,6.72,22.563,13.668,34.928,14.908,8.33.843,16.633-.99,24.666-2.759,2.669-.588,5.431-1.2,8.155-1.7,29.838-5.5,58.361,2.539,76.3,21.5,12.225,12.925,20.16,31.686,21.767,51.468,1.185,14.579-.646,29.848-5.02,41.894a89.618,89.618,0,0,1-6.524,13.171c-5.2,9.2-10.109,17.887-6.95,27.714,6.279,19.524,1.884,31.709-3.2,45.819a.847.847,0,0,1-.758.62" transform="matrix(-0.819, 0.574, -0.574, -0.819, 520.592, 1134.256)" fill="#f3eeff"/>
        <g id="Grupo_1103264" data-name="Grupo 1103264" transform="translate(1105 972.183)">
          <path id="Trazado_895590" data-name="Trazado 895590" d="M50.007,168.286l5.5-3.718L50.161,104.09l7.016-4.251,39.221,45.8,6.726-2.1.65,2.025L83.6,154.96l-.644-2,6.421-4.249L77.945,134.869l-20.762,9.668,1.833,18.313,8.063-2.524.65,2.024L50.655,170.3Zm3.364-60.279,3.419,33.38,19.128-8.9-20.7-25.337Z" transform="translate(52.879 105.573)" fill="#824ffb"/>
          <g id="Grupo_1103263" data-name="Grupo 1103263">
            <g id="Grupo_1103262" data-name="Grupo 1103262" clip-path="url(#clip-path-2)">
              <path id="Trazado_895591" data-name="Trazado 895591" d="M32.652,143.94l.107-33.182-4.528-.9.218-2.506,8.036-.263.817.523-.053,16.542-.963,11.773.4.088,1.619-6.95c1.572-6.9,3.72-9.966,8.312-10.116,5.189-.171,7.623,3.9,7.839,10.485.342,10.382-4.611,16.241-11.849,16.48a23.842,23.842,0,0,1-9.958-1.971m6.627-8.164-1.5,6a10.376,10.376,0,0,0,4.679.946c4.64-.154,7.156-5.732,6.923-12.771-.093-2.843-.29-7.335-3.436-7.232-3.642.119-4.45,4.444-6.664,13.061" transform="translate(29.853 113.238)" fill="#824ffb"/>
              <path id="Trazado_895592" data-name="Trazado 895592" d="M58.523,66.16a3.956,3.956,0,0,1-.444,5.872,4.535,4.535,0,0,1-4.969.457l.025-2.074c.144-3.734-2.73-3.432-5.137-1.457-4.522,3.705-3.74,9.968,2.383,17.439,3.829,4.668,8.662,6.952,12.641,3.689,3.094-2.537,3.337-6.351,3.621-9.215l3.347.377c.111,2.539-.031,8.985-5.043,13.094-6.388,5.238-13.818,3.193-19.459-3.685-6.929-8.454-7.386-18.433.183-24.64,4.323-3.545,9.549-3.887,12.853.144" transform="translate(42.446 66.88)" fill="#824ffb"/>
              <path id="Trazado_895593" data-name="Trazado 895593" d="M87.1,94.738a46.132,46.132,0,0,1-13.931-1.9L57.794,88.51l.442-1.113,7.016.833L79.876,43.8l-6.063-3.059.527-1.259,19.338,5.442c7.135,2.008,12.6,5.395,15.805,9.8,3.654,5.016,4.446,11.33,2.352,18.766C107.985,87.175,99.663,94.326,87.1,94.738m-17.11-4.732,3.158.889a36.912,36.912,0,0,0,11.083,1.535c10.859-.358,18.2-7.036,21.8-19.852,5.082-18.062-6.744-24.3-14.246-26.411l-6.942-1.955Z" transform="translate(61.114 41.747)" fill="#824ffb"/>
              <path id="Trazado_895594" data-name="Trazado 895594" d="M165.027,98.135c5.432,5.736,2.146,12.606-1.354,18l-4.14,6.491c3.621,3.2,9.151,5.38,13.375,1.381,3.078-2.913,3.389-6.969,3.568-9.709l3.849.411a17.558,17.558,0,0,1-5.164,14.186c-6.777,6.421-15.466,4.559-22.233-2.586-8.542-9.022-9.812-20.183-1.992-27.59,5.372-5.088,10.287-4.6,14.089-.582m-11.643,4.1c-3.965,3.755-2.767,10.137,3.187,17.258l3.506-5.594c2.759-4.395,3.15-7.434-.062-10.824-1.924-2.033-4.442-2.913-6.631-.839" transform="translate(154.108 100.469)" fill="#824ffb"/>
              <path id="Trazado_895595" data-name="Trazado 895595" d="M134.406,81.021,131.289,87.9l10.279,4-2.1,4.491L129.5,92.514l-10.433,23.87c-3.823,8.695-9.816,17.153-15.869,20.626-2.724,1.636-5.5,2.037-7.911,1.095-3.024-1.179-4.4-3.454-3.64-5.855a9.158,9.158,0,0,1,3.924-4.477l2.718,2.625c2.2,2.162,4.642,2.156,6.569-1.444,1.271-2.376,2.232-4.615,3.59-7.654l13.645-31.672-6.423-2.5,2.121-3.876L124.064,85l1.671-3.615c4.3-9.462,12.234-14.641,21.906-10.872,4.759,1.854,9.952,6.4,7.508,12.67a4.578,4.578,0,0,1-6.376,2.743,5.8,5.8,0,0,1-3.465-3.615l1.58-1.821c2.609-2.9,2.152-5.08-1.173-6.376-4.911-1.913-8.857,1.51-11.308,6.907" transform="translate(96.689 73.254)" fill="#824ffb"/>
              <path id="Trazado_895596" data-name="Trazado 895596" d="M117.358,56.668l-.7,5.415c-1.251,9.077-3.2,13.308-9.318,14.106-6.876.9-10.526-4.977-11.505-12.48-1.537-11.793,3.257-20.755,12.211-21.922a22.666,22.666,0,0,1,8.205.467l2.7-1.955,2.1.368L123.6,68.1c.938,10.137-2.109,20.22-14.6,21.848-4.6.6-9.987-.364-10.588-4.967-.37-2.839,1.222-4.907,3.617-5.22a5.1,5.1,0,0,1,3.942,1.218l-.337,1.841c-.646,2.905.535,4.1,3.94,3.654,6.559-.856,9.172-7.353,8.767-17.369l-.533-12.435ZM114.6,54.205l1.086-7.9a15.391,15.391,0,0,0-6.3-.588c-5.927.774-8.318,8.012-7.152,16.966.444,3.405,1.352,9.38,5.641,8.82,4.413-.576,5.119-5.991,6.722-17.295" transform="translate(101.035 42.614)" fill="#824ffb"/>
              <path id="Trazado_895597" data-name="Trazado 895597" d="M133.375,64.369l-3.5,20.229,7.182,1.985-.971,3.712-21.336-2.866.971-3.712,6.362-.086,7.709-43.972-6.372-2.189.959-3.635,20.795,2.794-.967,3.712-6.713.352-3.206,18.624,23.105,3.1,3.284-18.612-6.37-2.189.957-3.635,20.72,2.784-.967,3.712-6.713.352-7.623,43.906,7.182,1.983-.967,3.714-21.336-2.866.967-3.712,6.376-.165,3.578-20.218Z" transform="translate(121.342 35.778)" fill="#824ffb"/>
              <path id="Trazado_895598" data-name="Trazado 895598" d="M65.561,95.811a11.5,11.5,0,0,0-3.837,1.144l-1.117-3.012a15.955,15.955,0,0,1,7.543-2.471c3.551-.117,5.339,2.047,5.183,7.006l-.8,20.035c-.066,1.846.154,2.726,1.549,2.681,1.333-.043,2.508-1.037,3.681-2.027l1.611,2.551a11.88,11.88,0,0,1-7.754,3.749c-4.185.138-5.343-2.238-5.335-5.794l.951-21.313c.01-1.65-.212-2.6-1.671-2.549m3.5-19.169a4.079,4.079,0,0,1,4.391,4.175,4.284,4.284,0,1,1-4.391-4.175" transform="translate(64.088 81.04)" fill="#824ffb"/>
              <path id="Trazado_895599" data-name="Trazado 895599" d="M92.252,181.516c-1.739,2.251-3.884,3.759-6.454,3.843-3.249.107-4.967-1.5-5.2-3.837a8.124,8.124,0,0,1,1.728-5.051l3.294,1.253c2.6.973,4.769.146,5.1-3.648.218-2.5.218-4.849.267-7.952l.235-29.666c.006-2.043-.329-3.09-1.99-3.037a14.206,14.206,0,0,0-4.648,1.364L83.259,131.2a19.27,19.27,0,0,1,8.981-2.942c4.232-.14,6.368,2.59,6.183,8.5l-.121,21.64c-.027,8.324-2.348,18.311-6.049,23.124m.619-70.91a4.864,4.864,0,0,1,5.234,4.971,5.105,5.105,0,1,1-10.2.414,4.983,4.983,0,0,1,4.967-5.384" transform="translate(85.214 116.956)" fill="#824ffb"/>
              <path id="Trazado_895600" data-name="Trazado 895600" d="M107.771,104.621l1.1-2.917,9.684,2.395.8.9-8.03,27.055a25.032,25.032,0,0,0,10.349-1.588c2.806-1.031,3.705-2.594,2.259-3.975l-1.43-1.438a4.787,4.787,0,0,1,5.658-3,4.16,4.16,0,0,1,3.016,5.341c-.788,3.187-3.144,4.712-8.008,6.316a39.457,39.457,0,0,1-4.565,1.169l3.531,12.042c.85,2.765,1.483,4.07,3.045,4.456a6.157,6.157,0,0,0,3.459-.294l.8,2.687a10.8,10.8,0,0,1-7.466,1.027c-3.308-.819-4.335-3.115-5.321-6.36l-3.533-12.808-2.825.066-4.232,14.272-5.413-1.339,12.219-41.4Z" transform="translate(106.433 107.546)" fill="#824ffb"/>
              <path id="Trazado_895601" data-name="Trazado 895601" d="M161.848,114.338l4.753-2.992L152.32,73.535l-5.681,1.183-.448-1.566,16.322-6.958.43,1.51-6.074,3.852,14.336,37.968,9.841-4.2c4.08-1.739,5.23-3.9,4.732-8.888l-.294-2.94,2.111-.9,3.094,11.139L162.28,115.846Z" transform="translate(154.588 69.996)" fill="#824ffb"/>
              <path id="Trazado_895602" data-name="Trazado 895602" d="M49.817,131.9l-7.763,3.777L13.476,91.735,23.3,135.054l7.244-1,.679,3.948L12.5,143.648,11.82,139.7l6.045-3.008L7.584,91.3l-6.927.646L0,88.081l17.33-5.222,27.333,42.624.955-51.144,17.1-5.15.7,4.026-5.631,2.967,14.966,44.06,7.532-1.167.681,3.95-21.214,6.39-.681-3.95,6.069-2.93L50.753,79.571Z" transform="translate(0 73.163)" fill="#824ffb"/>
              <path id="Trazado_895603" data-name="Trazado 895603" d="M179.635,71.7c-3.537.117-4.685-1.846-4.553-4.761l.9-16.243c.165-3.66-.389-4.841-2.158-4.781-2.224.074-2.909,1.806-4.349,6.6L163.7,71.423l-5.532.181.134-23.755c0-1.543-.416-2.214-1.557-2.175a10.3,10.3,0,0,0-3.218,1.074l-1.066-2.874a16.546,16.546,0,0,1,6.666-2.162c3.308-.109,4.629,1.848,4.413,5.679l-.928,15.217.4.1,3.644-12.454c1.743-6.053,3.932-8.921,8.38-9.065,5.076-.169,6.722,3.031,6.415,9.265l-.763,14.982c-.115,1.72.136,2.452,1.393,2.413a5.82,5.82,0,0,0,2.981-1.358l1.387,2.241a12.4,12.4,0,0,1-6.812,2.963" transform="translate(161.213 43.55)" fill="#824ffb"/>
              <path id="Trazado_895604" data-name="Trazado 895604" d="M97.2,77.393c8.164,2.4,10.82,9.658,8.207,18.535-2.664,9.055-9.1,15.966-19.348,12.949-8.043-2.366-10.736-9.5-8.088-18.5,2.629-8.938,8.863-16.038,19.229-12.987m1.969,16.634c1.911-6.5,1.671-11.614-3.454-13.122-6.137-1.806-9.47,4.463-11.54,11.493-1.928,6.553-1.335,11.583,3.37,12.97,6.078,1.788,9.5-4.131,11.625-11.341" transform="translate(81.414 81.077)" fill="#824ffb"/>
              <path id="Trazado_895605" data-name="Trazado 895605" d="M33.8,82.229l-.638-.457L33.12,62.5l-.8-25.687a3.912,3.912,0,0,0-.948-2.839,2.5,2.5,0,0,0-1.92-.576c-.1.008-.208.021-.323.037a12.492,12.492,0,0,0-3.294,1.132l-.753-1.961a18.1,18.1,0,0,1,6.364-2.378c.337-.051.677-.091,1.023-.113a4.214,4.214,0,0,1,3.364.942c.932.914,1.348,2.524,1.239,4.792,0,0-.7,14.394-.728,17.3s1.734,2.773,2.259.128,2.033-10.269,2.033-10.269c1.823-9.6,4.308-13.268,9.5-14.046.337-.049.687-.088,1.049-.111A8.354,8.354,0,0,1,58.8,32.042c1.811,2.343,2.893,5.9,3.21,10.577.862,12.746-4.475,21.864-13.6,23.228-.416.062-.835.109-1.263.138a18.81,18.81,0,0,1-8.036-1.234l-1.263-.527.078,14.82,6.693.405-.064,1.92Zm15.84-49.671c-4.975.745-6.193,6.425-8.407,16.737l-.7,3.243-2.123,9.248.739.28a16.4,16.4,0,0,0,7.162,1.183c.253-.019.5-.045.745-.08,6.508-.973,10.219-8.865,9.456-20.1-.259-3.825-.745-10.946-6.31-10.567-.193.012-.381.033-.562.06" transform="translate(26.517 30.476)" fill="#824ffb"/>
              <path id="Trazado_895606" data-name="Trazado 895606" d="M216.948,144.29a9.509,9.509,0,0,1-2.946-.379c-4.121-1.181-7.913-4.516-12.682-11.153l-.245-.358c-5.4-7.849-7.633-11.1-13.641-12.822a19.9,19.9,0,0,0-6.384-.755,56.623,56.623,0,0,0-6.106.64l-.646-3.942a41.9,41.9,0,0,1,5.29-.531,28.238,28.238,0,0,1,3.208.06s-.025-.08.92.066,2-1.595.667-2.321c-.356-.2-.763-.446-.763-.446-11.859-6.9-16.385-19.955-12.1-34.906C176.538,59.916,187.232,50,201.626,49.528a37.018,37.018,0,0,1,11.419,1.492C221.1,53.33,227.161,58,230.57,64.539c3.592,6.894,4.041,15.6,1.294,25.191-4.895,17.079-15.188,26.362-29.765,26.841a41.356,41.356,0,0,1-8.427-.63s-.56-.1-1-.173c-2.29-.368-2.706,1.8-.776,2.706.6.282.889.405.889.405a29.881,29.881,0,0,1,12.258,10c4.234,5.483,6.483,7.4,8.6,7.333a3.751,3.751,0,0,0,3.014-2.074l1.364-2.243a8.838,8.838,0,0,1,4.619,3.138,5.257,5.257,0,0,1,.595,4.5,6.357,6.357,0,0,1-6.283,4.753M203.422,53.913c-7.378.245-17.379,4.738-23.119,24.769-5.2,18.151-.761,30.24,12.5,34.04a20.221,20.221,0,0,0,6.255.8c10.67-.35,19.309-9.353,23.708-24.7,5.049-17.624.449-30.327-12.312-33.985a22.92,22.92,0,0,0-7.034-.928" transform="translate(179.691 52.354)" fill="#824ffb"/>
              <path id="Trazado_895607" data-name="Trazado 895607" d="M52.478,26.717A13.182,13.182,0,0,0,48.4,28.887L46.32,25.262a23.009,23.009,0,0,1,8.7-4.446c4.339-.874,6.357,1.652,6.925,6.847l1.023,10.972.473-.016,2.119-10.335C66.831,22,68.042,18.193,72.919,17.209c4.189-.844,6.633,1.438,7.185,4.181a6.126,6.126,0,0,1-2.994,6.39l-1.926-1.675c-1.066-.973-1.8-1.461-2.94-1.23-1.753.354-2.148,1.94-3.736,8.6-2.654,11.633-3.24,15-2.64,20.35l.525,6.156-6.4,1.29L55.058,29.289c-.325-2-.979-2.895-2.58-2.572" transform="translate(48.98 18.01)" fill="#824ffb"/>
              <path id="Trazado_895608" data-name="Trazado 895608" d="M127.527,61.116c-9.189,4.907-17.305,3.533-20.208-1.9-1.883-3.522-.924-6.89,2.064-8.485a8.3,8.3,0,0,1,6.549-.642l.082,3.1c.056,3.613,2.765,6.1,9.427,2.545,5.9-3.15,9.662-9,6.061-15.737-6.133-11.487-29.46,3.43-38.172-12.88-3.393-6.357-3.808-17.453,9.363-24.488,7.886-4.21,16.373-3.43,19.686,2.773a5.427,5.427,0,0,1-2.2,7.672,8.766,8.766,0,0,1-6.076.784l-.138-3.763c-.1-3.687-3.368-5.386-9.036-2.36-6.971,3.722-8.47,8.656-5.892,13.48,6.46,12.1,29.864-3.057,38.657,13.408,5.028,9.419,1.014,20.519-10.166,26.49" transform="translate(96.562 0)" fill="#824ffb"/>
              <path id="Trazado_895609" data-name="Trazado 895609" d="M138.564,144.219c-3.01.1-5.292-.59-6.781-2.047-1.588-1.553-2.374-4.057-2.335-7.446l.284-24.438-5.806.191.232-2.076,5.518-.765,2.7-12.079,2.815-.093L134.92,107.7l11.09-.364-.078,2.424-11.042.362-.377,23.825c-.012,2.745.539,4.557,1.732,5.716A5.438,5.438,0,0,0,140.382,141c2.911-.1,5.193-1.747,7.067-3.551l1.206,1.3a13.392,13.392,0,0,1-10.092,5.471" transform="translate(131.043 100.949)" fill="#824ffb"/>
              <path id="Trazado_895610" data-name="Trazado 895610" d="M81.124,13.464c3.154.8,3.728,2.872,2.788,5.5l-5,14.254c-1.084,3.193-1.127,4.448.527,4.868,1.811.459,2.928-.907,5.543-4.923L94.9,17.733l5.016,1.274-6.29,21.3c-.407,1.383-.253,2.082.833,2.358a10.1,10.1,0,0,0,3.173-.132l.274,2.823a14.908,14.908,0,0,1-6.561.261c-3.051-.776-3.73-2.874-2.541-6.259l4.81-13.532-.4-.156L86.889,36.065c-2.979,4.8-5.679,6.979-9.816,5.93-4.549-1.156-5.016-4.522-3.133-9.989L78.5,18.8c.523-1.407.51-2.236-.625-2.524a5.26,5.26,0,0,0-3.029.442l-.6-2.409a11.79,11.79,0,0,1,6.874-.841" transform="translate(77.087 14.015)" fill="#824ffb"/>
              <path id="Trazado_895611" data-name="Trazado 895611" d="M178.265,15.467c4.257,9.522,7.724,29.372-4.843,34.989-4.125,1.846-9.586,2.915-13.258-6.485L153.3,26.4c-.846-2.057-2.115-2.177-3.5-1.02l-2.331,2.109-2.5-2.693a19.86,19.86,0,0,1,6.681-5.5c3.87-1.73,6.2-.1,7.483,3.282l6.843,18.033c1.535,4.113,3.057,6.327,6.485,4.794,7.172-3.208,5.378-16.418,2.631-23.416-1.2-3.2-2.175-3.673-4.109-3.57l-2.654.2c-1.835-2.913-1.385-6.16,1.662-7.522,3.681-1.646,6.574.564,8.277,4.372" transform="translate(153.291 11.15)" fill="#824ffb"/>
              <path id="Trazado_895612" data-name="Trazado 895612" d="M146.864,37.256a5.243,5.243,0,0,1-5.7-4.779l-.451-2.778-1.255,2.518c-1.848,3.714-4.374,5.425-8.2,5.553a6.2,6.2,0,0,1-4.747-1.541c-1.352-1.329-2.014-3.543-1.969-6.582l.232-15.513A3.022,3.022,0,0,0,124,11.867a2.192,2.192,0,0,0-1.662-.59,4.075,4.075,0,0,0-1.216.245l-1.479.523-.471-1.247a15.419,15.419,0,0,1,5.674-1.615,3.727,3.727,0,0,1,2.827.831,4.033,4.033,0,0,1,.9,3.047l-.4,15.573c-.074,2.915.374,4.693,1.455,5.765a3.874,3.874,0,0,0,2.985,1.035c5.465-.179,8.263-6.829,7.872-18.723a62.243,62.243,0,0,0-.642-6.767l3.491-.535a36.722,36.722,0,0,1,.654,6.1,91.463,91.463,0,0,1-.564,12.1c-.235,2.37-.276,4.755,1.018,6.139a4.151,4.151,0,0,0,3.313,1.13c6.892-.226,9.372-12.217,9.446-17.651.021-3.059-.648-4.265-2.751-4.963l-1.514-.494A3.92,3.92,0,0,1,153.629,9,2.574,2.574,0,0,1,155.6,8.17c1.737-.056,4.065.44,4.228,5.4.309,9.372-3.6,23.381-12.964,23.689" transform="translate(126.02 8.635)" fill="#824ffb"/>
              <path id="Trazado_895613" data-name="Trazado 895613" d="M188.729,36.819c1.424-2.45,1.687-3.932.078-4.409l-1.671-.506a3.562,3.562,0,0,1,2.413-3.767,3.025,3.025,0,0,1,3.981,1.975c.889,2.58-.473,4.907-2.944,8.954l-1.714,2.808,5.936,6.15c1.527,1.588,2.193,1.874,3.253,1.508a4.871,4.871,0,0,0,2.2-1.687l1.681,1.43a8.057,8.057,0,0,1-4.325,3.761c-2.489.858-4.189.411-6.121-1.6l-5.59-5.751-2.7,4.279c-1.5,2.372-1.193,3.866.841,3.936l1.251.035a3.483,3.483,0,0,1-2.2,4.107,3.127,3.127,0,0,1-4.228-2.1c-.841-2.444-.107-4.345,2.5-8.287l2.594-3.989-5.825-5.983c-1.372-1.434-2.109-1.333-2.8-1.095a7.778,7.778,0,0,0-2.294,1.718l-1.673-2.156a12.329,12.329,0,0,1,4.714-3.376c2.257-.778,3.835-.241,5.456,1.469l5.4,5.664Z" transform="translate(181.227 29.544)" fill="#824ffb"/>
              <path id="Trazado_895614" data-name="Trazado 895614" d="M25.225,70.531,24.353,56.4,21.01,57.685l-.833-1.743,8.252-5.325.887,1.9-2.362,2.352.765,17.5,4.123,6.989,3.506-1.632.876,1.813-9.483,6.119-.879-1.811,2.52-2.257-4-7.022L9.252,66.145l-2.9,1.144-.864-1.868,9.108-5.878.9,1.846L12.94,63.666,25.09,70.62Z" transform="translate(5.802 53.525)" fill="#824ffb"/>
              <path id="Trazado_895615" data-name="Trazado 895615" d="M151.533,73.545l.87,2.463-17.856,24.161a16.763,16.763,0,0,1,3.87-.553c2.609-.086,4.821.632,6.822.566,2.245-.074,2.5-1.479,4.327-6.948l3.1-.1-1.391,11.347c-5.479,1.518-11.365-.173-16.04-.019a10.136,10.136,0,0,0-4.761,1.13l-2.222-2.905,17.727-24.337-9.343.307c-3.22.107-3.738.913-4.845,6.053l-3.15.286.52-10.042.646-.689Z" transform="translate(135.617 77.769)" fill="#824ffb"/>
            </g>
          </g>
        </g>
      </g>
    </g>
    <g id="Grupo_1103267" data-name="Grupo 1103267" transform="translate(925.051 8124.819)">
      <path id="Trazado_874920" data-name="Trazado 874920" d="M147.881,178a5.267,5.267,0,1,1,5.267-5.267A5.273,5.273,0,0,1,147.881,178m0-9.3a4.038,4.038,0,1,0,4.038,4.038,4.043,4.043,0,0,0-4.038-4.038" transform="translate(225.936 88.142)" fill="#fff"/>
      <path id="Trazado_874921" data-name="Trazado 874921" d="M5.267,56.063A5.267,5.267,0,1,0,0,50.8a5.273,5.273,0,0,0,5.267,5.267m0-9.3A4.038,4.038,0,1,1,1.229,50.8a4.043,4.043,0,0,1,4.038-4.038" transform="translate(65.041 232.344)" fill="#fff"/>
      <path id="Trazado_874922" data-name="Trazado 874922" d="M107.632,10.533A5.267,5.267,0,1,1,112.9,5.267a5.272,5.272,0,0,1-5.267,5.267m0-9.3a4.038,4.038,0,1,0,4.038,4.038,4.043,4.043,0,0,0-4.038-4.038" transform="translate(-75.607 4.878)" fill="#fff"/>
      <path id="Trazado_874923" data-name="Trazado 874923" d="M39.036,24.538a5.267,5.267,0,1,0-5.267-5.267,5.273,5.273,0,0,0,5.267,5.267m0-9.3A4.038,4.038,0,1,1,35,19.272a4.043,4.043,0,0,1,4.038-4.038" transform="translate(-24.065 212.208)" fill="#fff"/>
      <path id="Trazado_874924" data-name="Trazado 874924" d="M202.5,77.141a.615.615,0,0,1-.615-.615V70.343a.615.615,0,1,1,1.229,0v6.184a.615.615,0,0,1-.615.615" transform="translate(193.794 55.719)" fill="#fff"/>
      <path id="Trazado_874925" data-name="Trazado 874925" d="M206.8,72.844h-6.184a.615.615,0,1,1,0-1.229H206.8a.615.615,0,0,1,0,1.229" transform="translate(192.588 56.924)" fill="#fff"/>
      <path id="Trazado_874926" data-name="Trazado 874926" d="M150.795,16.364a.615.615,0,0,1-.615-.615V9.566a.615.615,0,1,1,1.229,0V15.75a.615.615,0,0,1-.614.615" transform="translate(192.628 -8.951)" fill="#fff"/>
      <path id="Trazado_874927" data-name="Trazado 874927" d="M155.091,12.067h-6.184a.615.615,0,1,1,0-1.229h6.184a.615.615,0,1,1,0,1.229" transform="translate(191.42 -7.746)" fill="#fff"/>
      <path id="Trazado_874928" data-name="Trazado 874928" d="M188.376,126.407a.615.615,0,0,1-.615-.614v-6.184a.615.615,0,1,1,1.229,0v6.184a.615.615,0,0,1-.615.614" transform="translate(184.773 87.183)" fill="#fff"/>
      <path id="Trazado_874929" data-name="Trazado 874929" d="M192.674,122.11h-6.186a.615.615,0,1,1,0-1.229h6.186a.615.615,0,1,1,0,1.229" transform="translate(183.566 88.389)" fill="#fff"/>
      <path id="Trazado_874930" data-name="Trazado 874930" d="M44.1,15.787a.615.615,0,0,0,.615-.615V8.987a.615.615,0,1,0-1.229,0v6.186a.615.615,0,0,0,.615.615" transform="translate(-40.388 208.61)" fill="#fff"/>
      <path id="Trazado_874931" data-name="Trazado 874931" d="M42.208,11.489h6.186a.615.615,0,1,0,0-1.229H42.208a.615.615,0,0,0,0,1.229" transform="translate(-41.594 209.817)" fill="#fff"/>
      <path id="Trazado_874932" data-name="Trazado 874932" d="M137.379,181.509a.615.615,0,0,1-.615-.614v-6.184a.615.615,0,0,1,1.229,0v6.184a.615.615,0,0,1-.614.614" transform="translate(222.201 92.376)" fill="#fff"/>
      <path id="Trazado_874933" data-name="Trazado 874933" d="M141.675,177.212h-6.184a.615.615,0,0,1,0-1.229h6.184a.615.615,0,0,1,0,1.229" transform="translate(220.995 93.582)" fill="#fff"/>
      <path id="Trazado_874934" data-name="Trazado 874934" d="M95.764,21.439a.615.615,0,0,1-.615-.615V14.641a.615.615,0,1,1,1.229,0v6.184a.615.615,0,0,1-.615.615" transform="translate(-80.215 13.835)" fill="#fff"/>
      <path id="Trazado_874935" data-name="Trazado 874935" d="M100.061,17.142H93.877a.615.615,0,1,1,0-1.229h6.184a.615.615,0,0,1,0,1.229" transform="translate(-81.42 15.041)" fill="#fff"/>
      <path id="Trazado_876652" data-name="Trazado 876652" d="M147.881,178a5.267,5.267,0,1,1,5.267-5.267A5.273,5.273,0,0,1,147.881,178m0-9.3a4.038,4.038,0,1,0,4.038,4.038,4.043,4.043,0,0,0-4.038-4.038" transform="translate(233.937 -121.858)" fill="#fff"/>
      <path id="Trazado_876653" data-name="Trazado 876653" d="M137.379,181.509a.615.615,0,0,1-.615-.614v-6.184a.615.615,0,0,1,1.229,0v6.184a.615.615,0,0,1-.614.614" transform="translate(230.2 -117.624)" fill="#fff"/>
      <path id="Trazado_876654" data-name="Trazado 876654" d="M141.675,177.212h-6.184a.615.615,0,0,1,0-1.229h6.184a.615.615,0,0,1,0,1.229" transform="translate(228.994 -116.418)" fill="#fff"/>
    </g>
  </g>
</svg>
