<svg xmlns="http://www.w3.org/2000/svg" xmlns:xlink="http://www.w3.org/1999/xlink" width="199.691" height="339.72" viewBox="0 0 199.691 339.72">
  <defs>
    <clipPath id="clip-path">
      <rect id="Rectángulo_403057" data-name="Rectángulo 403057" width="199.691" height="333.72" fill="none"/>
    </clipPath>
    <clipPath id="clip-path-2">
      <rect id="Rectángulo_401474" data-name="Rectángulo 401474" width="190" height="25.632" fill="#824ffb"/>
    </clipPath>
    <linearGradient id="linear-gradient" x1="0.5" x2="0.918" y2="2.27" gradientUnits="objectBoundingBox">
      <stop offset="0" stop-color="#fee3b3"/>
      <stop offset="1" stop-color="#ff84ed"/>
    </linearGradient>
  </defs>
  <g id="Grupo_1103498" data-name="Grupo 1103498" transform="translate(-810 -1421.28)">
    <g id="Grupo_1103497" data-name="Grupo 1103497">
      <g id="Grupo_1103393" data-name="Grupo 1103393" transform="translate(810 1421.28)" clip-path="url(#clip-path)">
        <path id="Trazado_899839" data-name="Trazado 899839" d="M112.491,105.041c-11.453-6.964-21.692-2.71-21.692-2.71-8.412-4.249-15.074-.4-21.23,4.5-12.121,9.657-20.019,31.848-17.622,50.96,1.331,10.61,5.761,22.589,13.9,22.315,5.65-.19,26.413-6.772,34.127-6.727s15.966,9.627,22.979,7.471,17.723-24.378,10.518-44.921c-6.472-18.454-14.6-27.009-20.977-30.887" transform="translate(-11.87 -23.157)" fill="#262549"/>
        <path id="Trazado_899840" data-name="Trazado 899840" d="M111.314,181.93s1.893,31.364,4.079,34.591-21.818,14.143-28.549,13.345-14.711-12.452-14.711-12.452,11.593-27.259,7.393-36.47,31.788.986,31.788.986" transform="translate(-16.62 -40.804)" fill="#e88461"/>
        <path id="Trazado_899841" data-name="Trazado 899841" d="M106.984,188.78C95.358,189.7,86.261,177,82.494,165.06s-6.043-54.293,19.648-54.439,26.265,27.564,25.932,40.059-5.349,36.853-21.091,38.1" transform="translate(-18.479 -25.488)" fill="#e88461"/>
        <path id="Trazado_899842" data-name="Trazado 899842" d="M116.28,209.566s-9.991,4.042-17.691-3.436" transform="translate(-22.716 -47.495)" fill="none" stroke="#262549" stroke-linecap="round" stroke-linejoin="round" stroke-width="0.618"/>
        <path id="Trazado_899843" data-name="Trazado 899843" d="M132.145,164.774c-.047,1.531-.755,2.751-1.582,2.726s-1.458-1.288-1.411-2.818.755-2.751,1.582-2.725,1.458,1.287,1.411,2.817" transform="translate(-29.758 -37.317)" fill="#262549"/>
        <path id="Trazado_899844" data-name="Trazado 899844" d="M105.848,165.111c-.047,1.531-.755,2.751-1.581,2.726s-1.458-1.288-1.411-2.818.755-2.751,1.581-2.725,1.458,1.287,1.411,2.817" transform="translate(-23.699 -37.394)" fill="#262549"/>
        <path id="Trazado_899845" data-name="Trazado 899845" d="M109.4,189.206l8.258.095s-1.565,2.477-4.041,2.559c-3.689.122-4.217-2.654-4.217-2.654" transform="translate(-25.206 -43.595)" fill="#fff"/>
        <path id="Trazado_899846" data-name="Trazado 899846" d="M121.328,175.6l.682,2.744a1.954,1.954,0,0,1-1.828,2.424l-.586.021" transform="translate(-27.556 -40.461)" fill="none" stroke="#262549" stroke-linecap="round" stroke-linejoin="round" stroke-width="0.618"/>
        <path id="Trazado_899847" data-name="Trazado 899847" d="M107.794,155.646s-5.577-1.435-9.268,1.9Z" transform="translate(-22.701 -35.792)" fill="#262549"/>
        <path id="Trazado_899848" data-name="Trazado 899848" d="M127.06,155.416a9.273,9.273,0,0,1,8.629,1.162Z" transform="translate(-29.276 -35.677)" fill="#262549"/>
        <path id="Trazado_899849" data-name="Trazado 899849" d="M118.246,124S110.68,140.89,99.37,146.612c-16.29,8.243-27.5,6.834-27.5,6.834l4.378-33.053S87.7,107.642,92.632,107.144s16.221,1.572,18.068,1.889,8.45,6.414,8.45,6.414Z" transform="translate(-16.561 -24.669)" fill="#262549"/>
        <path id="Trazado_899850" data-name="Trazado 899850" d="M129.924,125.448s8.4,10.727,7.8,30.348,11.048,2.013,11.048,2.013-1.629-17.457-2.056-18.34-12.062-19.551-12.062-19.551l-8.509-6.562s-4.147,1.786-3.527,2.957,7.3,9.135,7.3,9.135" transform="translate(-28.239 -26.118)" fill="#262549"/>
        <path id="Trazado_899851" data-name="Trazado 899851" d="M132.129,126.673a12.38,12.38,0,0,0,.435-8" transform="translate(-30.444 -27.343)" fill="none" stroke="#fff" stroke-linecap="round" stroke-linejoin="round" stroke-width="0.778"/>
        <path id="Trazado_899852" data-name="Trazado 899852" d="M81.285,166.384s-7.864-2.572-8.262,4.137,10.162,12.49,10.162,12.49Z" transform="translate(-16.823 -38.225)" fill="#e88461"/>
        <path id="Trazado_899853" data-name="Trazado 899853" d="M79.953,171.474s-6.9-.765,1.03,6.733Z" transform="translate(-17.781 -39.505)" fill="#262549"/>
        <path id="Trazado_899854" data-name="Trazado 899854" d="M111.491,127.091s-4.21,17.039-20.48,20" transform="translate(-20.97 -29.283)" fill="none" stroke="#fff" stroke-linecap="round" stroke-linejoin="round" stroke-width="0.778"/>
        <path id="Trazado_899855" data-name="Trazado 899855" d="M96.162,141.836s-5.685,6.832-14.76,6.479" transform="translate(-18.756 -32.681)" fill="none" stroke="#fff" stroke-linecap="round" stroke-linejoin="round" stroke-width="0.778"/>
        <path id="Trazado_899856" data-name="Trazado 899856" d="M152.525,275.5c-.343,20.4-10.51,57.033-7.3,93.754H46.308c-2.928-.493-4.6-.8-4.6-.8S36.8,334.411,35.4,315.213s-9.019-72.391-9.019-72.391l32.41-13.052s5.737,7.593,32.281-.7,24.431-9.631,24.431-9.631,6.445-2.295,27-3.389c0,0,10.371,38.962,10.017,59.446" transform="translate(-6.079 -49.781)" fill="#5d56d5"/>
        <path id="Trazado_899857" data-name="Trazado 899857" d="M110.878,208.277s13.316,7.858,14.872,9.317,1.986,10.476,1.986,10.476l-57.2,9.621-4.655-8.419s5.947-14.207,8.607-14.675c0,0,12.266,6.965,26.192,4.083s10.2-10.4,10.2-10.4" transform="translate(-15.18 -47.989)" fill="#5d56d5"/>
        <path id="Trazado_899858" data-name="Trazado 899858" d="M65.882,232.062s10.079,13.926,39.07,7.133c22.18-5.2,20.8-18.811,20.8-18.811" transform="translate(-15.18 -50.779)" fill="none" stroke="#262549" stroke-linecap="round" stroke-linejoin="round" stroke-width="0.618"/>
        <path id="Trazado_899859" data-name="Trazado 899859" d="M175.193,216.047s19.72.151,23.517,25.467c2.97,19.8,7.343,45.662,12.791,60.978s16.976,52.583-3.578,58.226c-28.847,7.918-39-43.78-39.595-44.968s1.688-79.663,1.688-79.663Z" transform="translate(-38.762 -49.78)" fill="#5d56d5"/>
        <path id="Trazado_899860" data-name="Trazado 899860" d="M108.315,347.808s2.8-12.874,5.369-16.742,9.234-11.372,10.9-13.274,6.3-4.457,9.59-6.224,13.463-3.857,18.645-3.348,11.7,2.725,7.37,5.693c0,0,1.165,2.874-3.067,3.248s-7.3-1.366-10.164-.812-9.977,2.6-9.977,2.6a77.353,77.353,0,0,1,7.819,3.565s7.333-2.757,9.063-2.723,5.509,1.992,3.136,3.574a32.863,32.863,0,0,1-6.114,2.883s3.578,1.852.794,3.629-8.1.095-8.1.095-2.325,4.332-5.32,6.512c0,0,4.411,3.446,3.525,4.5s-2.746,2.44-7.072-.19a28.173,28.173,0,0,1-6.217,5.578s-16.6,2.777-20.185,1.435" transform="translate(-24.957 -71)" fill="#e88461"/>
        <path id="Trazado_899861" data-name="Trazado 899861" d="M141.73,322.187s-9.107-.23-12.8,1.325" transform="translate(-29.706 -74.233)" fill="none" stroke="#262549" stroke-linecap="round" stroke-linejoin="round" stroke-width="0.618"/>
        <path id="Trazado_899862" data-name="Trazado 899862" d="M169.217,314.6c-.349-.363-7.767-3.614-11.333-3.481s-10.386.1-10.386.1" transform="translate(-33.985 -71.684)" fill="none" stroke="#262549" stroke-linecap="round" stroke-linejoin="round" stroke-width="0.618"/>
        <line id="Línea_567" data-name="Línea 567" x2="6.085" y2="3.734" transform="translate(119.843 251.519)" fill="none" stroke="#262549" stroke-linecap="round" stroke-linejoin="round" stroke-width="0.618"/>
        <path id="Trazado_899863" data-name="Trazado 899863" d="M148.7,335.513a49.144,49.144,0,0,0-6.5-3.233c-1.973-.6-11.685,1.449-11.685,1.449s9.163,5.067,12.867,8.3" transform="translate(-30.071 -76.536)" fill="none" stroke="#262549" stroke-linecap="round" stroke-linejoin="round" stroke-width="0.618"/>
        <path id="Trazado_899864" data-name="Trazado 899864" d="M138.566,349.19s-7.448-4.32-12.023-4.614a3.069,3.069,0,0,0-1.528,2.667" transform="translate(-28.805 -79.394)" fill="none" stroke="#262549" stroke-linecap="round" stroke-linejoin="round" stroke-width="0.618"/>
        <path id="Trazado_899865" data-name="Trazado 899865" d="M111.385,390.4s3.993-1.289-1.745-16.59-16.939,4.464-16.62,5.041,7.51,9.78,7.51,9.78Z" transform="translate(-21.431 -84.794)" fill="#262549"/>
        <path id="Trazado_899866" data-name="Trazado 899866" d="M108.1,351.661,98.481,357,95.6,384.548s15.425-12.5,19.912-16.273,10.509-12.155,10.509-12.155Z" transform="translate(-22.027 -81.027)" fill="#e88461"/>
        <path id="Trazado_899867" data-name="Trazado 899867" d="M236.8,311.449l-6.1-5.369s9.37-9.03,3.156-13.756c0,0-7.012,2.244-11.611,6.1s-12.228,9.59-12.228,9.59l11.425,4.935Z" transform="translate(-48.391 -67.354)" fill="#e88461"/>
        <path id="Trazado_899868" data-name="Trazado 899868" d="M233.017,265.278l-37.441,54.7a.938.938,0,0,1-.607.394L149.9,328.578a.94.94,0,0,1-.944-1.456l38.281-55.911a4.2,4.2,0,0,1,2.909-1.79l41.97-5.6a.94.94,0,0,1,.9,1.463" transform="translate(-34.283 -60.784)" fill="#262549"/>
        <path id="Trazado_899869" data-name="Trazado 899869" d="M234.044,266.733l-37.441,54.7a.938.938,0,0,1-.607.394l-45.068,8.207a.94.94,0,0,1-.944-1.456l38.281-55.911a4.2,4.2,0,0,1,2.909-1.79l41.97-5.6a.94.94,0,0,1,.9,1.463" transform="translate(-34.519 -61.119)" fill="#262549"/>
        <path id="Trazado_899870" data-name="Trazado 899870" d="M205.51,278.448a1.231,1.231,0,1,1-.236-1.961,1.426,1.426,0,0,1,.236,1.961" transform="translate(-46.819 -63.678)" fill="#fff"/>
        <path id="Trazado_899871" data-name="Trazado 899871" d="M230.64,348.16s-.322-4.492-11.365-1.959-2.09,20.446-1.391,20.238,8.544-4.154,8.544-4.154l3.2-6.263Z" transform="translate(-49.261 -79.59)" fill="#262549"/>
        <path id="Trazado_899872" data-name="Trazado 899872" d="M226.573,349.857l-4.956-16.465-17.771,2.326s-4.132,20.066-3.746,20.9,12.337,11.208,13.4,10.973,10.477-5.973,10.477-5.973Z" transform="translate(-46.099 -76.817)" fill="#e88461"/>
        <path id="Trazado_899873" data-name="Trazado 899873" d="M199.641,353.852s-2.044,3.263-1.771,9.452c0,0-.389,6.1.45,8.679,2.849,8.746,8.529,21.495,18.3,18.653s15.627-16.122,13.309-27.928c0,0-2.747-9.9-2.976-13.729,0,0-2.22,12.367-11.985,14.7s-15.324-9.825-15.324-9.825" transform="translate(-45.571 -80.409)" fill="#5d56d5"/>
        <path id="Trazado_899874" data-name="Trazado 899874" d="M229.4,365.5c-.335.223-4.493,10.444-15.426,10s-14.183-8.285-14.183-8.285" transform="translate(-46.034 -84.215)" fill="none" stroke="#262549" stroke-linecap="round" stroke-linejoin="round" stroke-width="0.618"/>
        <line id="Línea_568" data-name="Línea 568" x1="4.597" y2="14.747" transform="translate(149.385 276.144)" fill="none" stroke="#262549" stroke-linecap="round" stroke-linejoin="round" stroke-width="0.618"/>
        <path id="Trazado_899875" data-name="Trazado 899875" d="M227.428,303.021s7.256,3.546,6.516,7.254a9.962,9.962,0,0,1-3.978,5.807s2.965,5.011-3,7.637c0,0-.352,6.014-7.913,6.078,0,0-3.158,3.758-6.108,3.328s-15.278-4.031-16.482-5.974a1.322,1.322,0,0,1-.361-1.659s-3.341-1.33-3.419-3.832,3.573-1.648,3.573-1.648-3.726-4.2-2.794-6.191,14.331,1.162,14.331,1.162-8.7-5.644-4.648-6.7,10.088.785,15.769-.717a18.831,18.831,0,0,0,8.513-4.545" transform="translate(-44.396 -69.819)" fill="#e88461"/>
        <path id="Trazado_899876" data-name="Trazado 899876" d="M212.318,318.566a28.565,28.565,0,0,0,9.5.98c5.116-.38,10.85-.589,10.85-.589" transform="translate(-48.92 -73.401)" fill="none" stroke="#262549" stroke-linecap="round" stroke-linejoin="round" stroke-width="0.618"/>
        <path id="Trazado_899877" data-name="Trazado 899877" d="M197.328,325.1s10.22,3.737,15.166,3.975a126.534,126.534,0,0,0,12.958-.444" transform="translate(-45.467 -74.907)" fill="none" stroke="#262549" stroke-linecap="round" stroke-linejoin="round" stroke-width="0.618"/>
        <path id="Trazado_899878" data-name="Trazado 899878" d="M223.171,337.492s-8.095.147-12.617-1.073" transform="translate(-48.514 -77.515)" fill="none" stroke="#262549" stroke-linecap="round" stroke-linejoin="round" stroke-width="0.618"/>
        <path id="Trazado_899879" data-name="Trazado 899879" d="M3.655,302.575C1.021,259.155,20.3,250.832,20.3,250.832c3.355,4.815,17.905,42.842,20.014,64.072s-1.5,31.477-1.5,31.477a11.13,11.13,0,0,1,6.043-1.995,25.5,25.5,0,0,1,7.261.747,108.925,108.925,0,0,0,12.332-5.954c5.788-3.343,14.925-7.382,14.925-7.382-3.9,2.964-2.661,10.662.789,20.567S89.953,363.4,89.953,363.4c-9.8,3.151-21.721,11.4-21.721,11.4-4.39,4.539-37.18,18.843-57.595,16.443a9.408,9.408,0,0,1-6.7-3.749c-9.612-12.589,1.618-53.624-.288-84.922" transform="translate(0 -57.794)" fill="#5d56d5"/>
        <path id="Trazado_899880" data-name="Trazado 899880" d="M44.8,290.135c4.132,12.4,4.405,24.9,4.214,36.2-.362,21.331.13,29.105.13,29.105a11.129,11.129,0,0,1,6.042-1.995,25.523,25.523,0,0,1,7.262.746,109,109,0,0,0,12.332-5.953c5.788-3.343,14.925-7.382,14.925-7.382" transform="translate(-10.321 -66.85)" fill="none" stroke="#262549" stroke-linecap="round" stroke-linejoin="round" stroke-width="0.618"/>
        <path id="Trazado_899881" data-name="Trazado 899881" d="M67.72,373.366a42.33,42.33,0,0,0,12.985,30.7" transform="translate(-15.6 -86.028)" fill="none" stroke="#262549" stroke-linecap="round" stroke-linejoin="round" stroke-width="0.618"/>
        <path id="Trazado_899882" data-name="Trazado 899882" d="M43.01,374.988S25.362,378.827,18.2,386.564" transform="translate(-4.193 -86.401)" fill="none" stroke="#262549" stroke-linecap="round" stroke-linejoin="round" stroke-width="0.618"/>
        <path id="Trazado_899883" data-name="Trazado 899883" d="M26.613,21.333V84.759L55.636,66.5h95.9a33.248,33.248,0,1,0,0-66.5H47.977A21.349,21.349,0,0,0,26.613,21.333" transform="translate(-6.132)" fill="#9f9fe6"/>
        <path id="Trazado_899884" data-name="Trazado 899884" d="M91.875,54.863H58.457a17.63,17.63,0,1,1,0-35.26H91.875a17.63,17.63,0,0,1,0,35.26" transform="translate(-9.407 -4.517)" fill="#fff"/>
        <path id="Trazado_899885" data-name="Trazado 899885" d="M70.537,35.114a3.772,3.772,0,1,1-3.772-3.772,3.772,3.772,0,0,1,3.772,3.772" transform="translate(-14.514 -7.222)" fill="#5d56d5"/>
        <path id="Trazado_899886" data-name="Trazado 899886" d="M87.4,42.636a3.772,3.772,0,1,1-3.772-3.772A3.772,3.772,0,0,1,87.4,42.636" transform="translate(-18.401 -8.955)" fill="#5d56d5"/>
        <path id="Trazado_899887" data-name="Trazado 899887" d="M105.641,47.651a3.772,3.772,0,1,1-3.772-3.772,3.772,3.772,0,0,1,3.772,3.772" transform="translate(-22.603 -10.11)" fill="#5d56d5"/>
      </g>
      <path id="Trazado_902019" data-name="Trazado 902019" d="M8.351-5.238H3.569V-2H9.181V0h-8.1V-12.086H9.164v2.017H3.569v2.88H8.351ZM13.016,0H10.608V-12.75h2.407ZM22.96-1.768a1.573,1.573,0,0,0,1.079-.365,1.28,1.28,0,0,0,.432-.971h2.25a3.077,3.077,0,0,1-.5,1.673A3.286,3.286,0,0,1,24.882-.253,4.2,4.2,0,0,1,23,.166a3.9,3.9,0,0,1-3.038-1.224,4.845,4.845,0,0,1-1.112-3.383V-4.6a4.79,4.79,0,0,1,1.1-3.312,3.854,3.854,0,0,1,3.03-1.237,3.778,3.778,0,0,1,2.7.959A3.4,3.4,0,0,1,26.72-5.636h-2.25a1.635,1.635,0,0,0-.432-1.133,1.443,1.443,0,0,0-1.1-.436,1.446,1.446,0,0,0-1.266.61,3.532,3.532,0,0,0-.427,1.98v.249a3.576,3.576,0,0,0,.423,1.992A1.464,1.464,0,0,0,22.96-1.768ZM30.431-8a2.994,2.994,0,0,1,2.4-1.146q2.922,0,2.963,3.4V0h-2.4V-5.686a1.669,1.669,0,0,0-.332-1.141,1.423,1.423,0,0,0-1.1-.369,1.633,1.633,0,0,0-1.527.813V0h-2.4V-12.75h2.4ZM42.807,0a2.664,2.664,0,0,1-.241-.805A2.9,2.9,0,0,1,40.3.166,3.189,3.189,0,0,1,38.113-.6a2.456,2.456,0,0,1-.867-1.926A2.538,2.538,0,0,1,38.3-4.715a5.222,5.222,0,0,1,3.059-.772h1.1V-6a1.48,1.48,0,0,0-.32-1,1.257,1.257,0,0,0-1.009-.374,1.429,1.429,0,0,0-.95.291.987.987,0,0,0-.344.8h-2.4a2.41,2.41,0,0,1,.481-1.444A3.182,3.182,0,0,1,39.288-8.77a4.961,4.961,0,0,1,1.976-.378,3.92,3.92,0,0,1,2.635.834,2.918,2.918,0,0,1,.975,2.345v3.893a4.294,4.294,0,0,0,.357,1.934V0ZM40.823-1.668a2.066,2.066,0,0,0,.979-.237,1.554,1.554,0,0,0,.664-.635V-4.084h-.9q-1.8,0-1.917,1.245l-.008.141a.96.96,0,0,0,.315.739A1.225,1.225,0,0,0,40.823-1.668Zm8.766-9.521v2.208h1.536v1.76H49.589v4.482a1.07,1.07,0,0,0,.191.714.959.959,0,0,0,.73.216,3.826,3.826,0,0,0,.706-.058V-.05a4.939,4.939,0,0,1-1.453.216A2.29,2.29,0,0,1,47.19-2.382V-7.222H45.878v-1.76H47.19v-2.208Z" transform="translate(917.028 1460.471)" fill="#fff"/>
    </g>
    <g id="Grupo_1103396" data-name="Grupo 1103396" transform="translate(810 1735.368)">
      <g id="Grupo_1099664" data-name="Grupo 1099664" clip-path="url(#clip-path-2)">
        <path id="Trazado_879587" data-name="Trazado 879587" d="M0,0H190V25.632H0Z" transform="translate(0)" fill="url(#linear-gradient)"/>
      </g>
    </g>
  </g>
</svg>
