<svg xmlns="http://www.w3.org/2000/svg" xmlns:xlink="http://www.w3.org/1999/xlink" width="1320" height="507" viewBox="0 0 1320 507">
  <defs>
    <linearGradient id="linear-gradient" y1="0.483" x2="1" y2="0.5" gradientUnits="objectBoundingBox">
      <stop offset="0" stop-color="#f8e"/>
      <stop offset="1" stop-color="#824ffb"/>
    </linearGradient>
    <clipPath id="clip-path">
      <path id="Trazado_879146" data-name="Trazado 879146" d="M19,0H1301a19,19,0,0,1,19,19V488a19,19,0,0,1-19,19H19A19,19,0,0,1,0,488V19A19,19,0,0,1,19,0Z" transform="translate(140.333 71)" fill="url(#linear-gradient)"/>
    </clipPath>
    <clipPath id="clip-path-2">
      <rect id="Rect치ngulo_401400" data-name="Rect치ngulo 401400" width="413.331" height="302.322" fill="#824ffb"/>
    </clipPath>
    <linearGradient id="linear-gradient-3" x1="0.152" y1="0.058" x2="0.892" y2="0.936" gradientUnits="objectBoundingBox">
      <stop offset="0" stop-color="#fee3b3"/>
      <stop offset="1" stop-color="#ff84ed"/>
    </linearGradient>
    <clipPath id="clip-path-4">
      <rect id="Rect치ngulo_401400-3" data-name="Rect치ngulo 401400" width="413.331" height="302.322" fill="#ff84ed"/>
    </clipPath>
    <linearGradient id="linear-gradient-4" x1="0.152" y1="0.058" x2="0.892" y2="0.936" gradientUnits="objectBoundingBox">
      <stop offset="0" stop-color="#7dc8ff"/>
      <stop offset="1" stop-color="#fee3b3"/>
    </linearGradient>
  </defs>
  <g id="Grupo_1103496" data-name="Grupo 1103496" transform="translate(-140.333 -71)">
    <path id="Trazado_876641" data-name="Trazado 876641" d="M19,0H1301a19,19,0,0,1,19,19V488a19,19,0,0,1-19,19H19A19,19,0,0,1,0,488V19A19,19,0,0,1,19,0Z" transform="translate(140.333 71)" fill="url(#linear-gradient)"/>
    <g id="Enmascarar_grupo_1098700" data-name="Enmascarar grupo 1098700" clip-path="url(#clip-path)">
      <g id="Grupo_1099611" data-name="Grupo 1099611" transform="translate(252 21)">
        <path id="Trazado_879304" data-name="Trazado 879304" d="M484.507,390.554a1.163,1.163,0,0,1-.588-.165,2.039,2.039,0,0,1-.683-2.381c8.6-23.84,15.389-42.669,5.329-73.958-5.894-18.324,3.19-34.4,11.975-49.943,3.94-6.976,8.018-14.188,10.668-21.494,7.128-19.629,10.106-44.545,8.172-68.363-2.622-32.247-15.56-62.829-35.5-83.907-29.48-31.163-76.491-44.351-125.76-35.27-4.534.836-9.146,1.851-13.6,2.83-13.64,3-27.748,6.1-42.051,4.67-21.247-2.13-40.719-13.927-59.548-25.332-5.692-3.447-11.578-7.012-17.4-10.236C188.214,6.335,149.786-.988,117.314,6.371c-42.508,9.637-73.6,45.524-77.37,89.3-.781,9.063,2.368,21.311,5.7,34.277,4.136,16.1,8.413,32.734,5.029,44.348-1.816,6.237-6.837,15.906-13.2,28.144C23.383,229.576,2.085,270.588,2.819,303.147c.993,44.269,9.666,58.977,22.792,81.242l1.939,3.292a2.146,2.146,0,0,1-.277,2.511,1.2,1.2,0,0,1-1.959-.352l-1.934-3.289c-12.969-22-22.338-37.892-23.36-83.3-.758-33.7,19.982-73.643,35.128-102.8,6.009-11.57,11.2-21.562,12.9-27.412,3.039-10.433-1.08-26.465-5.065-41.97-3.428-13.349-6.669-25.956-5.821-35.794C41.07,49.9,73.083,12.755,116.827,2.838c33-7.478,72-.065,109.8,20.874C232.5,26.958,238.4,30.537,244.118,34c18.6,11.269,37.834,22.918,58.569,25,13.968,1.413,27.891-1.661,41.36-4.627,4.475-.986,9.107-2,13.674-2.848,50.033-9.228,97.861,4.257,127.943,36.052,20.5,21.673,33.8,53.131,36.5,86.3,1.987,24.446-1.083,50.05-8.418,70.25-2.762,7.614-6.918,14.97-10.94,22.086-8.715,15.426-16.951,29.994-11.653,46.471,10.528,32.738,3.16,53.171-5.373,76.831a1.42,1.42,0,0,1-1.27,1.04" transform="matrix(-0.809, -0.588, 0.588, -0.809, 1084.712, 387.569)" fill="#f3eeff"/>
        <path id="Trazado_879303" data-name="Trazado 879303" d="M709.816,553.355a1.141,1.141,0,0,1-.66-.215,2.062,2.062,0,0,1-.571-2.424,205.608,205.608,0,0,0,12.91-45c5.054-30.1,1.257-56.954-2.765-85.385-1.9-13.464-3.873-27.383-4.864-41.812-2.082-30.4,3.705-56.807,9.829-84.761,2.317-10.58,4.713-21.519,6.644-32.681,5.757-33.283,4.447-73.244-3.591-109.637-10.881-49.279-36.015-92.106-68.96-117.488-48.6-37.451-117.994-40.442-185.613-8-6.221,2.984-12.507,6.273-18.583,9.454-18.549,9.7-37.728,19.74-58.16,22.821-30.37,4.573-60.382-6.452-89.417-17.119-8.8-3.231-17.9-6.571-26.824-9.407C221.9,13.5,165.966,16.429,121.7,39.956c-58.113,30.88-94.211,98.483-89.826,168.22.778,12.366,2.793,24.919,4.738,37.06,3.288,20.494,6.689,41.683,4.279,62.732C38.471,329.039,31,348.188,23.773,366.7c-4.411,11.308-8.975,23-12.314,34.965C.323,441.577-2.509,505.228,17.585,550.68a2.08,2.08,0,0,1-.526,2.442,1.248,1.248,0,0,1-1.909-.678C-5.377,506.017-2.52,441.115,8.826,400.461c3.395-12.169,8-23.962,12.445-35.363,7.128-18.263,14.5-37.149,16.847-57.65,2.34-20.422-1.007-41.3-4.248-61.491-1.965-12.244-4-24.9-4.788-37.494C24.6,137.17,61.389,68.118,120.626,36.642,165.443,12.824,222,9.837,279.862,28.218c8.981,2.851,18.1,6.2,26.922,9.443,28.772,10.57,58.507,21.5,88.32,17,20.055-3.023,39.054-12.965,57.427-22.581,6.1-3.188,12.4-6.488,18.658-9.49C539.607-10.234,609.9-7.132,659.232,30.871c33.547,25.852,59.137,69.439,70.211,119.59,8.158,36.945,9.479,77.545,3.63,111.387-1.948,11.258-4.355,22.247-6.683,32.874-6.053,27.631-11.774,53.73-9.736,83.48.979,14.264,2.936,28.1,4.83,41.482,4.072,28.793,7.92,55.986,2.745,86.784a209.722,209.722,0,0,1-13.181,45.94,1.388,1.388,0,0,1-1.231.947" transform="matrix(-0.809, -0.588, 0.588, -0.809, 1070.783, 578.687)" fill="#f3eeff"/>
      </g>
      <g id="Grupo_1099581" data-name="Grupo 1099581" transform="translate(593.335 388.345)" opacity="0.13">
        <path id="Trazado_878963" data-name="Trazado 878963" d="M50.007,168.286l5.5-3.718L50.161,104.09l7.016-4.251,39.221,45.8,6.726-2.1.65,2.025L83.6,154.96l-.644-2,6.421-4.249L77.945,134.869l-20.762,9.668,1.833,18.313,8.063-2.524.65,2.024L50.655,170.3Zm3.364-60.279,3.419,33.38,19.128-8.9-20.7-25.337Z" transform="translate(52.879 105.573)" fill="#824ffb"/>
        <g id="Grupo_1099515" data-name="Grupo 1099515">
          <g id="Grupo_1099514" data-name="Grupo 1099514" clip-path="url(#clip-path-2)">
            <path id="Trazado_878964" data-name="Trazado 878964" d="M32.652,143.94l.107-33.182-4.528-.9.218-2.506,8.036-.263.817.523-.053,16.542-.963,11.773.4.088,1.619-6.95c1.572-6.9,3.72-9.966,8.312-10.116,5.189-.171,7.623,3.9,7.839,10.485.342,10.382-4.611,16.241-11.849,16.48a23.842,23.842,0,0,1-9.958-1.971m6.627-8.164-1.5,6a10.376,10.376,0,0,0,4.679.946c4.64-.154,7.156-5.732,6.923-12.771-.093-2.843-.29-7.335-3.436-7.232-3.642.119-4.45,4.444-6.664,13.061" transform="translate(29.853 113.238)" fill="#824ffb"/>
            <path id="Trazado_878965" data-name="Trazado 878965" d="M58.523,66.16a3.956,3.956,0,0,1-.444,5.872,4.535,4.535,0,0,1-4.969.457l.025-2.074c.144-3.734-2.73-3.432-5.137-1.457-4.522,3.705-3.74,9.968,2.383,17.439,3.829,4.668,8.662,6.952,12.641,3.689,3.094-2.537,3.337-6.351,3.621-9.215l3.347.377c.111,2.539-.031,8.985-5.043,13.094-6.388,5.238-13.818,3.193-19.459-3.685-6.929-8.454-7.386-18.433.183-24.64,4.323-3.545,9.549-3.887,12.853.144" transform="translate(42.446 66.88)" fill="#824ffb"/>
            <path id="Trazado_878966" data-name="Trazado 878966" d="M87.1,94.738a46.132,46.132,0,0,1-13.931-1.9L57.794,88.51l.442-1.113,7.016.833L79.876,43.8l-6.063-3.059.527-1.259,19.338,5.442c7.135,2.008,12.6,5.395,15.805,9.8,3.654,5.016,4.446,11.33,2.352,18.766C107.985,87.175,99.663,94.326,87.1,94.738m-17.11-4.732,3.158.889a36.912,36.912,0,0,0,11.083,1.535c10.859-.358,18.2-7.036,21.8-19.852,5.082-18.062-6.744-24.3-14.246-26.411l-6.942-1.955Z" transform="translate(61.114 41.747)" fill="#824ffb"/>
            <path id="Trazado_878967" data-name="Trazado 878967" d="M165.027,98.135c5.432,5.736,2.146,12.606-1.354,18l-4.14,6.491c3.621,3.2,9.151,5.38,13.375,1.381,3.078-2.913,3.389-6.969,3.568-9.709l3.849.411a17.558,17.558,0,0,1-5.164,14.186c-6.777,6.421-15.466,4.559-22.233-2.586-8.542-9.022-9.812-20.183-1.992-27.59,5.372-5.088,10.287-4.6,14.089-.582m-11.643,4.1c-3.965,3.755-2.767,10.137,3.187,17.258l3.506-5.594c2.759-4.395,3.15-7.434-.062-10.824-1.924-2.033-4.442-2.913-6.631-.839" transform="translate(154.108 100.469)" fill="#824ffb"/>
            <path id="Trazado_878968" data-name="Trazado 878968" d="M134.406,81.021,131.289,87.9l10.279,4-2.1,4.491L129.5,92.514l-10.433,23.87c-3.823,8.695-9.816,17.153-15.869,20.626-2.724,1.636-5.5,2.037-7.911,1.095-3.024-1.179-4.4-3.454-3.64-5.855a9.158,9.158,0,0,1,3.924-4.477l2.718,2.625c2.2,2.162,4.642,2.156,6.569-1.444,1.271-2.376,2.232-4.615,3.59-7.654l13.645-31.672-6.423-2.5,2.121-3.876L124.064,85l1.671-3.615c4.3-9.462,12.234-14.641,21.906-10.872,4.759,1.854,9.952,6.4,7.508,12.67a4.578,4.578,0,0,1-6.376,2.743,5.8,5.8,0,0,1-3.465-3.615l1.58-1.821c2.609-2.9,2.152-5.08-1.173-6.376-4.911-1.913-8.857,1.51-11.308,6.907" transform="translate(96.689 73.254)" fill="#824ffb"/>
            <path id="Trazado_878969" data-name="Trazado 878969" d="M117.358,56.668l-.7,5.415c-1.251,9.077-3.2,13.308-9.318,14.106-6.876.9-10.526-4.977-11.505-12.48-1.537-11.793,3.257-20.755,12.211-21.922a22.666,22.666,0,0,1,8.205.467l2.7-1.955,2.1.368L123.6,68.1c.938,10.137-2.109,20.22-14.6,21.848-4.6.6-9.987-.364-10.588-4.967-.37-2.839,1.222-4.907,3.617-5.22a5.1,5.1,0,0,1,3.942,1.218l-.337,1.841c-.646,2.905.535,4.1,3.94,3.654,6.559-.856,9.172-7.353,8.767-17.369l-.533-12.435ZM114.6,54.205l1.086-7.9a15.391,15.391,0,0,0-6.3-.588c-5.927.774-8.318,8.012-7.152,16.966.444,3.405,1.352,9.38,5.641,8.82,4.413-.576,5.119-5.991,6.722-17.295" transform="translate(101.035 42.614)" fill="#824ffb"/>
            <path id="Trazado_878970" data-name="Trazado 878970" d="M133.375,64.369l-3.5,20.229,7.182,1.985-.971,3.712-21.336-2.866.971-3.712,6.362-.086,7.709-43.972-6.372-2.189.959-3.635,20.795,2.794-.967,3.712-6.713.352-3.206,18.624,23.105,3.1,3.284-18.612-6.37-2.189.957-3.635,20.72,2.784-.967,3.712-6.713.352-7.623,43.906,7.182,1.983-.967,3.714-21.336-2.866.967-3.712,6.376-.165,3.578-20.218Z" transform="translate(121.342 35.778)" fill="#824ffb"/>
            <path id="Trazado_878971" data-name="Trazado 878971" d="M65.561,95.811a11.5,11.5,0,0,0-3.837,1.144l-1.117-3.012a15.955,15.955,0,0,1,7.543-2.471c3.551-.117,5.339,2.047,5.183,7.006l-.8,20.035c-.066,1.846.154,2.726,1.549,2.681,1.333-.043,2.508-1.037,3.681-2.027l1.611,2.551a11.88,11.88,0,0,1-7.754,3.749c-4.185.138-5.343-2.238-5.335-5.794l.951-21.313c.01-1.65-.212-2.6-1.671-2.549m3.5-19.169a4.079,4.079,0,0,1,4.391,4.175,4.284,4.284,0,1,1-4.391-4.175" transform="translate(64.088 81.04)" fill="#824ffb"/>
            <path id="Trazado_878972" data-name="Trazado 878972" d="M92.252,181.516c-1.739,2.251-3.884,3.759-6.454,3.843-3.249.107-4.967-1.5-5.2-3.837a8.124,8.124,0,0,1,1.728-5.051l3.294,1.253c2.6.973,4.769.146,5.1-3.648.218-2.5.218-4.849.267-7.952l.235-29.666c.006-2.043-.329-3.09-1.99-3.037a14.206,14.206,0,0,0-4.648,1.364L83.259,131.2a19.27,19.27,0,0,1,8.981-2.942c4.232-.14,6.368,2.59,6.183,8.5l-.121,21.64c-.027,8.324-2.348,18.311-6.049,23.124m.619-70.91a4.864,4.864,0,0,1,5.234,4.971,5.105,5.105,0,1,1-10.2.414,4.983,4.983,0,0,1,4.967-5.384" transform="translate(85.214 116.956)" fill="#824ffb"/>
            <path id="Trazado_878973" data-name="Trazado 878973" d="M107.771,104.621l1.1-2.917,9.684,2.395.8.9-8.03,27.055a25.032,25.032,0,0,0,10.349-1.588c2.806-1.031,3.705-2.594,2.259-3.975l-1.43-1.438a4.787,4.787,0,0,1,5.658-3,4.16,4.16,0,0,1,3.016,5.341c-.788,3.187-3.144,4.712-8.008,6.316a39.457,39.457,0,0,1-4.565,1.169l3.531,12.042c.85,2.765,1.483,4.07,3.045,4.456a6.157,6.157,0,0,0,3.459-.294l.8,2.687a10.8,10.8,0,0,1-7.466,1.027c-3.308-.819-4.335-3.115-5.321-6.36l-3.533-12.808-2.825.066-4.232,14.272-5.413-1.339,12.219-41.4Z" transform="translate(106.433 107.546)" fill="#824ffb"/>
            <path id="Trazado_878974" data-name="Trazado 878974" d="M161.848,114.338l4.753-2.992L152.32,73.535l-5.681,1.183-.448-1.566,16.322-6.958.43,1.51-6.074,3.852,14.336,37.968,9.841-4.2c4.08-1.739,5.23-3.9,4.732-8.888l-.294-2.94,2.111-.9,3.094,11.139L162.28,115.846Z" transform="translate(154.588 69.996)" fill="#824ffb"/>
            <path id="Trazado_878975" data-name="Trazado 878975" d="M49.817,131.9l-7.763,3.777L13.476,91.735,23.3,135.054l7.244-1,.679,3.948L12.5,143.648,11.82,139.7l6.045-3.008L7.584,91.3l-6.927.646L0,88.081l17.33-5.222,27.333,42.624.955-51.144,17.1-5.15.7,4.026-5.631,2.967,14.966,44.06,7.532-1.167.681,3.95-21.214,6.39-.681-3.95,6.069-2.93L50.753,79.571Z" transform="translate(0 73.163)" fill="#824ffb"/>
            <path id="Trazado_878976" data-name="Trazado 878976" d="M179.635,71.7c-3.537.117-4.685-1.846-4.553-4.761l.9-16.243c.165-3.66-.389-4.841-2.158-4.781-2.224.074-2.909,1.806-4.349,6.6L163.7,71.423l-5.532.181.134-23.755c0-1.543-.416-2.214-1.557-2.175a10.3,10.3,0,0,0-3.218,1.074l-1.066-2.874a16.546,16.546,0,0,1,6.666-2.162c3.308-.109,4.629,1.848,4.413,5.679l-.928,15.217.4.1,3.644-12.454c1.743-6.053,3.932-8.921,8.38-9.065,5.076-.169,6.722,3.031,6.415,9.265l-.763,14.982c-.115,1.72.136,2.452,1.393,2.413a5.82,5.82,0,0,0,2.981-1.358l1.387,2.241a12.4,12.4,0,0,1-6.812,2.963" transform="translate(161.213 43.55)" fill="#824ffb"/>
            <path id="Trazado_878977" data-name="Trazado 878977" d="M97.2,77.393c8.164,2.4,10.82,9.658,8.207,18.535-2.664,9.055-9.1,15.966-19.348,12.949-8.043-2.366-10.736-9.5-8.088-18.5,2.629-8.938,8.863-16.038,19.229-12.987m1.969,16.634c1.911-6.5,1.671-11.614-3.454-13.122-6.137-1.806-9.47,4.463-11.54,11.493-1.928,6.553-1.335,11.583,3.37,12.97,6.078,1.788,9.5-4.131,11.625-11.341" transform="translate(81.414 81.077)" fill="#824ffb"/>
            <path id="Trazado_878978" data-name="Trazado 878978" d="M33.8,82.229l-.638-.457L33.12,62.5l-.8-25.687a3.912,3.912,0,0,0-.948-2.839,2.5,2.5,0,0,0-1.92-.576c-.1.008-.208.021-.323.037a12.492,12.492,0,0,0-3.294,1.132l-.753-1.961a18.1,18.1,0,0,1,6.364-2.378c.337-.051.677-.091,1.023-.113a4.214,4.214,0,0,1,3.364.942c.932.914,1.348,2.524,1.239,4.792,0,0-.7,14.394-.728,17.3s1.734,2.773,2.259.128,2.033-10.269,2.033-10.269c1.823-9.6,4.308-13.268,9.5-14.046.337-.049.687-.088,1.049-.111A8.354,8.354,0,0,1,58.8,32.042c1.811,2.343,2.893,5.9,3.21,10.577.862,12.746-4.475,21.864-13.6,23.228-.416.062-.835.109-1.263.138a18.81,18.81,0,0,1-8.036-1.234l-1.263-.527.078,14.82,6.693.405-.064,1.92Zm15.84-49.671c-4.975.745-6.193,6.425-8.407,16.737l-.7,3.243-2.123,9.248.739.28a16.4,16.4,0,0,0,7.162,1.183c.253-.019.5-.045.745-.08,6.508-.973,10.219-8.865,9.456-20.1-.259-3.825-.745-10.946-6.31-10.567-.193.012-.381.033-.562.06" transform="translate(26.517 30.476)" fill="#824ffb"/>
            <path id="Trazado_878979" data-name="Trazado 878979" d="M216.948,144.29a9.509,9.509,0,0,1-2.946-.379c-4.121-1.181-7.913-4.516-12.682-11.153l-.245-.358c-5.4-7.849-7.633-11.1-13.641-12.822a19.9,19.9,0,0,0-6.384-.755,56.623,56.623,0,0,0-6.106.64l-.646-3.942a41.9,41.9,0,0,1,5.29-.531,28.238,28.238,0,0,1,3.208.06s-.025-.08.92.066,2-1.595.667-2.321c-.356-.2-.763-.446-.763-.446-11.859-6.9-16.385-19.955-12.1-34.906C176.538,59.916,187.232,50,201.626,49.528a37.018,37.018,0,0,1,11.419,1.492C221.1,53.33,227.161,58,230.57,64.539c3.592,6.894,4.041,15.6,1.294,25.191-4.895,17.079-15.188,26.362-29.765,26.841a41.356,41.356,0,0,1-8.427-.63s-.56-.1-1-.173c-2.29-.368-2.706,1.8-.776,2.706.6.282.889.405.889.405a29.881,29.881,0,0,1,12.258,10c4.234,5.483,6.483,7.4,8.6,7.333a3.751,3.751,0,0,0,3.014-2.074l1.364-2.243a8.838,8.838,0,0,1,4.619,3.138,5.257,5.257,0,0,1,.595,4.5,6.357,6.357,0,0,1-6.283,4.753M203.422,53.913c-7.378.245-17.379,4.738-23.119,24.769-5.2,18.151-.761,30.24,12.5,34.04a20.221,20.221,0,0,0,6.255.8c10.67-.35,19.309-9.353,23.708-24.7,5.049-17.624.449-30.327-12.312-33.985a22.92,22.92,0,0,0-7.034-.928" transform="translate(179.691 52.354)" fill="#824ffb"/>
            <path id="Trazado_878980" data-name="Trazado 878980" d="M52.478,26.717A13.182,13.182,0,0,0,48.4,28.887L46.32,25.262a23.009,23.009,0,0,1,8.7-4.446c4.339-.874,6.357,1.652,6.925,6.847l1.023,10.972.473-.016,2.119-10.335C66.831,22,68.042,18.193,72.919,17.209c4.189-.844,6.633,1.438,7.185,4.181a6.126,6.126,0,0,1-2.994,6.39l-1.926-1.675c-1.066-.973-1.8-1.461-2.94-1.23-1.753.354-2.148,1.94-3.736,8.6-2.654,11.633-3.24,15-2.64,20.35l.525,6.156-6.4,1.29L55.058,29.289c-.325-2-.979-2.895-2.58-2.572" transform="translate(48.98 18.01)" fill="#824ffb"/>
            <path id="Trazado_878981" data-name="Trazado 878981" d="M127.527,61.116c-9.189,4.907-17.305,3.533-20.208-1.9-1.883-3.522-.924-6.89,2.064-8.485a8.3,8.3,0,0,1,6.549-.642l.082,3.1c.056,3.613,2.765,6.1,9.427,2.545,5.9-3.15,9.662-9,6.061-15.737-6.133-11.487-29.46,3.43-38.172-12.88-3.393-6.357-3.808-17.453,9.363-24.488,7.886-4.21,16.373-3.43,19.686,2.773a5.427,5.427,0,0,1-2.2,7.672,8.766,8.766,0,0,1-6.076.784l-.138-3.763c-.1-3.687-3.368-5.386-9.036-2.36-6.971,3.722-8.47,8.656-5.892,13.48,6.46,12.1,29.864-3.057,38.657,13.408,5.028,9.419,1.014,20.519-10.166,26.49" transform="translate(96.562 0)" fill="#824ffb"/>
            <path id="Trazado_878982" data-name="Trazado 878982" d="M138.564,144.219c-3.01.1-5.292-.59-6.781-2.047-1.588-1.553-2.374-4.057-2.335-7.446l.284-24.438-5.806.191.232-2.076,5.518-.765,2.7-12.079,2.815-.093L134.92,107.7l11.09-.364-.078,2.424-11.042.362-.377,23.825c-.012,2.745.539,4.557,1.732,5.716A5.438,5.438,0,0,0,140.382,141c2.911-.1,5.193-1.747,7.067-3.551l1.206,1.3a13.392,13.392,0,0,1-10.092,5.471" transform="translate(131.043 100.949)" fill="#824ffb"/>
            <path id="Trazado_878983" data-name="Trazado 878983" d="M81.124,13.464c3.154.8,3.728,2.872,2.788,5.5l-5,14.254c-1.084,3.193-1.127,4.448.527,4.868,1.811.459,2.928-.907,5.543-4.923L94.9,17.733l5.016,1.274-6.29,21.3c-.407,1.383-.253,2.082.833,2.358a10.1,10.1,0,0,0,3.173-.132l.274,2.823a14.908,14.908,0,0,1-6.561.261c-3.051-.776-3.73-2.874-2.541-6.259l4.81-13.532-.4-.156L86.889,36.065c-2.979,4.8-5.679,6.979-9.816,5.93-4.549-1.156-5.016-4.522-3.133-9.989L78.5,18.8c.523-1.407.51-2.236-.625-2.524a5.26,5.26,0,0,0-3.029.442l-.6-2.409a11.79,11.79,0,0,1,6.874-.841" transform="translate(77.087 14.015)" fill="#824ffb"/>
            <path id="Trazado_878984" data-name="Trazado 878984" d="M178.265,15.467c4.257,9.522,7.724,29.372-4.843,34.989-4.125,1.846-9.586,2.915-13.258-6.485L153.3,26.4c-.846-2.057-2.115-2.177-3.5-1.02l-2.331,2.109-2.5-2.693a19.86,19.86,0,0,1,6.681-5.5c3.87-1.73,6.2-.1,7.483,3.282l6.843,18.033c1.535,4.113,3.057,6.327,6.485,4.794,7.172-3.208,5.378-16.418,2.631-23.416-1.2-3.2-2.175-3.673-4.109-3.57l-2.654.2c-1.835-2.913-1.385-6.16,1.662-7.522,3.681-1.646,6.574.564,8.277,4.372" transform="translate(153.291 11.15)" fill="#824ffb"/>
            <path id="Trazado_878985" data-name="Trazado 878985" d="M146.864,37.256a5.243,5.243,0,0,1-5.7-4.779l-.451-2.778-1.255,2.518c-1.848,3.714-4.374,5.425-8.2,5.553a6.2,6.2,0,0,1-4.747-1.541c-1.352-1.329-2.014-3.543-1.969-6.582l.232-15.513A3.022,3.022,0,0,0,124,11.867a2.192,2.192,0,0,0-1.662-.59,4.075,4.075,0,0,0-1.216.245l-1.479.523-.471-1.247a15.419,15.419,0,0,1,5.674-1.615,3.727,3.727,0,0,1,2.827.831,4.033,4.033,0,0,1,.9,3.047l-.4,15.573c-.074,2.915.374,4.693,1.455,5.765a3.874,3.874,0,0,0,2.985,1.035c5.465-.179,8.263-6.829,7.872-18.723a62.243,62.243,0,0,0-.642-6.767l3.491-.535a36.722,36.722,0,0,1,.654,6.1,91.463,91.463,0,0,1-.564,12.1c-.235,2.37-.276,4.755,1.018,6.139a4.151,4.151,0,0,0,3.313,1.13c6.892-.226,9.372-12.217,9.446-17.651.021-3.059-.648-4.265-2.751-4.963l-1.514-.494A3.92,3.92,0,0,1,153.629,9,2.574,2.574,0,0,1,155.6,8.17c1.737-.056,4.065.44,4.228,5.4.309,9.372-3.6,23.381-12.964,23.689" transform="translate(126.02 8.635)" fill="#824ffb"/>
            <path id="Trazado_878986" data-name="Trazado 878986" d="M188.729,36.819c1.424-2.45,1.687-3.932.078-4.409l-1.671-.506a3.562,3.562,0,0,1,2.413-3.767,3.025,3.025,0,0,1,3.981,1.975c.889,2.58-.473,4.907-2.944,8.954l-1.714,2.808,5.936,6.15c1.527,1.588,2.193,1.874,3.253,1.508a4.871,4.871,0,0,0,2.2-1.687l1.681,1.43a8.057,8.057,0,0,1-4.325,3.761c-2.489.858-4.189.411-6.121-1.6l-5.59-5.751-2.7,4.279c-1.5,2.372-1.193,3.866.841,3.936l1.251.035a3.483,3.483,0,0,1-2.2,4.107,3.127,3.127,0,0,1-4.228-2.1c-.841-2.444-.107-4.345,2.5-8.287l2.594-3.989-5.825-5.983c-1.372-1.434-2.109-1.333-2.8-1.095a7.778,7.778,0,0,0-2.294,1.718l-1.673-2.156a12.329,12.329,0,0,1,4.714-3.376c2.257-.778,3.835-.241,5.456,1.469l5.4,5.664Z" transform="translate(181.227 29.544)" fill="#824ffb"/>
            <path id="Trazado_878987" data-name="Trazado 878987" d="M25.225,70.531,24.353,56.4,21.01,57.685l-.833-1.743,8.252-5.325.887,1.9-2.362,2.352.765,17.5,4.123,6.989,3.506-1.632.876,1.813-9.483,6.119-.879-1.811,2.52-2.257-4-7.022L9.252,66.145l-2.9,1.144-.864-1.868,9.108-5.878.9,1.846L12.94,63.666,25.09,70.62Z" transform="translate(5.802 53.525)" fill="#824ffb"/>
            <path id="Trazado_878988" data-name="Trazado 878988" d="M151.533,73.545l.87,2.463-17.856,24.161a16.763,16.763,0,0,1,3.87-.553c2.609-.086,4.821.632,6.822.566,2.245-.074,2.5-1.479,4.327-6.948l3.1-.1-1.391,11.347c-5.479,1.518-11.365-.173-16.04-.019a10.136,10.136,0,0,0-4.761,1.13l-2.222-2.905,17.727-24.337-9.343.307c-3.22.107-3.738.913-4.845,6.053l-3.15.286.52-10.042.646-.689Z" transform="translate(135.617 77.769)" fill="#824ffb"/>
          </g>
        </g>
      </g>
      <g id="Grupo_1099578" data-name="Grupo 1099578" transform="translate(282.924 -152.055)">
        <path id="Trazado_879139" data-name="Trazado 879139" d="M604.661,498.147c10.86-30.6,19.367-55.076,6.653-95.26-10.157-32.107,17.441-58.548,28.117-88.437,9.5-26.6,12.631-58.584,10.314-87.566-3.166-39.569-18.389-79.205-44.755-107.531C563.906,75.218,501.758,64.1,447.291,74.3c-22.813,4.274-45.438,11.843-68.8,9.46-34.07-3.474-64.08-27.3-95.1-44.761C241.166,15.226,192.764,2.431,147.874,12.775c-50.9,11.73-92.63,56.03-97.608,114.809-2.256,26.633,20.67,73.554,13.435,98.8C56.36,251.982,2.779,330.4,4.1,390.043c1.317,59.423,13.657,77.9,31.1,108.1" transform="translate(523.001 272.343)" fill="url(#linear-gradient-3)"/>
        <path id="Trazado_879140" data-name="Trazado 879140" d="M454.64,381.762c7.031-19.817,12.541-35.664,4.308-61.686-6.577-20.79,11.294-37.914,18.208-57.267,6.154-17.222,8.18-37.937,6.679-56.7-2.049-25.622-11.908-51.288-28.983-69.629C428.247,107.9,388,100.693,352.729,107.3c-14.774,2.768-29.426,7.67-44.552,6.126-22.064-2.25-41.5-17.676-61.587-28.984-27.344-15.394-58.69-23.678-87.76-16.981-32.961,7.6-59.986,36.282-63.211,74.344-1.46,17.248,13.387,47.631,8.7,63.976-4.752,16.579-39.451,67.356-38.6,105.978.851,38.479,8.844,50.448,20.136,70" transform="translate(579.123 350.642)" fill="#cdb8fd"/>
        <path id="Trazado_879141" data-name="Trazado 879141" d="M491.166,414.425a.68.68,0,0,1-.394-.128,1.23,1.23,0,0,1-.341-1.446,122.615,122.615,0,0,0,7.7-26.839c3.014-17.95.749-33.966-1.649-50.921-1.135-8.029-2.31-16.33-2.9-24.935-1.242-18.131,2.21-33.878,5.861-50.548,1.382-6.31,2.811-12.833,3.962-19.49,3.433-19.849,2.652-43.68-2.141-65.384-6.489-29.388-21.478-54.929-41.125-70.066C431.153,82.334,389.77,80.55,349.444,99.9c-3.71,1.78-7.459,3.741-11.082,5.638-11.062,5.786-22.5,11.772-34.685,13.61-18.112,2.727-36.01-3.848-53.325-10.209-5.247-1.927-10.673-3.918-16-5.61-34.167-10.853-67.523-9.107-93.923,4.924-34.656,18.416-56.184,58.732-53.569,100.32.464,7.375,1.666,14.861,2.826,22.1,1.961,12.222,3.989,24.858,2.552,37.411s-5.9,23.986-10.207,35.026c-2.63,6.744-5.352,13.717-7.344,20.852-6.641,23.8-8.33,61.76,3.653,88.867a1.24,1.24,0,0,1-.314,1.457.744.744,0,0,1-1.138-.4c-12.242-27.688-10.538-66.393-3.772-90.638,2.024-7.257,4.768-14.29,7.422-21.089,4.251-10.891,8.645-22.155,10.047-34.38,1.4-12.179-.6-24.629-2.534-36.671-1.172-7.3-2.383-14.852-2.856-22.36-2.674-42.517,19.267-83.7,54.594-102.468,26.727-14.2,60.454-15.986,94.963-5.024,5.356,1.7,10.795,3.7,16.056,5.632,17.159,6.3,34.892,12.821,52.671,10.141,11.96-1.8,23.291-7.732,34.247-13.466,3.637-1.9,7.4-3.869,11.127-5.659,40.8-19.577,82.723-17.727,112.142,4.937C481,118.25,496.266,144.244,502.87,174.152c4.865,22.033,5.653,46.245,2.165,66.428-1.162,6.714-2.6,13.268-3.986,19.605-3.61,16.478-7.021,32.043-5.806,49.785.584,8.506,1.751,16.758,2.881,24.738,2.428,17.171,4.723,33.388,1.637,51.755a125.073,125.073,0,0,1-7.861,27.4.828.828,0,0,1-.734.565" transform="translate(580.559 372.625)" fill="#f3eeff"/>
        <path id="Trazado_879143" data-name="Trazado 879143" d="M392.912,362.728a.693.693,0,0,1-.35-.1,1.216,1.216,0,0,1-.407-1.42c5.127-14.217,9.178-25.446,3.178-44.106-3.515-10.928,1.9-20.514,7.142-29.784a88.036,88.036,0,0,0,6.362-12.818c4.251-11.706,6.027-26.565,4.873-40.769-1.564-19.231-9.28-37.469-21.171-50.039-17.581-18.585-45.616-26.449-75-21.034-2.7.5-5.454,1.1-8.111,1.688-8.135,1.79-16.548,3.638-25.078,2.785-12.671-1.27-24.284-8.305-35.513-15.107-3.395-2.055-6.9-4.182-10.374-6.1-22.251-12.326-45.168-16.694-64.533-12.3a59.522,59.522,0,0,0-46.141,53.254c-.466,5.405,1.412,12.709,3.4,20.441,2.467,9.6,5.017,19.522,3,26.447-1.083,3.72-4.077,9.486-7.869,16.784-8.4,16.185-21.106,40.643-20.669,60.06.592,26.4,5.765,35.172,13.592,48.45l1.157,1.964a1.28,1.28,0,0,1-.165,1.5.717.717,0,0,1-1.168-.21l-1.153-1.961c-7.734-13.118-13.322-22.6-13.931-49.676-.452-20.1,11.916-43.918,20.949-61.309,3.583-6.9,6.678-12.859,7.694-16.348,1.812-6.222-.644-15.783-3.021-25.029-2.045-7.961-3.977-15.479-3.471-21.346,2.33-27.059,21.421-49.212,47.509-55.126,19.682-4.46,42.939-.039,65.484,12.448,3.5,1.936,7.02,4.07,10.428,6.134,11.092,6.72,22.563,13.668,34.928,14.908,8.33.843,16.633-.99,24.666-2.759,2.669-.588,5.431-1.2,8.155-1.7,29.838-5.5,58.361,2.539,76.3,21.5,12.225,12.925,20.16,31.686,21.767,51.468,1.185,14.579-.646,29.848-5.02,41.894a89.618,89.618,0,0,1-6.524,13.171c-5.2,9.2-10.109,17.887-6.95,27.714,6.279,19.524,1.884,31.709-3.2,45.819a.847.847,0,0,1-.758.62" transform="translate(604.719 424.323)" fill="#f3eeff"/>
        <path id="Trazado_879145" data-name="Trazado 879145" d="M7.452,126.532A16.739,16.739,0,0,1,3.06,102.97a17.463,17.463,0,0,1,24.008-4.308,16.735,16.735,0,0,1,4.392,23.56,17.466,17.466,0,0,1-24.008,4.31" transform="translate(527.077 385.424)" fill="#824ffb"/>
        <path id="Trazado_879142" data-name="Trazado 879142" d="M226.843,29.149a16.011,16.011,0,1,1,22.334-4.07,15.95,15.95,0,0,1-22.334,4.07" transform="translate(706.499 307.055)" fill="#4e3097"/>
        <path id="Trazado_879144" data-name="Trazado 879144" d="M385.984,193.066a8.3,8.3,0,0,1-2.078-11.473,8.116,8.116,0,0,1,11.361-2.1,8.3,8.3,0,0,1,2.08,11.472,8.118,8.118,0,0,1-11.362,2.1" transform="translate(770.019 476.067)" fill="#683fc9"/>
      </g>
      <g id="Grupo_1099579" data-name="Grupo 1099579" transform="translate(926.115 74.345)">
        <path id="Trazado_878963-2" data-name="Trazado 878963" d="M50.007,168.286l5.5-3.718L50.161,104.09l7.016-4.251,39.221,45.8,6.726-2.1.65,2.025L83.6,154.96l-.644-2,6.421-4.249L77.945,134.869l-20.762,9.668,1.833,18.313,8.063-2.524.65,2.024L50.655,170.3Zm3.364-60.279,3.419,33.38,19.128-8.9-20.7-25.337Z" transform="translate(52.879 105.573)" fill="#824ffb"/>
        <g id="Grupo_1099515-2" data-name="Grupo 1099515">
          <g id="Grupo_1099514-2" data-name="Grupo 1099514" clip-path="url(#clip-path-2)">
            <path id="Trazado_878964-2" data-name="Trazado 878964" d="M32.652,143.94l.107-33.182-4.528-.9.218-2.506,8.036-.263.817.523-.053,16.542-.963,11.773.4.088,1.619-6.95c1.572-6.9,3.72-9.966,8.312-10.116,5.189-.171,7.623,3.9,7.839,10.485.342,10.382-4.611,16.241-11.849,16.48a23.842,23.842,0,0,1-9.958-1.971m6.627-8.164-1.5,6a10.376,10.376,0,0,0,4.679.946c4.64-.154,7.156-5.732,6.923-12.771-.093-2.843-.29-7.335-3.436-7.232-3.642.119-4.45,4.444-6.664,13.061" transform="translate(29.853 113.238)" fill="#824ffb"/>
            <path id="Trazado_878965-2" data-name="Trazado 878965" d="M58.523,66.16a3.956,3.956,0,0,1-.444,5.872,4.535,4.535,0,0,1-4.969.457l.025-2.074c.144-3.734-2.73-3.432-5.137-1.457-4.522,3.705-3.74,9.968,2.383,17.439,3.829,4.668,8.662,6.952,12.641,3.689,3.094-2.537,3.337-6.351,3.621-9.215l3.347.377c.111,2.539-.031,8.985-5.043,13.094-6.388,5.238-13.818,3.193-19.459-3.685-6.929-8.454-7.386-18.433.183-24.64,4.323-3.545,9.549-3.887,12.853.144" transform="translate(42.446 66.88)" fill="#824ffb"/>
            <path id="Trazado_878966-2" data-name="Trazado 878966" d="M87.1,94.738a46.132,46.132,0,0,1-13.931-1.9L57.794,88.51l.442-1.113,7.016.833L79.876,43.8l-6.063-3.059.527-1.259,19.338,5.442c7.135,2.008,12.6,5.395,15.805,9.8,3.654,5.016,4.446,11.33,2.352,18.766C107.985,87.175,99.663,94.326,87.1,94.738m-17.11-4.732,3.158.889a36.912,36.912,0,0,0,11.083,1.535c10.859-.358,18.2-7.036,21.8-19.852,5.082-18.062-6.744-24.3-14.246-26.411l-6.942-1.955Z" transform="translate(61.114 41.747)" fill="#824ffb"/>
            <path id="Trazado_878967-2" data-name="Trazado 878967" d="M165.027,98.135c5.432,5.736,2.146,12.606-1.354,18l-4.14,6.491c3.621,3.2,9.151,5.38,13.375,1.381,3.078-2.913,3.389-6.969,3.568-9.709l3.849.411a17.558,17.558,0,0,1-5.164,14.186c-6.777,6.421-15.466,4.559-22.233-2.586-8.542-9.022-9.812-20.183-1.992-27.59,5.372-5.088,10.287-4.6,14.089-.582m-11.643,4.1c-3.965,3.755-2.767,10.137,3.187,17.258l3.506-5.594c2.759-4.395,3.15-7.434-.062-10.824-1.924-2.033-4.442-2.913-6.631-.839" transform="translate(154.108 100.469)" fill="#824ffb"/>
            <path id="Trazado_878968-2" data-name="Trazado 878968" d="M134.406,81.021,131.289,87.9l10.279,4-2.1,4.491L129.5,92.514l-10.433,23.87c-3.823,8.695-9.816,17.153-15.869,20.626-2.724,1.636-5.5,2.037-7.911,1.095-3.024-1.179-4.4-3.454-3.64-5.855a9.158,9.158,0,0,1,3.924-4.477l2.718,2.625c2.2,2.162,4.642,2.156,6.569-1.444,1.271-2.376,2.232-4.615,3.59-7.654l13.645-31.672-6.423-2.5,2.121-3.876L124.064,85l1.671-3.615c4.3-9.462,12.234-14.641,21.906-10.872,4.759,1.854,9.952,6.4,7.508,12.67a4.578,4.578,0,0,1-6.376,2.743,5.8,5.8,0,0,1-3.465-3.615l1.58-1.821c2.609-2.9,2.152-5.08-1.173-6.376-4.911-1.913-8.857,1.51-11.308,6.907" transform="translate(96.689 73.254)" fill="#824ffb"/>
            <path id="Trazado_878969-2" data-name="Trazado 878969" d="M117.358,56.668l-.7,5.415c-1.251,9.077-3.2,13.308-9.318,14.106-6.876.9-10.526-4.977-11.505-12.48-1.537-11.793,3.257-20.755,12.211-21.922a22.666,22.666,0,0,1,8.205.467l2.7-1.955,2.1.368L123.6,68.1c.938,10.137-2.109,20.22-14.6,21.848-4.6.6-9.987-.364-10.588-4.967-.37-2.839,1.222-4.907,3.617-5.22a5.1,5.1,0,0,1,3.942,1.218l-.337,1.841c-.646,2.905.535,4.1,3.94,3.654,6.559-.856,9.172-7.353,8.767-17.369l-.533-12.435ZM114.6,54.205l1.086-7.9a15.391,15.391,0,0,0-6.3-.588c-5.927.774-8.318,8.012-7.152,16.966.444,3.405,1.352,9.38,5.641,8.82,4.413-.576,5.119-5.991,6.722-17.295" transform="translate(101.035 42.614)" fill="#824ffb"/>
            <path id="Trazado_878970-2" data-name="Trazado 878970" d="M133.375,64.369l-3.5,20.229,7.182,1.985-.971,3.712-21.336-2.866.971-3.712,6.362-.086,7.709-43.972-6.372-2.189.959-3.635,20.795,2.794-.967,3.712-6.713.352-3.206,18.624,23.105,3.1,3.284-18.612-6.37-2.189.957-3.635,20.72,2.784-.967,3.712-6.713.352-7.623,43.906,7.182,1.983-.967,3.714-21.336-2.866.967-3.712,6.376-.165,3.578-20.218Z" transform="translate(121.342 35.778)" fill="#824ffb"/>
            <path id="Trazado_878971-2" data-name="Trazado 878971" d="M65.561,95.811a11.5,11.5,0,0,0-3.837,1.144l-1.117-3.012a15.955,15.955,0,0,1,7.543-2.471c3.551-.117,5.339,2.047,5.183,7.006l-.8,20.035c-.066,1.846.154,2.726,1.549,2.681,1.333-.043,2.508-1.037,3.681-2.027l1.611,2.551a11.88,11.88,0,0,1-7.754,3.749c-4.185.138-5.343-2.238-5.335-5.794l.951-21.313c.01-1.65-.212-2.6-1.671-2.549m3.5-19.169a4.079,4.079,0,0,1,4.391,4.175,4.284,4.284,0,1,1-4.391-4.175" transform="translate(64.088 81.04)" fill="#824ffb"/>
            <path id="Trazado_878972-2" data-name="Trazado 878972" d="M92.252,181.516c-1.739,2.251-3.884,3.759-6.454,3.843-3.249.107-4.967-1.5-5.2-3.837a8.124,8.124,0,0,1,1.728-5.051l3.294,1.253c2.6.973,4.769.146,5.1-3.648.218-2.5.218-4.849.267-7.952l.235-29.666c.006-2.043-.329-3.09-1.99-3.037a14.206,14.206,0,0,0-4.648,1.364L83.259,131.2a19.27,19.27,0,0,1,8.981-2.942c4.232-.14,6.368,2.59,6.183,8.5l-.121,21.64c-.027,8.324-2.348,18.311-6.049,23.124m.619-70.91a4.864,4.864,0,0,1,5.234,4.971,5.105,5.105,0,1,1-10.2.414,4.983,4.983,0,0,1,4.967-5.384" transform="translate(85.214 116.956)" fill="#824ffb"/>
            <path id="Trazado_878973-2" data-name="Trazado 878973" d="M107.771,104.621l1.1-2.917,9.684,2.395.8.9-8.03,27.055a25.032,25.032,0,0,0,10.349-1.588c2.806-1.031,3.705-2.594,2.259-3.975l-1.43-1.438a4.787,4.787,0,0,1,5.658-3,4.16,4.16,0,0,1,3.016,5.341c-.788,3.187-3.144,4.712-8.008,6.316a39.457,39.457,0,0,1-4.565,1.169l3.531,12.042c.85,2.765,1.483,4.07,3.045,4.456a6.157,6.157,0,0,0,3.459-.294l.8,2.687a10.8,10.8,0,0,1-7.466,1.027c-3.308-.819-4.335-3.115-5.321-6.36l-3.533-12.808-2.825.066-4.232,14.272-5.413-1.339,12.219-41.4Z" transform="translate(106.433 107.546)" fill="#824ffb"/>
            <path id="Trazado_878974-2" data-name="Trazado 878974" d="M161.848,114.338l4.753-2.992L152.32,73.535l-5.681,1.183-.448-1.566,16.322-6.958.43,1.51-6.074,3.852,14.336,37.968,9.841-4.2c4.08-1.739,5.23-3.9,4.732-8.888l-.294-2.94,2.111-.9,3.094,11.139L162.28,115.846Z" transform="translate(154.588 69.996)" fill="#824ffb"/>
            <path id="Trazado_878975-2" data-name="Trazado 878975" d="M49.817,131.9l-7.763,3.777L13.476,91.735,23.3,135.054l7.244-1,.679,3.948L12.5,143.648,11.82,139.7l6.045-3.008L7.584,91.3l-6.927.646L0,88.081l17.33-5.222,27.333,42.624.955-51.144,17.1-5.15.7,4.026-5.631,2.967,14.966,44.06,7.532-1.167.681,3.95-21.214,6.39-.681-3.95,6.069-2.93L50.753,79.571Z" transform="translate(0 73.163)" fill="#824ffb"/>
            <path id="Trazado_878976-2" data-name="Trazado 878976" d="M179.635,71.7c-3.537.117-4.685-1.846-4.553-4.761l.9-16.243c.165-3.66-.389-4.841-2.158-4.781-2.224.074-2.909,1.806-4.349,6.6L163.7,71.423l-5.532.181.134-23.755c0-1.543-.416-2.214-1.557-2.175a10.3,10.3,0,0,0-3.218,1.074l-1.066-2.874a16.546,16.546,0,0,1,6.666-2.162c3.308-.109,4.629,1.848,4.413,5.679l-.928,15.217.4.1,3.644-12.454c1.743-6.053,3.932-8.921,8.38-9.065,5.076-.169,6.722,3.031,6.415,9.265l-.763,14.982c-.115,1.72.136,2.452,1.393,2.413a5.82,5.82,0,0,0,2.981-1.358l1.387,2.241a12.4,12.4,0,0,1-6.812,2.963" transform="translate(161.213 43.55)" fill="#824ffb"/>
            <path id="Trazado_878977-2" data-name="Trazado 878977" d="M97.2,77.393c8.164,2.4,10.82,9.658,8.207,18.535-2.664,9.055-9.1,15.966-19.348,12.949-8.043-2.366-10.736-9.5-8.088-18.5,2.629-8.938,8.863-16.038,19.229-12.987m1.969,16.634c1.911-6.5,1.671-11.614-3.454-13.122-6.137-1.806-9.47,4.463-11.54,11.493-1.928,6.553-1.335,11.583,3.37,12.97,6.078,1.788,9.5-4.131,11.625-11.341" transform="translate(81.414 81.077)" fill="#824ffb"/>
            <path id="Trazado_878978-2" data-name="Trazado 878978" d="M33.8,82.229l-.638-.457L33.12,62.5l-.8-25.687a3.912,3.912,0,0,0-.948-2.839,2.5,2.5,0,0,0-1.92-.576c-.1.008-.208.021-.323.037a12.492,12.492,0,0,0-3.294,1.132l-.753-1.961a18.1,18.1,0,0,1,6.364-2.378c.337-.051.677-.091,1.023-.113a4.214,4.214,0,0,1,3.364.942c.932.914,1.348,2.524,1.239,4.792,0,0-.7,14.394-.728,17.3s1.734,2.773,2.259.128,2.033-10.269,2.033-10.269c1.823-9.6,4.308-13.268,9.5-14.046.337-.049.687-.088,1.049-.111A8.354,8.354,0,0,1,58.8,32.042c1.811,2.343,2.893,5.9,3.21,10.577.862,12.746-4.475,21.864-13.6,23.228-.416.062-.835.109-1.263.138a18.81,18.81,0,0,1-8.036-1.234l-1.263-.527.078,14.82,6.693.405-.064,1.92Zm15.84-49.671c-4.975.745-6.193,6.425-8.407,16.737l-.7,3.243-2.123,9.248.739.28a16.4,16.4,0,0,0,7.162,1.183c.253-.019.5-.045.745-.08,6.508-.973,10.219-8.865,9.456-20.1-.259-3.825-.745-10.946-6.31-10.567-.193.012-.381.033-.562.06" transform="translate(26.517 30.476)" fill="#824ffb"/>
            <path id="Trazado_878979-2" data-name="Trazado 878979" d="M216.948,144.29a9.509,9.509,0,0,1-2.946-.379c-4.121-1.181-7.913-4.516-12.682-11.153l-.245-.358c-5.4-7.849-7.633-11.1-13.641-12.822a19.9,19.9,0,0,0-6.384-.755,56.623,56.623,0,0,0-6.106.64l-.646-3.942a41.9,41.9,0,0,1,5.29-.531,28.238,28.238,0,0,1,3.208.06s-.025-.08.92.066,2-1.595.667-2.321c-.356-.2-.763-.446-.763-.446-11.859-6.9-16.385-19.955-12.1-34.906C176.538,59.916,187.232,50,201.626,49.528a37.018,37.018,0,0,1,11.419,1.492C221.1,53.33,227.161,58,230.57,64.539c3.592,6.894,4.041,15.6,1.294,25.191-4.895,17.079-15.188,26.362-29.765,26.841a41.356,41.356,0,0,1-8.427-.63s-.56-.1-1-.173c-2.29-.368-2.706,1.8-.776,2.706.6.282.889.405.889.405a29.881,29.881,0,0,1,12.258,10c4.234,5.483,6.483,7.4,8.6,7.333a3.751,3.751,0,0,0,3.014-2.074l1.364-2.243a8.838,8.838,0,0,1,4.619,3.138,5.257,5.257,0,0,1,.595,4.5,6.357,6.357,0,0,1-6.283,4.753M203.422,53.913c-7.378.245-17.379,4.738-23.119,24.769-5.2,18.151-.761,30.24,12.5,34.04a20.221,20.221,0,0,0,6.255.8c10.67-.35,19.309-9.353,23.708-24.7,5.049-17.624.449-30.327-12.312-33.985a22.92,22.92,0,0,0-7.034-.928" transform="translate(179.691 52.354)" fill="#824ffb"/>
            <path id="Trazado_878980-2" data-name="Trazado 878980" d="M52.478,26.717A13.182,13.182,0,0,0,48.4,28.887L46.32,25.262a23.009,23.009,0,0,1,8.7-4.446c4.339-.874,6.357,1.652,6.925,6.847l1.023,10.972.473-.016,2.119-10.335C66.831,22,68.042,18.193,72.919,17.209c4.189-.844,6.633,1.438,7.185,4.181a6.126,6.126,0,0,1-2.994,6.39l-1.926-1.675c-1.066-.973-1.8-1.461-2.94-1.23-1.753.354-2.148,1.94-3.736,8.6-2.654,11.633-3.24,15-2.64,20.35l.525,6.156-6.4,1.29L55.058,29.289c-.325-2-.979-2.895-2.58-2.572" transform="translate(48.98 18.01)" fill="#824ffb"/>
            <path id="Trazado_878981-2" data-name="Trazado 878981" d="M127.527,61.116c-9.189,4.907-17.305,3.533-20.208-1.9-1.883-3.522-.924-6.89,2.064-8.485a8.3,8.3,0,0,1,6.549-.642l.082,3.1c.056,3.613,2.765,6.1,9.427,2.545,5.9-3.15,9.662-9,6.061-15.737-6.133-11.487-29.46,3.43-38.172-12.88-3.393-6.357-3.808-17.453,9.363-24.488,7.886-4.21,16.373-3.43,19.686,2.773a5.427,5.427,0,0,1-2.2,7.672,8.766,8.766,0,0,1-6.076.784l-.138-3.763c-.1-3.687-3.368-5.386-9.036-2.36-6.971,3.722-8.47,8.656-5.892,13.48,6.46,12.1,29.864-3.057,38.657,13.408,5.028,9.419,1.014,20.519-10.166,26.49" transform="translate(96.562 0)" fill="#824ffb"/>
            <path id="Trazado_878982-2" data-name="Trazado 878982" d="M138.564,144.219c-3.01.1-5.292-.59-6.781-2.047-1.588-1.553-2.374-4.057-2.335-7.446l.284-24.438-5.806.191.232-2.076,5.518-.765,2.7-12.079,2.815-.093L134.92,107.7l11.09-.364-.078,2.424-11.042.362-.377,23.825c-.012,2.745.539,4.557,1.732,5.716A5.438,5.438,0,0,0,140.382,141c2.911-.1,5.193-1.747,7.067-3.551l1.206,1.3a13.392,13.392,0,0,1-10.092,5.471" transform="translate(131.043 100.949)" fill="#824ffb"/>
            <path id="Trazado_878983-2" data-name="Trazado 878983" d="M81.124,13.464c3.154.8,3.728,2.872,2.788,5.5l-5,14.254c-1.084,3.193-1.127,4.448.527,4.868,1.811.459,2.928-.907,5.543-4.923L94.9,17.733l5.016,1.274-6.29,21.3c-.407,1.383-.253,2.082.833,2.358a10.1,10.1,0,0,0,3.173-.132l.274,2.823a14.908,14.908,0,0,1-6.561.261c-3.051-.776-3.73-2.874-2.541-6.259l4.81-13.532-.4-.156L86.889,36.065c-2.979,4.8-5.679,6.979-9.816,5.93-4.549-1.156-5.016-4.522-3.133-9.989L78.5,18.8c.523-1.407.51-2.236-.625-2.524a5.26,5.26,0,0,0-3.029.442l-.6-2.409a11.79,11.79,0,0,1,6.874-.841" transform="translate(77.087 14.015)" fill="#824ffb"/>
            <path id="Trazado_878984-2" data-name="Trazado 878984" d="M178.265,15.467c4.257,9.522,7.724,29.372-4.843,34.989-4.125,1.846-9.586,2.915-13.258-6.485L153.3,26.4c-.846-2.057-2.115-2.177-3.5-1.02l-2.331,2.109-2.5-2.693a19.86,19.86,0,0,1,6.681-5.5c3.87-1.73,6.2-.1,7.483,3.282l6.843,18.033c1.535,4.113,3.057,6.327,6.485,4.794,7.172-3.208,5.378-16.418,2.631-23.416-1.2-3.2-2.175-3.673-4.109-3.57l-2.654.2c-1.835-2.913-1.385-6.16,1.662-7.522,3.681-1.646,6.574.564,8.277,4.372" transform="translate(153.291 11.15)" fill="#824ffb"/>
            <path id="Trazado_878985-2" data-name="Trazado 878985" d="M146.864,37.256a5.243,5.243,0,0,1-5.7-4.779l-.451-2.778-1.255,2.518c-1.848,3.714-4.374,5.425-8.2,5.553a6.2,6.2,0,0,1-4.747-1.541c-1.352-1.329-2.014-3.543-1.969-6.582l.232-15.513A3.022,3.022,0,0,0,124,11.867a2.192,2.192,0,0,0-1.662-.59,4.075,4.075,0,0,0-1.216.245l-1.479.523-.471-1.247a15.419,15.419,0,0,1,5.674-1.615,3.727,3.727,0,0,1,2.827.831,4.033,4.033,0,0,1,.9,3.047l-.4,15.573c-.074,2.915.374,4.693,1.455,5.765a3.874,3.874,0,0,0,2.985,1.035c5.465-.179,8.263-6.829,7.872-18.723a62.243,62.243,0,0,0-.642-6.767l3.491-.535a36.722,36.722,0,0,1,.654,6.1,91.463,91.463,0,0,1-.564,12.1c-.235,2.37-.276,4.755,1.018,6.139a4.151,4.151,0,0,0,3.313,1.13c6.892-.226,9.372-12.217,9.446-17.651.021-3.059-.648-4.265-2.751-4.963l-1.514-.494A3.92,3.92,0,0,1,153.629,9,2.574,2.574,0,0,1,155.6,8.17c1.737-.056,4.065.44,4.228,5.4.309,9.372-3.6,23.381-12.964,23.689" transform="translate(126.02 8.635)" fill="#824ffb"/>
            <path id="Trazado_878986-2" data-name="Trazado 878986" d="M188.729,36.819c1.424-2.45,1.687-3.932.078-4.409l-1.671-.506a3.562,3.562,0,0,1,2.413-3.767,3.025,3.025,0,0,1,3.981,1.975c.889,2.58-.473,4.907-2.944,8.954l-1.714,2.808,5.936,6.15c1.527,1.588,2.193,1.874,3.253,1.508a4.871,4.871,0,0,0,2.2-1.687l1.681,1.43a8.057,8.057,0,0,1-4.325,3.761c-2.489.858-4.189.411-6.121-1.6l-5.59-5.751-2.7,4.279c-1.5,2.372-1.193,3.866.841,3.936l1.251.035a3.483,3.483,0,0,1-2.2,4.107,3.127,3.127,0,0,1-4.228-2.1c-.841-2.444-.107-4.345,2.5-8.287l2.594-3.989-5.825-5.983c-1.372-1.434-2.109-1.333-2.8-1.095a7.778,7.778,0,0,0-2.294,1.718l-1.673-2.156a12.329,12.329,0,0,1,4.714-3.376c2.257-.778,3.835-.241,5.456,1.469l5.4,5.664Z" transform="translate(181.227 29.544)" fill="#824ffb"/>
            <path id="Trazado_878987-2" data-name="Trazado 878987" d="M25.225,70.531,24.353,56.4,21.01,57.685l-.833-1.743,8.252-5.325.887,1.9-2.362,2.352.765,17.5,4.123,6.989,3.506-1.632.876,1.813-9.483,6.119-.879-1.811,2.52-2.257-4-7.022L9.252,66.145l-2.9,1.144-.864-1.868,9.108-5.878.9,1.846L12.94,63.666,25.09,70.62Z" transform="translate(5.802 53.525)" fill="#824ffb"/>
            <path id="Trazado_878988-2" data-name="Trazado 878988" d="M151.533,73.545l.87,2.463-17.856,24.161a16.763,16.763,0,0,1,3.87-.553c2.609-.086,4.821.632,6.822.566,2.245-.074,2.5-1.479,4.327-6.948l3.1-.1-1.391,11.347c-5.479,1.518-11.365-.173-16.04-.019a10.136,10.136,0,0,0-4.761,1.13l-2.222-2.905,17.727-24.337-9.343.307c-3.22.107-3.738.913-4.845,6.053l-3.15.286.52-10.042.646-.689Z" transform="translate(135.617 77.769)" fill="#824ffb"/>
          </g>
        </g>
      </g>
      <g id="Grupo_1099580" data-name="Grupo 1099580" transform="translate(29.115)">
        <path id="Trazado_878963-3" data-name="Trazado 878963" d="M50.007,168.286l5.5-3.718L50.161,104.09l7.016-4.251,39.221,45.8,6.726-2.1.65,2.025L83.6,154.96l-.644-2,6.421-4.249L77.945,134.869l-20.762,9.668,1.833,18.313,8.063-2.524.65,2.024L50.655,170.3Zm3.364-60.279,3.419,33.38,19.128-8.9-20.7-25.337Z" transform="translate(52.879 105.573)" fill="#ff84ed"/>
        <g id="Grupo_1099515-3" data-name="Grupo 1099515">
          <g id="Grupo_1099514-3" data-name="Grupo 1099514" clip-path="url(#clip-path-4)">
            <path id="Trazado_878964-3" data-name="Trazado 878964" d="M32.652,143.94l.107-33.182-4.528-.9.218-2.506,8.036-.263.817.523-.053,16.542-.963,11.773.4.088,1.619-6.95c1.572-6.9,3.72-9.966,8.312-10.116,5.189-.171,7.623,3.9,7.839,10.485.342,10.382-4.611,16.241-11.849,16.48a23.842,23.842,0,0,1-9.958-1.971m6.627-8.164-1.5,6a10.376,10.376,0,0,0,4.679.946c4.64-.154,7.156-5.732,6.923-12.771-.093-2.843-.29-7.335-3.436-7.232-3.642.119-4.45,4.444-6.664,13.061" transform="translate(29.853 113.238)" fill="#ff84ed"/>
            <path id="Trazado_878965-3" data-name="Trazado 878965" d="M58.523,66.16a3.956,3.956,0,0,1-.444,5.872,4.535,4.535,0,0,1-4.969.457l.025-2.074c.144-3.734-2.73-3.432-5.137-1.457-4.522,3.705-3.74,9.968,2.383,17.439,3.829,4.668,8.662,6.952,12.641,3.689,3.094-2.537,3.337-6.351,3.621-9.215l3.347.377c.111,2.539-.031,8.985-5.043,13.094-6.388,5.238-13.818,3.193-19.459-3.685-6.929-8.454-7.386-18.433.183-24.64,4.323-3.545,9.549-3.887,12.853.144" transform="translate(42.446 66.88)" fill="#ff84ed"/>
            <path id="Trazado_878966-3" data-name="Trazado 878966" d="M87.1,94.738a46.132,46.132,0,0,1-13.931-1.9L57.794,88.51l.442-1.113,7.016.833L79.876,43.8l-6.063-3.059.527-1.259,19.338,5.442c7.135,2.008,12.6,5.395,15.805,9.8,3.654,5.016,4.446,11.33,2.352,18.766C107.985,87.175,99.663,94.326,87.1,94.738m-17.11-4.732,3.158.889a36.912,36.912,0,0,0,11.083,1.535c10.859-.358,18.2-7.036,21.8-19.852,5.082-18.062-6.744-24.3-14.246-26.411l-6.942-1.955Z" transform="translate(61.114 41.747)" fill="#ff84ed"/>
            <path id="Trazado_878967-3" data-name="Trazado 878967" d="M165.027,98.135c5.432,5.736,2.146,12.606-1.354,18l-4.14,6.491c3.621,3.2,9.151,5.38,13.375,1.381,3.078-2.913,3.389-6.969,3.568-9.709l3.849.411a17.558,17.558,0,0,1-5.164,14.186c-6.777,6.421-15.466,4.559-22.233-2.586-8.542-9.022-9.812-20.183-1.992-27.59,5.372-5.088,10.287-4.6,14.089-.582m-11.643,4.1c-3.965,3.755-2.767,10.137,3.187,17.258l3.506-5.594c2.759-4.395,3.15-7.434-.062-10.824-1.924-2.033-4.442-2.913-6.631-.839" transform="translate(154.108 100.469)" fill="#ff84ed"/>
            <path id="Trazado_878968-3" data-name="Trazado 878968" d="M134.406,81.021,131.289,87.9l10.279,4-2.1,4.491L129.5,92.514l-10.433,23.87c-3.823,8.695-9.816,17.153-15.869,20.626-2.724,1.636-5.5,2.037-7.911,1.095-3.024-1.179-4.4-3.454-3.64-5.855a9.158,9.158,0,0,1,3.924-4.477l2.718,2.625c2.2,2.162,4.642,2.156,6.569-1.444,1.271-2.376,2.232-4.615,3.59-7.654l13.645-31.672-6.423-2.5,2.121-3.876L124.064,85l1.671-3.615c4.3-9.462,12.234-14.641,21.906-10.872,4.759,1.854,9.952,6.4,7.508,12.67a4.578,4.578,0,0,1-6.376,2.743,5.8,5.8,0,0,1-3.465-3.615l1.58-1.821c2.609-2.9,2.152-5.08-1.173-6.376-4.911-1.913-8.857,1.51-11.308,6.907" transform="translate(96.689 73.254)" fill="#ff84ed"/>
            <path id="Trazado_878969-3" data-name="Trazado 878969" d="M117.358,56.668l-.7,5.415c-1.251,9.077-3.2,13.308-9.318,14.106-6.876.9-10.526-4.977-11.505-12.48-1.537-11.793,3.257-20.755,12.211-21.922a22.666,22.666,0,0,1,8.205.467l2.7-1.955,2.1.368L123.6,68.1c.938,10.137-2.109,20.22-14.6,21.848-4.6.6-9.987-.364-10.588-4.967-.37-2.839,1.222-4.907,3.617-5.22a5.1,5.1,0,0,1,3.942,1.218l-.337,1.841c-.646,2.905.535,4.1,3.94,3.654,6.559-.856,9.172-7.353,8.767-17.369l-.533-12.435ZM114.6,54.205l1.086-7.9a15.391,15.391,0,0,0-6.3-.588c-5.927.774-8.318,8.012-7.152,16.966.444,3.405,1.352,9.38,5.641,8.82,4.413-.576,5.119-5.991,6.722-17.295" transform="translate(101.035 42.614)" fill="#ff84ed"/>
            <path id="Trazado_878970-3" data-name="Trazado 878970" d="M133.375,64.369l-3.5,20.229,7.182,1.985-.971,3.712-21.336-2.866.971-3.712,6.362-.086,7.709-43.972-6.372-2.189.959-3.635,20.795,2.794-.967,3.712-6.713.352-3.206,18.624,23.105,3.1,3.284-18.612-6.37-2.189.957-3.635,20.72,2.784-.967,3.712-6.713.352-7.623,43.906,7.182,1.983-.967,3.714-21.336-2.866.967-3.712,6.376-.165,3.578-20.218Z" transform="translate(121.342 35.778)" fill="#ff84ed"/>
            <path id="Trazado_878971-3" data-name="Trazado 878971" d="M65.561,95.811a11.5,11.5,0,0,0-3.837,1.144l-1.117-3.012a15.955,15.955,0,0,1,7.543-2.471c3.551-.117,5.339,2.047,5.183,7.006l-.8,20.035c-.066,1.846.154,2.726,1.549,2.681,1.333-.043,2.508-1.037,3.681-2.027l1.611,2.551a11.88,11.88,0,0,1-7.754,3.749c-4.185.138-5.343-2.238-5.335-5.794l.951-21.313c.01-1.65-.212-2.6-1.671-2.549m3.5-19.169a4.079,4.079,0,0,1,4.391,4.175,4.284,4.284,0,1,1-4.391-4.175" transform="translate(64.088 81.04)" fill="#ff84ed"/>
            <path id="Trazado_878972-3" data-name="Trazado 878972" d="M92.252,181.516c-1.739,2.251-3.884,3.759-6.454,3.843-3.249.107-4.967-1.5-5.2-3.837a8.124,8.124,0,0,1,1.728-5.051l3.294,1.253c2.6.973,4.769.146,5.1-3.648.218-2.5.218-4.849.267-7.952l.235-29.666c.006-2.043-.329-3.09-1.99-3.037a14.206,14.206,0,0,0-4.648,1.364L83.259,131.2a19.27,19.27,0,0,1,8.981-2.942c4.232-.14,6.368,2.59,6.183,8.5l-.121,21.64c-.027,8.324-2.348,18.311-6.049,23.124m.619-70.91a4.864,4.864,0,0,1,5.234,4.971,5.105,5.105,0,1,1-10.2.414,4.983,4.983,0,0,1,4.967-5.384" transform="translate(85.214 116.956)" fill="#ff84ed"/>
            <path id="Trazado_878973-3" data-name="Trazado 878973" d="M107.771,104.621l1.1-2.917,9.684,2.395.8.9-8.03,27.055a25.032,25.032,0,0,0,10.349-1.588c2.806-1.031,3.705-2.594,2.259-3.975l-1.43-1.438a4.787,4.787,0,0,1,5.658-3,4.16,4.16,0,0,1,3.016,5.341c-.788,3.187-3.144,4.712-8.008,6.316a39.457,39.457,0,0,1-4.565,1.169l3.531,12.042c.85,2.765,1.483,4.07,3.045,4.456a6.157,6.157,0,0,0,3.459-.294l.8,2.687a10.8,10.8,0,0,1-7.466,1.027c-3.308-.819-4.335-3.115-5.321-6.36l-3.533-12.808-2.825.066-4.232,14.272-5.413-1.339,12.219-41.4Z" transform="translate(106.433 107.546)" fill="#ff84ed"/>
            <path id="Trazado_878974-3" data-name="Trazado 878974" d="M161.848,114.338l4.753-2.992L152.32,73.535l-5.681,1.183-.448-1.566,16.322-6.958.43,1.51-6.074,3.852,14.336,37.968,9.841-4.2c4.08-1.739,5.23-3.9,4.732-8.888l-.294-2.94,2.111-.9,3.094,11.139L162.28,115.846Z" transform="translate(154.588 69.996)" fill="#ff84ed"/>
            <path id="Trazado_878975-3" data-name="Trazado 878975" d="M49.817,131.9l-7.763,3.777L13.476,91.735,23.3,135.054l7.244-1,.679,3.948L12.5,143.648,11.82,139.7l6.045-3.008L7.584,91.3l-6.927.646L0,88.081l17.33-5.222,27.333,42.624.955-51.144,17.1-5.15.7,4.026-5.631,2.967,14.966,44.06,7.532-1.167.681,3.95-21.214,6.39-.681-3.95,6.069-2.93L50.753,79.571Z" transform="translate(0 73.163)" fill="#ff84ed"/>
            <path id="Trazado_878976-3" data-name="Trazado 878976" d="M179.635,71.7c-3.537.117-4.685-1.846-4.553-4.761l.9-16.243c.165-3.66-.389-4.841-2.158-4.781-2.224.074-2.909,1.806-4.349,6.6L163.7,71.423l-5.532.181.134-23.755c0-1.543-.416-2.214-1.557-2.175a10.3,10.3,0,0,0-3.218,1.074l-1.066-2.874a16.546,16.546,0,0,1,6.666-2.162c3.308-.109,4.629,1.848,4.413,5.679l-.928,15.217.4.1,3.644-12.454c1.743-6.053,3.932-8.921,8.38-9.065,5.076-.169,6.722,3.031,6.415,9.265l-.763,14.982c-.115,1.72.136,2.452,1.393,2.413a5.82,5.82,0,0,0,2.981-1.358l1.387,2.241a12.4,12.4,0,0,1-6.812,2.963" transform="translate(161.213 43.55)" fill="#ff84ed"/>
            <path id="Trazado_878977-3" data-name="Trazado 878977" d="M97.2,77.393c8.164,2.4,10.82,9.658,8.207,18.535-2.664,9.055-9.1,15.966-19.348,12.949-8.043-2.366-10.736-9.5-8.088-18.5,2.629-8.938,8.863-16.038,19.229-12.987m1.969,16.634c1.911-6.5,1.671-11.614-3.454-13.122-6.137-1.806-9.47,4.463-11.54,11.493-1.928,6.553-1.335,11.583,3.37,12.97,6.078,1.788,9.5-4.131,11.625-11.341" transform="translate(81.414 81.077)" fill="#ff84ed"/>
            <path id="Trazado_878978-3" data-name="Trazado 878978" d="M33.8,82.229l-.638-.457L33.12,62.5l-.8-25.687a3.912,3.912,0,0,0-.948-2.839,2.5,2.5,0,0,0-1.92-.576c-.1.008-.208.021-.323.037a12.492,12.492,0,0,0-3.294,1.132l-.753-1.961a18.1,18.1,0,0,1,6.364-2.378c.337-.051.677-.091,1.023-.113a4.214,4.214,0,0,1,3.364.942c.932.914,1.348,2.524,1.239,4.792,0,0-.7,14.394-.728,17.3s1.734,2.773,2.259.128,2.033-10.269,2.033-10.269c1.823-9.6,4.308-13.268,9.5-14.046.337-.049.687-.088,1.049-.111A8.354,8.354,0,0,1,58.8,32.042c1.811,2.343,2.893,5.9,3.21,10.577.862,12.746-4.475,21.864-13.6,23.228-.416.062-.835.109-1.263.138a18.81,18.81,0,0,1-8.036-1.234l-1.263-.527.078,14.82,6.693.405-.064,1.92Zm15.84-49.671c-4.975.745-6.193,6.425-8.407,16.737l-.7,3.243-2.123,9.248.739.28a16.4,16.4,0,0,0,7.162,1.183c.253-.019.5-.045.745-.08,6.508-.973,10.219-8.865,9.456-20.1-.259-3.825-.745-10.946-6.31-10.567-.193.012-.381.033-.562.06" transform="translate(26.517 30.476)" fill="#ff84ed"/>
            <path id="Trazado_878979-3" data-name="Trazado 878979" d="M216.948,144.29a9.509,9.509,0,0,1-2.946-.379c-4.121-1.181-7.913-4.516-12.682-11.153l-.245-.358c-5.4-7.849-7.633-11.1-13.641-12.822a19.9,19.9,0,0,0-6.384-.755,56.623,56.623,0,0,0-6.106.64l-.646-3.942a41.9,41.9,0,0,1,5.29-.531,28.238,28.238,0,0,1,3.208.06s-.025-.08.92.066,2-1.595.667-2.321c-.356-.2-.763-.446-.763-.446-11.859-6.9-16.385-19.955-12.1-34.906C176.538,59.916,187.232,50,201.626,49.528a37.018,37.018,0,0,1,11.419,1.492C221.1,53.33,227.161,58,230.57,64.539c3.592,6.894,4.041,15.6,1.294,25.191-4.895,17.079-15.188,26.362-29.765,26.841a41.356,41.356,0,0,1-8.427-.63s-.56-.1-1-.173c-2.29-.368-2.706,1.8-.776,2.706.6.282.889.405.889.405a29.881,29.881,0,0,1,12.258,10c4.234,5.483,6.483,7.4,8.6,7.333a3.751,3.751,0,0,0,3.014-2.074l1.364-2.243a8.838,8.838,0,0,1,4.619,3.138,5.257,5.257,0,0,1,.595,4.5,6.357,6.357,0,0,1-6.283,4.753M203.422,53.913c-7.378.245-17.379,4.738-23.119,24.769-5.2,18.151-.761,30.24,12.5,34.04a20.221,20.221,0,0,0,6.255.8c10.67-.35,19.309-9.353,23.708-24.7,5.049-17.624.449-30.327-12.312-33.985a22.92,22.92,0,0,0-7.034-.928" transform="translate(179.691 52.354)" fill="#ff84ed"/>
            <path id="Trazado_878980-3" data-name="Trazado 878980" d="M52.478,26.717A13.182,13.182,0,0,0,48.4,28.887L46.32,25.262a23.009,23.009,0,0,1,8.7-4.446c4.339-.874,6.357,1.652,6.925,6.847l1.023,10.972.473-.016,2.119-10.335C66.831,22,68.042,18.193,72.919,17.209c4.189-.844,6.633,1.438,7.185,4.181a6.126,6.126,0,0,1-2.994,6.39l-1.926-1.675c-1.066-.973-1.8-1.461-2.94-1.23-1.753.354-2.148,1.94-3.736,8.6-2.654,11.633-3.24,15-2.64,20.35l.525,6.156-6.4,1.29L55.058,29.289c-.325-2-.979-2.895-2.58-2.572" transform="translate(48.98 18.01)" fill="#ff84ed"/>
            <path id="Trazado_878981-3" data-name="Trazado 878981" d="M127.527,61.116c-9.189,4.907-17.305,3.533-20.208-1.9-1.883-3.522-.924-6.89,2.064-8.485a8.3,8.3,0,0,1,6.549-.642l.082,3.1c.056,3.613,2.765,6.1,9.427,2.545,5.9-3.15,9.662-9,6.061-15.737-6.133-11.487-29.46,3.43-38.172-12.88-3.393-6.357-3.808-17.453,9.363-24.488,7.886-4.21,16.373-3.43,19.686,2.773a5.427,5.427,0,0,1-2.2,7.672,8.766,8.766,0,0,1-6.076.784l-.138-3.763c-.1-3.687-3.368-5.386-9.036-2.36-6.971,3.722-8.47,8.656-5.892,13.48,6.46,12.1,29.864-3.057,38.657,13.408,5.028,9.419,1.014,20.519-10.166,26.49" transform="translate(96.562 0)" fill="#ff84ed"/>
            <path id="Trazado_878982-3" data-name="Trazado 878982" d="M138.564,144.219c-3.01.1-5.292-.59-6.781-2.047-1.588-1.553-2.374-4.057-2.335-7.446l.284-24.438-5.806.191.232-2.076,5.518-.765,2.7-12.079,2.815-.093L134.92,107.7l11.09-.364-.078,2.424-11.042.362-.377,23.825c-.012,2.745.539,4.557,1.732,5.716A5.438,5.438,0,0,0,140.382,141c2.911-.1,5.193-1.747,7.067-3.551l1.206,1.3a13.392,13.392,0,0,1-10.092,5.471" transform="translate(131.043 100.949)" fill="#ff84ed"/>
            <path id="Trazado_878983-3" data-name="Trazado 878983" d="M81.124,13.464c3.154.8,3.728,2.872,2.788,5.5l-5,14.254c-1.084,3.193-1.127,4.448.527,4.868,1.811.459,2.928-.907,5.543-4.923L94.9,17.733l5.016,1.274-6.29,21.3c-.407,1.383-.253,2.082.833,2.358a10.1,10.1,0,0,0,3.173-.132l.274,2.823a14.908,14.908,0,0,1-6.561.261c-3.051-.776-3.73-2.874-2.541-6.259l4.81-13.532-.4-.156L86.889,36.065c-2.979,4.8-5.679,6.979-9.816,5.93-4.549-1.156-5.016-4.522-3.133-9.989L78.5,18.8c.523-1.407.51-2.236-.625-2.524a5.26,5.26,0,0,0-3.029.442l-.6-2.409a11.79,11.79,0,0,1,6.874-.841" transform="translate(77.087 14.015)" fill="#ff84ed"/>
            <path id="Trazado_878984-3" data-name="Trazado 878984" d="M178.265,15.467c4.257,9.522,7.724,29.372-4.843,34.989-4.125,1.846-9.586,2.915-13.258-6.485L153.3,26.4c-.846-2.057-2.115-2.177-3.5-1.02l-2.331,2.109-2.5-2.693a19.86,19.86,0,0,1,6.681-5.5c3.87-1.73,6.2-.1,7.483,3.282l6.843,18.033c1.535,4.113,3.057,6.327,6.485,4.794,7.172-3.208,5.378-16.418,2.631-23.416-1.2-3.2-2.175-3.673-4.109-3.57l-2.654.2c-1.835-2.913-1.385-6.16,1.662-7.522,3.681-1.646,6.574.564,8.277,4.372" transform="translate(153.291 11.15)" fill="#ff84ed"/>
            <path id="Trazado_878985-3" data-name="Trazado 878985" d="M146.864,37.256a5.243,5.243,0,0,1-5.7-4.779l-.451-2.778-1.255,2.518c-1.848,3.714-4.374,5.425-8.2,5.553a6.2,6.2,0,0,1-4.747-1.541c-1.352-1.329-2.014-3.543-1.969-6.582l.232-15.513A3.022,3.022,0,0,0,124,11.867a2.192,2.192,0,0,0-1.662-.59,4.075,4.075,0,0,0-1.216.245l-1.479.523-.471-1.247a15.419,15.419,0,0,1,5.674-1.615,3.727,3.727,0,0,1,2.827.831,4.033,4.033,0,0,1,.9,3.047l-.4,15.573c-.074,2.915.374,4.693,1.455,5.765a3.874,3.874,0,0,0,2.985,1.035c5.465-.179,8.263-6.829,7.872-18.723a62.243,62.243,0,0,0-.642-6.767l3.491-.535a36.722,36.722,0,0,1,.654,6.1,91.463,91.463,0,0,1-.564,12.1c-.235,2.37-.276,4.755,1.018,6.139a4.151,4.151,0,0,0,3.313,1.13c6.892-.226,9.372-12.217,9.446-17.651.021-3.059-.648-4.265-2.751-4.963l-1.514-.494A3.92,3.92,0,0,1,153.629,9,2.574,2.574,0,0,1,155.6,8.17c1.737-.056,4.065.44,4.228,5.4.309,9.372-3.6,23.381-12.964,23.689" transform="translate(126.02 8.635)" fill="#ff84ed"/>
            <path id="Trazado_878986-3" data-name="Trazado 878986" d="M188.729,36.819c1.424-2.45,1.687-3.932.078-4.409l-1.671-.506a3.562,3.562,0,0,1,2.413-3.767,3.025,3.025,0,0,1,3.981,1.975c.889,2.58-.473,4.907-2.944,8.954l-1.714,2.808,5.936,6.15c1.527,1.588,2.193,1.874,3.253,1.508a4.871,4.871,0,0,0,2.2-1.687l1.681,1.43a8.057,8.057,0,0,1-4.325,3.761c-2.489.858-4.189.411-6.121-1.6l-5.59-5.751-2.7,4.279c-1.5,2.372-1.193,3.866.841,3.936l1.251.035a3.483,3.483,0,0,1-2.2,4.107,3.127,3.127,0,0,1-4.228-2.1c-.841-2.444-.107-4.345,2.5-8.287l2.594-3.989-5.825-5.983c-1.372-1.434-2.109-1.333-2.8-1.095a7.778,7.778,0,0,0-2.294,1.718l-1.673-2.156a12.329,12.329,0,0,1,4.714-3.376c2.257-.778,3.835-.241,5.456,1.469l5.4,5.664Z" transform="translate(181.227 29.544)" fill="#ff84ed"/>
            <path id="Trazado_878987-3" data-name="Trazado 878987" d="M25.225,70.531,24.353,56.4,21.01,57.685l-.833-1.743,8.252-5.325.887,1.9-2.362,2.352.765,17.5,4.123,6.989,3.506-1.632.876,1.813-9.483,6.119-.879-1.811,2.52-2.257-4-7.022L9.252,66.145l-2.9,1.144-.864-1.868,9.108-5.878.9,1.846L12.94,63.666,25.09,70.62Z" transform="translate(5.802 53.525)" fill="#ff84ed"/>
            <path id="Trazado_878988-3" data-name="Trazado 878988" d="M151.533,73.545l.87,2.463-17.856,24.161a16.763,16.763,0,0,1,3.87-.553c2.609-.086,4.821.632,6.822.566,2.245-.074,2.5-1.479,4.327-6.948l3.1-.1-1.391,11.347c-5.479,1.518-11.365-.173-16.04-.019a10.136,10.136,0,0,0-4.761,1.13l-2.222-2.905,17.727-24.337-9.343.307c-3.22.107-3.738.913-4.845,6.053l-3.15.286.52-10.042.646-.689Z" transform="translate(135.617 77.769)" fill="#ff84ed"/>
          </g>
        </g>
      </g>
      <path id="Trazado_879147" data-name="Trazado 879147" d="M436,360.825c7.81-22.007,13.928-39.609,4.784-68.508-7.3-23.09,12.543-42.106,20.221-63.6,6.834-19.128,9.084-42.132,7.418-62.975-2.277-28.457-13.225-56.962-32.187-77.333C406.69,56.666,362,48.668,322.824,56c-16.407,3.073-32.678,8.517-49.478,6.8-24.5-2.5-46.085-19.632-68.393-32.191-30.368-17.1-65.178-26.3-97.462-18.859-36.6,8.436-66.617,40.3-70.2,82.568-1.623,19.154,14.865,52.9,9.662,71.052C41.677,183.79,3.143,240.185,4.093,283.08c.947,42.735,9.822,56.025,22.364,77.745" transform="translate(-19.075 468.175)" fill="url(#linear-gradient-4)"/>
      <path id="Trazado_879148" data-name="Trazado 879148" d="M491.166,414.425a.68.68,0,0,1-.394-.128,1.23,1.23,0,0,1-.341-1.446,122.615,122.615,0,0,0,7.7-26.839c3.014-17.95.749-33.966-1.649-50.921-1.135-8.029-2.31-16.33-2.9-24.935-1.242-18.131,2.21-33.878,5.861-50.548,1.382-6.31,2.811-12.833,3.962-19.49,3.433-19.849,2.652-43.68-2.141-65.384-6.489-29.388-21.478-54.929-41.125-70.066C431.153,82.334,389.77,80.55,349.444,99.9c-3.71,1.78-7.459,3.741-11.082,5.638-11.062,5.786-22.5,11.772-34.685,13.61-18.112,2.727-36.01-3.848-53.325-10.209-5.247-1.927-10.673-3.918-16-5.61-34.167-10.853-67.523-9.107-93.923,4.924-34.656,18.416-56.184,58.732-53.569,100.32.464,7.375,1.666,14.861,2.826,22.1,1.961,12.222,3.989,24.858,2.552,37.411s-5.9,23.986-10.207,35.026c-2.63,6.744-5.352,13.717-7.344,20.852-6.641,23.8-8.33,61.76,3.653,88.867a1.24,1.24,0,0,1-.314,1.457.744.744,0,0,1-1.138-.4c-12.242-27.688-10.538-66.393-3.772-90.638,2.024-7.257,4.768-14.29,7.422-21.089,4.251-10.891,8.645-22.155,10.047-34.38,1.4-12.179-.6-24.629-2.534-36.671-1.172-7.3-2.383-14.852-2.856-22.36-2.674-42.517,19.267-83.7,54.594-102.468,26.727-14.2,60.454-15.986,94.963-5.024,5.356,1.7,10.795,3.7,16.056,5.632,17.159,6.3,34.892,12.821,52.671,10.141,11.96-1.8,23.291-7.732,34.247-13.466,3.637-1.9,7.4-3.869,11.127-5.659,40.8-19.577,82.723-17.727,112.142,4.937C481,118.25,496.266,144.244,502.87,174.152c4.865,22.033,5.653,46.245,2.165,66.428-1.162,6.714-2.6,13.268-3.986,19.605-3.61,16.478-7.021,32.043-5.806,49.785.584,8.506,1.751,16.758,2.881,24.738,2.428,17.171,4.723,33.388,1.637,51.755a125.073,125.073,0,0,1-7.861,27.4.828.828,0,0,1-.734.565" transform="matrix(-0.819, 0.574, -0.574, -0.819, 574.588, 102.747)" fill="#f3eeff"/>
      <path id="Trazado_879150" data-name="Trazado 879150" d="M491.166,414.425a.68.68,0,0,1-.394-.128,1.23,1.23,0,0,1-.341-1.446,122.615,122.615,0,0,0,7.7-26.839c3.014-17.95.749-33.966-1.649-50.921-1.135-8.029-2.31-16.33-2.9-24.935-1.242-18.131,2.21-33.878,5.861-50.548,1.382-6.31,2.811-12.833,3.962-19.49,3.433-19.849,2.652-43.68-2.141-65.384-6.489-29.388-21.478-54.929-41.125-70.066C431.153,82.334,389.77,80.55,349.444,99.9c-3.71,1.78-7.459,3.741-11.082,5.638-11.062,5.786-22.5,11.772-34.685,13.61-18.112,2.727-36.01-3.848-53.325-10.209-5.247-1.927-10.673-3.918-16-5.61-34.167-10.853-67.523-9.107-93.923,4.924-34.656,18.416-56.184,58.732-53.569,100.32.464,7.375,1.666,14.861,2.826,22.1,1.961,12.222,3.989,24.858,2.552,37.411s-5.9,23.986-10.207,35.026c-2.63,6.744-5.352,13.717-7.344,20.852-6.641,23.8-8.33,61.76,3.653,88.867a1.24,1.24,0,0,1-.314,1.457.744.744,0,0,1-1.138-.4c-12.242-27.688-10.538-66.393-3.772-90.638,2.024-7.257,4.768-14.29,7.422-21.089,4.251-10.891,8.645-22.155,10.047-34.38,1.4-12.179-.6-24.629-2.534-36.671-1.172-7.3-2.383-14.852-2.856-22.36-2.674-42.517,19.267-83.7,54.594-102.468,26.727-14.2,60.454-15.986,94.963-5.024,5.356,1.7,10.795,3.7,16.056,5.632,17.159,6.3,34.892,12.821,52.671,10.141,11.96-1.8,23.291-7.732,34.247-13.466,3.637-1.9,7.4-3.869,11.127-5.659,40.8-19.577,82.723-17.727,112.142,4.937C481,118.25,496.266,144.244,502.87,174.152c4.865,22.033,5.653,46.245,2.165,66.428-1.162,6.714-2.6,13.268-3.986,19.605-3.61,16.478-7.021,32.043-5.806,49.785.584,8.506,1.751,16.758,2.881,24.738,2.428,17.171,4.723,33.388,1.637,51.755a125.073,125.073,0,0,1-7.861,27.4.828.828,0,0,1-.734.565" transform="matrix(0.602, 0.799, -0.799, 0.602, 98.281, 204.614)" fill="#f3eeff"/>
      <path id="Trazado_879149" data-name="Trazado 879149" d="M392.912,362.728a.693.693,0,0,1-.35-.1,1.216,1.216,0,0,1-.407-1.42c5.127-14.217,9.178-25.446,3.178-44.106-3.515-10.928,1.9-20.514,7.142-29.784a88.036,88.036,0,0,0,6.362-12.818c4.251-11.706,6.027-26.565,4.873-40.769-1.564-19.231-9.28-37.469-21.171-50.039-17.581-18.585-45.616-26.449-75-21.034-2.7.5-5.454,1.1-8.111,1.688-8.135,1.79-16.548,3.638-25.078,2.785-12.671-1.27-24.284-8.305-35.513-15.107-3.395-2.055-6.9-4.182-10.374-6.1-22.251-12.326-45.168-16.694-64.533-12.3a59.522,59.522,0,0,0-46.141,53.254c-.466,5.405,1.412,12.709,3.4,20.441,2.467,9.6,5.017,19.522,3,26.447-1.083,3.72-4.077,9.486-7.869,16.784-8.4,16.185-21.106,40.643-20.669,60.06.592,26.4,5.765,35.172,13.592,48.45l1.157,1.964a1.28,1.28,0,0,1-.165,1.5.717.717,0,0,1-1.168-.21l-1.153-1.961c-7.734-13.118-13.322-22.6-13.931-49.676-.452-20.1,11.916-43.918,20.949-61.309,3.583-6.9,6.678-12.859,7.694-16.348,1.812-6.222-.644-15.783-3.021-25.029-2.045-7.961-3.977-15.479-3.471-21.346,2.33-27.059,21.421-49.212,47.509-55.126,19.682-4.46,42.939-.039,65.484,12.448,3.5,1.936,7.02,4.07,10.428,6.134,11.092,6.72,22.563,13.668,34.928,14.908,8.33.843,16.633-.99,24.666-2.759,2.669-.588,5.431-1.2,8.155-1.7,29.838-5.5,58.361,2.539,76.3,21.5,12.225,12.925,20.16,31.686,21.767,51.468,1.185,14.579-.646,29.848-5.02,41.894a89.618,89.618,0,0,1-6.524,13.171c-5.2,9.2-10.109,17.887-6.95,27.714,6.279,19.524,1.884,31.709-3.2,45.819a.847.847,0,0,1-.758.62" transform="matrix(-0.819, 0.574, -0.574, -0.819, 525.144, 74.256)" fill="#f3eeff"/>
    </g>
    <g id="Grupo_1099380" data-name="Grupo 1099380" transform="translate(1287.308 129.12) rotate(90)">
      <path id="Trazado_874920" data-name="Trazado 874920" d="M147.881,178a5.267,5.267,0,1,1,5.267-5.267A5.273,5.273,0,0,1,147.881,178m0-9.3a4.038,4.038,0,1,0,4.038,4.038,4.043,4.043,0,0,0-4.038-4.038" transform="translate(190.889 142.142)" fill="#824ffb"/>
      <path id="Trazado_874922" data-name="Trazado 874922" d="M107.632,10.533A5.267,5.267,0,1,1,112.9,5.267a5.272,5.272,0,0,1-5.267,5.267m0-9.3a4.038,4.038,0,1,0,4.038,4.038,4.043,4.043,0,0,0-4.038-4.038" transform="matrix(0.883, 0.469, -0.469, 0.883, 110.254, -37.058)" fill="#824ffb"/>
      <path id="Trazado_874924" data-name="Trazado 874924" d="M202.5,77.141a.615.615,0,0,1-.615-.615V70.343a.615.615,0,1,1,1.229,0v6.184a.615.615,0,0,1-.615.615" transform="translate(225.794 40.719)" fill="#824ffb"/>
      <path id="Trazado_874925" data-name="Trazado 874925" d="M206.8,72.844h-6.184a.615.615,0,1,1,0-1.229H206.8a.615.615,0,0,1,0,1.229" transform="translate(224.588 41.924)" fill="#824ffb"/>
      <path id="Trazado_874926" data-name="Trazado 874926" d="M150.795,16.364a.615.615,0,0,1-.615-.615V9.566a.615.615,0,1,1,1.229,0V15.75a.615.615,0,0,1-.614.615" transform="translate(192.628 2.049)" fill="#824ffb"/>
      <path id="Trazado_874927" data-name="Trazado 874927" d="M155.091,12.067h-6.184a.615.615,0,1,1,0-1.229h6.184a.615.615,0,1,1,0,1.229" transform="translate(191.42 3.254)" fill="#824ffb"/>
      <path id="Trazado_874928" data-name="Trazado 874928" d="M188.376,126.407a.615.615,0,0,1-.615-.614v-6.184a.615.615,0,1,1,1.229,0v6.184a.615.615,0,0,1-.615.614" transform="translate(223.652 144.183)" fill="#824ffb"/>
      <path id="Trazado_874929" data-name="Trazado 874929" d="M192.674,122.11h-6.186a.615.615,0,1,1,0-1.229h6.186a.615.615,0,1,1,0,1.229" transform="translate(222.445 145.389)" fill="#824ffb"/>
      <path id="Trazado_874932" data-name="Trazado 874932" d="M137.379,181.509a.615.615,0,0,1-.615-.614v-6.184a.615.615,0,0,1,1.229,0v6.184a.615.615,0,0,1-.614.614" transform="translate(187.154 146.376)" fill="#824ffb"/>
      <path id="Trazado_874933" data-name="Trazado 874933" d="M141.675,177.212h-6.184a.615.615,0,0,1,0-1.229h6.184a.615.615,0,0,1,0,1.229" transform="translate(185.948 147.582)" fill="#824ffb"/>
      <path id="Uni칩n_20" data-name="Uni칩n 20" d="M11604.232,11411.7v-2.477h-2.477a.615.615,0,0,1,0-1.229h2.477v-2.477a.615.615,0,0,1,1.229,0v2.477h2.479a.615.615,0,0,1,0,1.229h-2.479v2.477a.615.615,0,0,1-1.229,0Z" transform="matrix(0.883, 0.469, -0.469, 0.883, -4712.248, -15492.045)" fill="#824ffb" stroke="rgba(0,0,0,0)" stroke-miterlimit="10" stroke-width="1"/>
      <path id="Trazado_878144" data-name="Trazado 878144" d="M107.632,10.533A5.267,5.267,0,1,1,112.9,5.267a5.272,5.272,0,0,1-5.267,5.267m0-9.3a4.038,4.038,0,1,0,4.038,4.038,4.043,4.043,0,0,0-4.038-4.038" transform="translate(304.394 24.878)" fill="#824ffb"/>
      <path id="Trazado_878145" data-name="Trazado 878145" d="M95.764,21.439a.615.615,0,0,1-.615-.615V14.641a.615.615,0,1,1,1.229,0v6.184a.615.615,0,0,1-.615.615" transform="translate(299.784 33.835)" fill="#824ffb"/>
      <path id="Trazado_878146" data-name="Trazado 878146" d="M100.061,17.142H93.877a.615.615,0,1,1,0-1.229h6.184a.615.615,0,0,1,0,1.229" transform="translate(298.58 35.041)" fill="#824ffb"/>
    </g>
  </g>
</svg>
